<svg id="_Layer_" data-name="&lt;Layer&gt;" xmlns="http://www.w3.org/2000/svg" viewBox="0 0 2760 1840"><defs><style>.cls-1{fill:#ebf3fa;}.cls-2{opacity:0.5;}.cls-3{fill:#aec3ff;}.cls-4{opacity:0.4;}.cls-5{fill:#8c9df4;}.cls-6{fill:#505aba;}.cls-7{fill:#fff;}.cls-8{fill:#f99746;}.cls-9{fill:#bdd1f9;}.cls-10{fill:#d2e2f9;}.cls-11{fill:#35488b;}.cls-12{fill:#2c3a64;}.cls-13{fill:#dde7fe;}.cls-14{fill:#6c7aff;}.cls-15{fill:#8fadef;}.cls-16{fill:#f77d48;}.cls-17{fill:#ff8c64;}.cls-18{fill:#798ee8;}.cls-19{fill:#849def;}.cls-20{fill:#ffb27d;}.cls-21{fill:#2f539b;}.cls-22{fill:#233862;}.cls-23{fill:#6385db;}.cls-24{fill:#739af0;}.cls-25{fill:#ed985f;}.cls-26{fill:#ed7d2b;}.cls-27{fill:#ed975d;}.cls-28{fill:#113c68;}.cls-29{fill:#2a4e96;}.cls-30{fill:#15447c;}.cls-31{fill:#fca56b;}.cls-32{fill:#163560;}.cls-33{fill:#1f4d84;}.cls-34{fill:#b3cff9;}</style></defs><path class="cls-1" d="M2513,1605.67c-133.64,0-2139.89.48-2141-3l-.19-.44a2.35,2.35,0,0,1-.19-.65c-.74-1.74-386.33-157-132.16-504.46C372.69,915.05,134.89,636.3,418,390.34c443.68-385.43,867.07,89.31,1046.54,0,150.85-75.07,393.27-182.64,639.34-86.18,67.62,26.51,214,159.46,92.44,383.05-60.75,111.72,208.84,124.69,307.45,243.39C2718.54,1189.1,2593,1605.67,2513,1605.67Z"/><g class="cls-2"><g class="cls-2"><path class="cls-3" d="M1764.32,802.32s-25.76-204.07,46.29-347.66c9.58-19.08,37.9-15.52,42.63,5.3.08.35.16.7.23,1.06C1861,496.69,1784.47,674.17,1764.32,802.32Z"/></g><g class="cls-2"><path class="cls-3" d="M1766.13,862.13s39.41-272.93,184.93-425.58c8.87-9.31,23.75-10.45,33.38-1.93,6.27,5.55,11,15.5,9.86,33.13C1991.4,514.75,1835.21,709.47,1766.13,862.13Z"/></g></g><g class="cls-4"><rect class="cls-5" x="448.47" y="543.75" width="113.85" height="390.87" rx="13.76" transform="translate(1010.79 1478.37) rotate(180)"/><path class="cls-6" d="M532.08,850.32A26.69,26.69,0,1,0,505.39,877,26.69,26.69,0,0,0,532.08,850.32Z"/><path class="cls-7" d="M505.39,880a29.51,29.51,0,1,1,29.51-29.51A29.55,29.55,0,0,1,505.39,880Zm0-53.37a23.86,23.86,0,1,0,23.86,23.86A23.88,23.88,0,0,0,505.39,826.61Z"/><rect class="cls-3" x="472.04" y="561.63" width="66.67" height="219.71" rx="5.08" transform="translate(1010.76 1342.98) rotate(180)"/><rect class="cls-8" x="479.86" y="569.59" width="49.69" height="8.81" rx="4.05" transform="translate(1009.4 1147.98) rotate(180)"/><path class="cls-6" d="M513.9,710v45.28a2.2,2.2,0,0,0,2.2,2.21h0a2.21,2.21,0,0,0,2.2-2.21V710a2.21,2.21,0,0,0-2.2-2.21h0A2.2,2.2,0,0,0,513.9,710Z"/><path class="cls-6" d="M513.9,647.69V693a2.19,2.19,0,0,0,2.2,2.2h0a2.2,2.2,0,0,0,2.2-2.2V647.69a2.21,2.21,0,0,0-2.2-2.2h0A2.2,2.2,0,0,0,513.9,647.69Z"/><path class="cls-6" d="M488.63,710v45.28a2.21,2.21,0,0,0,2.2,2.21h0a2.21,2.21,0,0,0,2.21-2.21V710a2.21,2.21,0,0,0-2.21-2.21h0A2.21,2.21,0,0,0,488.63,710Z"/><path class="cls-6" d="M488.63,647.69V693a2.2,2.2,0,0,0,2.2,2.2h0A2.2,2.2,0,0,0,493,693V647.69a2.21,2.21,0,0,0-2.21-2.2h0A2.21,2.21,0,0,0,488.63,647.69Z"/><path class="cls-6" d="M501.78,697.22v58.06a2.2,2.2,0,0,0,2.2,2.21h0a2.2,2.2,0,0,0,2.2-2.21V697.22A2.2,2.2,0,0,0,504,695h0A2.2,2.2,0,0,0,501.78,697.22Z"/><path class="cls-6" d="M501.78,618.89V677a2.2,2.2,0,0,0,2.2,2.2h0a2.2,2.2,0,0,0,2.2-2.2V618.89a2.19,2.19,0,0,0-2.2-2.2h0A2.19,2.19,0,0,0,501.78,618.89Z"/><rect class="cls-5" x="590.45" y="543.75" width="113.85" height="390.87" rx="13.76" transform="translate(1294.75 1478.37) rotate(-180)"/><path class="cls-6" d="M674.06,850.32A26.69,26.69,0,1,0,647.38,877,26.69,26.69,0,0,0,674.06,850.32Z"/><path class="cls-7" d="M647.38,880a29.51,29.51,0,1,1,29.5-29.51A29.54,29.54,0,0,1,647.38,880Zm0-53.37a23.86,23.86,0,1,0,23.85,23.86A23.88,23.88,0,0,0,647.38,826.61Z"/><rect class="cls-3" x="614.02" y="561.63" width="66.67" height="219.71" rx="5.08" transform="translate(1294.72 1342.98) rotate(180)"/><rect class="cls-8" x="621.84" y="569.59" width="49.69" height="8.81" rx="4.05" transform="translate(1293.36 1147.98) rotate(180)"/><path class="cls-6" d="M655.88,710v45.28a2.2,2.2,0,0,0,2.2,2.21h0a2.2,2.2,0,0,0,2.2-2.21V710a2.2,2.2,0,0,0-2.2-2.21h0A2.2,2.2,0,0,0,655.88,710Z"/><path class="cls-6" d="M655.88,647.69V693a2.19,2.19,0,0,0,2.2,2.2h0a2.19,2.19,0,0,0,2.2-2.2V647.69a2.2,2.2,0,0,0-2.2-2.2h0A2.2,2.2,0,0,0,655.88,647.69Z"/><path class="cls-6" d="M630.61,710v45.28a2.21,2.21,0,0,0,2.2,2.21h0a2.21,2.21,0,0,0,2.21-2.21V710a2.21,2.21,0,0,0-2.21-2.21h0A2.21,2.21,0,0,0,630.61,710Z"/><path class="cls-6" d="M630.61,647.69V693a2.2,2.2,0,0,0,2.2,2.2h0A2.2,2.2,0,0,0,635,693V647.69a2.21,2.21,0,0,0-2.21-2.2h0A2.21,2.21,0,0,0,630.61,647.69Z"/><path class="cls-6" d="M643.76,697.22v58.06a2.21,2.21,0,0,0,2.2,2.21h0a2.2,2.2,0,0,0,2.2-2.21V697.22A2.2,2.2,0,0,0,646,695h0A2.21,2.21,0,0,0,643.76,697.22Z"/><path class="cls-6" d="M643.76,618.89V677a2.21,2.21,0,0,0,2.2,2.2h0a2.2,2.2,0,0,0,2.2-2.2V618.89a2.19,2.19,0,0,0-2.2-2.2h0A2.2,2.2,0,0,0,643.76,618.89Z"/><rect class="cls-5" x="735.14" y="543.75" width="113.85" height="390.87" rx="13.76" transform="translate(1584.13 1478.37) rotate(180)"/><path class="cls-6" d="M818.75,850.32A26.69,26.69,0,1,0,792.07,877,26.69,26.69,0,0,0,818.75,850.32Z"/><path class="cls-7" d="M792.07,880a29.51,29.51,0,1,1,29.51-29.51A29.54,29.54,0,0,1,792.07,880Zm0-53.37a23.86,23.86,0,1,0,23.85,23.86A23.88,23.88,0,0,0,792.07,826.61Z"/><rect class="cls-3" x="758.72" y="561.63" width="66.67" height="219.71" rx="5.08" transform="translate(1584.1 1342.98) rotate(180)"/><rect class="cls-8" x="766.53" y="569.59" width="49.69" height="8.81" rx="4.05" transform="translate(1582.75 1147.98) rotate(180)"/><path class="cls-6" d="M800.57,710v45.28a2.21,2.21,0,0,0,2.2,2.21h0a2.2,2.2,0,0,0,2.2-2.21V710a2.2,2.2,0,0,0-2.2-2.21h0A2.21,2.21,0,0,0,800.57,710Z"/><path class="cls-6" d="M800.57,647.69V693a2.2,2.2,0,0,0,2.2,2.2h0A2.19,2.19,0,0,0,805,693V647.69a2.2,2.2,0,0,0-2.2-2.2h0A2.21,2.21,0,0,0,800.57,647.69Z"/><path class="cls-6" d="M775.3,710v45.28a2.21,2.21,0,0,0,2.21,2.21h0a2.21,2.21,0,0,0,2.2-2.21V710a2.21,2.21,0,0,0-2.2-2.21h0A2.21,2.21,0,0,0,775.3,710Z"/><path class="cls-6" d="M775.3,647.69V693a2.2,2.2,0,0,0,2.21,2.2h0a2.2,2.2,0,0,0,2.2-2.2V647.69a2.21,2.21,0,0,0-2.2-2.2h0A2.21,2.21,0,0,0,775.3,647.69Z"/><path class="cls-6" d="M788.45,697.22v58.06a2.21,2.21,0,0,0,2.2,2.21h0a2.21,2.21,0,0,0,2.21-2.21V697.22a2.21,2.21,0,0,0-2.21-2.21h0A2.21,2.21,0,0,0,788.45,697.22Z"/><path class="cls-6" d="M788.45,618.89V677a2.21,2.21,0,0,0,2.2,2.2h0a2.21,2.21,0,0,0,2.21-2.2V618.89a2.2,2.2,0,0,0-2.21-2.2h0A2.2,2.2,0,0,0,788.45,618.89Z"/><path class="cls-5" d="M897.91,543.75h86.34A13.75,13.75,0,0,1,998,557.5V920.86a13.76,13.76,0,0,1-13.76,13.76H897.91a13.76,13.76,0,0,1-13.76-13.76V557.5A13.76,13.76,0,0,1,897.91,543.75Z" transform="translate(1882.15 1478.37) rotate(180)"/><rect class="cls-3" x="907.72" y="561.63" width="66.67" height="219.71" rx="5.08" transform="translate(1882.12 1342.98) rotate(180)"/><rect class="cls-8" x="915.54" y="569.59" width="49.69" height="8.81" rx="4.05" transform="translate(1880.76 1147.98) rotate(180)"/><rect class="cls-5" x="1027.95" y="543.75" width="113.85" height="390.87" rx="13.76" transform="translate(2169.75 1478.37) rotate(180)"/><rect class="cls-3" x="1051.52" y="561.63" width="66.67" height="219.71" rx="5.08" transform="translate(2169.72 1342.98) rotate(180)"/><rect class="cls-8" x="1059.34" y="569.59" width="49.69" height="8.81" rx="4.05" transform="translate(2168.36 1147.98) rotate(180)"/><path class="cls-5" d="M462.23,985.86h86.33a13.76,13.76,0,0,1,13.76,13.76V1363a13.75,13.75,0,0,1-13.75,13.75H462.23A13.76,13.76,0,0,1,448.47,1363V999.61A13.76,13.76,0,0,1,462.23,985.86Z" transform="translate(1010.79 2362.58) rotate(180)"/><circle class="cls-6" cx="505.39" cy="1292.42" r="26.68"/><path class="cls-7" d="M505.39,1322.08a29.51,29.51,0,1,1,29.51-29.5A29.54,29.54,0,0,1,505.39,1322.08Zm0-53.36a23.86,23.86,0,1,0,23.86,23.86A23.88,23.88,0,0,0,505.39,1268.72Z"/><rect class="cls-3" x="472.04" y="1003.74" width="66.67" height="219.71" rx="5.08" transform="translate(1010.76 2227.19) rotate(180)"/><rect class="cls-8" x="479.86" y="1011.69" width="49.69" height="8.81" rx="4.05" transform="translate(1009.4 2032.2) rotate(180)"/><path class="cls-6" d="M513.9,1152.11v45.28a2.19,2.19,0,0,0,2.2,2.2h0a2.2,2.2,0,0,0,2.2-2.2v-45.28a2.21,2.21,0,0,0-2.2-2.21h0A2.2,2.2,0,0,0,513.9,1152.11Z"/><path class="cls-6" d="M513.9,1089.8v45.29a2.2,2.2,0,0,0,2.2,2.2h0a2.21,2.21,0,0,0,2.2-2.2V1089.8a2.2,2.2,0,0,0-2.2-2.2h0A2.19,2.19,0,0,0,513.9,1089.8Z"/><path class="cls-6" d="M488.63,1152.11v45.28a2.2,2.2,0,0,0,2.2,2.2h0a2.2,2.2,0,0,0,2.21-2.2v-45.28a2.21,2.21,0,0,0-2.21-2.21h0A2.21,2.21,0,0,0,488.63,1152.11Z"/><path class="cls-6" d="M488.63,1089.8v45.29a2.21,2.21,0,0,0,2.2,2.2h0a2.21,2.21,0,0,0,2.21-2.2V1089.8a2.2,2.2,0,0,0-2.21-2.2h0A2.2,2.2,0,0,0,488.63,1089.8Z"/><path class="cls-6" d="M501.78,1139.33v58.06a2.19,2.19,0,0,0,2.2,2.2h0a2.19,2.19,0,0,0,2.2-2.2v-58.06a2.2,2.2,0,0,0-2.2-2.21h0A2.2,2.2,0,0,0,501.78,1139.33Z"/><path class="cls-6" d="M501.78,1061v58.06a2.19,2.19,0,0,0,2.2,2.2h0a2.19,2.19,0,0,0,2.2-2.2V1061a2.2,2.2,0,0,0-2.2-2.21h0A2.2,2.2,0,0,0,501.78,1061Z"/><path class="cls-5" d="M604.21,985.86h86.34a13.76,13.76,0,0,1,13.76,13.76V1363a13.75,13.75,0,0,1-13.75,13.75H604.21A13.76,13.76,0,0,1,590.45,1363V999.61A13.76,13.76,0,0,1,604.21,985.86Z" transform="translate(1294.75 2362.58) rotate(180)"/><path class="cls-6" d="M674.06,1292.42a26.69,26.69,0,1,0-26.68,26.69A26.69,26.69,0,0,0,674.06,1292.42Z"/><path class="cls-7" d="M647.38,1322.08a29.51,29.51,0,1,1,29.5-29.5A29.53,29.53,0,0,1,647.38,1322.08Zm0-53.36a23.86,23.86,0,1,0,23.85,23.86A23.88,23.88,0,0,0,647.38,1268.72Z"/><rect class="cls-3" x="614.02" y="1003.74" width="66.67" height="219.71" rx="5.08" transform="translate(1294.72 2227.19) rotate(180)"/><rect class="cls-8" x="621.84" y="1011.69" width="49.69" height="8.81" rx="4.05" transform="translate(1293.36 2032.2) rotate(180)"/><path class="cls-6" d="M655.88,1152.11v45.28a2.19,2.19,0,0,0,2.2,2.2h0a2.19,2.19,0,0,0,2.2-2.2v-45.28a2.2,2.2,0,0,0-2.2-2.21h0A2.2,2.2,0,0,0,655.88,1152.11Z"/><path class="cls-6" d="M655.88,1089.8v45.29a2.2,2.2,0,0,0,2.2,2.2h0a2.2,2.2,0,0,0,2.2-2.2V1089.8a2.19,2.19,0,0,0-2.2-2.2h0A2.19,2.19,0,0,0,655.88,1089.8Z"/><path class="cls-6" d="M630.61,1152.11v45.28a2.2,2.2,0,0,0,2.2,2.2h0a2.2,2.2,0,0,0,2.21-2.2v-45.28a2.21,2.21,0,0,0-2.21-2.21h0A2.21,2.21,0,0,0,630.61,1152.11Z"/><path class="cls-6" d="M630.61,1089.8v45.29a2.21,2.21,0,0,0,2.2,2.2h0a2.21,2.21,0,0,0,2.21-2.2V1089.8a2.2,2.2,0,0,0-2.21-2.2h0A2.2,2.2,0,0,0,630.61,1089.8Z"/><path class="cls-6" d="M643.76,1139.33v58.06a2.2,2.2,0,0,0,2.2,2.2h0a2.19,2.19,0,0,0,2.2-2.2v-58.06a2.2,2.2,0,0,0-2.2-2.21h0A2.21,2.21,0,0,0,643.76,1139.33Z"/><path class="cls-6" d="M643.76,1061v58.06a2.2,2.2,0,0,0,2.2,2.2h0a2.19,2.19,0,0,0,2.2-2.2V1061a2.2,2.2,0,0,0-2.2-2.21h0A2.21,2.21,0,0,0,643.76,1061Z"/><path class="cls-5" d="M748.9,985.86h86.34A13.76,13.76,0,0,1,849,999.61V1363a13.75,13.75,0,0,1-13.75,13.75H748.9A13.76,13.76,0,0,1,735.14,1363V999.61A13.76,13.76,0,0,1,748.9,985.86Z" transform="translate(1584.13 2362.58) rotate(180)"/><path class="cls-5" d="M897.91,985.86h86.34A13.75,13.75,0,0,1,998,999.61V1363a13.75,13.75,0,0,1-13.75,13.75H897.91A13.76,13.76,0,0,1,884.15,1363V999.61A13.76,13.76,0,0,1,897.91,985.86Z" transform="translate(1882.15 2362.58) rotate(180)"/><path class="cls-5" d="M1041.71,985.86H1128a13.76,13.76,0,0,1,13.76,13.76V1363a13.75,13.75,0,0,1-13.75,13.75h-86.34A13.76,13.76,0,0,1,1028,1363V999.61A13.76,13.76,0,0,1,1041.71,985.86Z" transform="translate(2169.75 2362.58) rotate(180)"/><path class="cls-9" d="M418,1605.7h0A13.69,13.69,0,0,1,404.33,1592V503.3A13.69,13.69,0,0,1,418,489.61h0A13.69,13.69,0,0,1,431.7,503.3V1592A13.69,13.69,0,0,1,418,1605.7Z"/><rect class="cls-9" x="404.33" y="934.67" width="790.84" height="10.99" transform="translate(1599.49 1880.33) rotate(180)"/><rect class="cls-9" x="404.33" y="1376.55" width="839.94" height="10.99" transform="translate(1648.6 2764.09) rotate(180)"/></g><path class="cls-10" d="M2085,866.72s-75.19,65.27-62.18,78.51,78.53-78.77,78.53-78.77,98.45,22.17,124.28,47c0,0-103.53,39.88-87.67,49.51s125.54-26.86,125.54-26.86,83.81,44.35,61.24,97-58.68,59.26-71.65,53.39-81.74-61.81-87.09-51.35,30.15,62,62.75,74.66c0,0-85.33,48.42-120.38,14.79s-28.19-66.38-50.22-86.77-44.18-27.65-37.45-12,49.79,42.81,56,73.93,13.67,53.19-27.24,32.54-100.5-75.19-91.7-112.27c.39-1.62.75-3.16,1.11-4.64a18.45,18.45,0,0,0-1.11,4.64c-9.49-1.36-33.53,9-51.26,17.5-2.83,1.59-6.94,3.65-12.71,6.29h0c-2.5,1.27-4.54,2.33-6,3.07-37,21.22-72.87,80-72.87,80l-9.11-3.94c26.12-67.22,90.49-88.45,90.49-88.45,46.82-20.18,70.22-51.58,70.22-51.58s-37.66-91.5,34.66-117.93C2001.24,865,2051.52,853.4,2085,866.72Z"/><rect class="cls-11" x="2357.38" y="1196.04" width="64.67" height="208.62" transform="translate(4779.42 2600.71) rotate(180)"/><rect class="cls-12" x="2201.43" y="1196.04" width="155.95" height="208.62" transform="translate(4558.8 2600.71) rotate(180)"/><path class="cls-13" d="M2400.5,1222.1a10.79,10.79,0,1,0-10.79,10.79A10.79,10.79,0,0,0,2400.5,1222.1Z"/><path class="cls-14" d="M2397.34,1222.1a7.63,7.63,0,1,0-7.63,7.63A7.63,7.63,0,0,0,2397.34,1222.1Z"/><rect class="cls-15" x="2374.26" y="1248.1" width="30.42" height="54.95" transform="translate(4778.94 2551.15) rotate(180)"/><rect class="cls-11" x="2236.74" y="1196.04" width="64.67" height="208.62" transform="translate(4538.14 2600.71) rotate(180)"/><rect class="cls-12" x="2080.79" y="1196.04" width="155.95" height="208.62" transform="translate(4317.52 2600.71) rotate(180)"/><path class="cls-13" d="M2279.86,1222.1a10.79,10.79,0,1,0-10.79,10.79A10.79,10.79,0,0,0,2279.86,1222.1Z"/><path class="cls-14" d="M2276.7,1222.1a7.63,7.63,0,1,0-7.63,7.63A7.62,7.62,0,0,0,2276.7,1222.1Z"/><rect class="cls-15" x="2253.63" y="1248.1" width="30.42" height="54.95" transform="translate(4537.67 2551.15) rotate(180)"/><rect class="cls-11" x="2126.43" y="1196.04" width="64.67" height="208.62" transform="translate(4317.53 2600.71) rotate(180)"/><rect class="cls-12" x="1970.48" y="1196.04" width="155.95" height="208.62" transform="translate(4096.91 2600.71) rotate(180)"/><path class="cls-13" d="M2169.56,1222.1a10.8,10.8,0,1,0-10.8,10.79A10.8,10.8,0,0,0,2169.56,1222.1Z"/><path class="cls-14" d="M2166.4,1222.1a7.64,7.64,0,1,0-7.64,7.63A7.63,7.63,0,0,0,2166.4,1222.1Z"/><rect class="cls-15" x="2143.32" y="1248.1" width="30.42" height="54.95" transform="translate(4317.05 2551.15) rotate(180)"/><rect class="cls-16" x="1960.76" y="1331.9" width="365.37" height="269.95" transform="translate(4286.9 2933.75) rotate(180)"/><rect class="cls-17" x="2156.56" y="1331.9" width="289.69" height="269.95" transform="translate(4602.81 2933.75) rotate(180)"/><rect class="cls-12" x="2271.95" y="1357.98" width="91.93" height="17.99" rx="8.45" transform="translate(4635.84 2733.95) rotate(180)"/><path class="cls-18" d="M1410.41,979.09,1361,1566.59s-5.18,35.61,21.31,35.67c43.55.11,216.79,0,216.79,0s-32.79-7.41-32.39-24.09c.47-19.66,57.75-604.64,57.75-604.64Z"/><path class="cls-3" d="M1615.4,1591.58c-8.56,0-176.27.31-218.69-.23-18.48-.23-21.72-16.44-21.88-26.93a52.18,52.18,0,0,1,.56-8.74l1.29-15.27,3.27-38.92,2.9-34.38,3.71-44.19,3.13-37.29,35.11-417.46,214.06-5.55s-24.13,244.81-41.19,423c-1.91,19.85-3.72,38.89-5.39,56.66q-.83,8.51-1.58,16.62c-1.58,16.86-3,32.35-4.29,46-.66,7.2-1.27,13.9-1.83,20-2.17,24-3.45,39.38-3.47,42.3a25.37,25.37,0,0,0,.42,4.75C1585,1590.74,1612.19,1591.58,1615.4,1591.58Z"/><polygon class="cls-3" points="890.56 659.14 1010.91 1142.58 1027.39 1208.79 1083.44 1433.96 2124.86 1433.96 1918.25 659.14 890.56 659.14"/><polygon class="cls-18" points="890.56 659.14 873.88 664.7 1061.27 1450.78 1083.45 1433.96 890.56 659.14"/><polygon class="cls-19" points="1061.27 1450.78 2096.27 1450.78 2124.85 1433.96 1083.45 1433.96 1061.27 1450.78"/><rect class="cls-3" x="1424.73" y="1591.58" width="224.09" height="10.65" transform="translate(3073.56 3193.82) rotate(180)"/><polygon class="cls-5" points="1591.86 1450.77 1590.7 1458.91 1379.95 1501.49 1382.85 1467.11 1384.22 1450.77 1591.86 1450.77"/><g class="cls-2"><path class="cls-5" d="M1615.4,1591.58c-8.56,0-176.27.31-218.69-.23-18.48-.23-21.72-16.44-21.88-26.93L1584.58,1525c-2.17,24-3.45,39.38-3.47,42.3a25.37,25.37,0,0,0,.42,4.75C1585,1590.74,1612.19,1591.58,1615.4,1591.58Z"/></g><polygon class="cls-5" points="890.56 659.14 1918.24 659.14 2084.99 1281.85 1045.58 1281.85 890.56 659.14"/><polygon class="cls-6" points="2036.52 1254.87 1074.29 1254.87 1039.9 1117.89 1026.6 1064.89 1021.18 1043.27 985.83 902.5 984.01 895.17 965.32 820.77 956.96 787.47 949.84 759.07 944.02 735.91 933.12 692.5 1881.48 692.5 1893.45 735.91 1899.84 759.07 1907.66 787.47 1916.84 820.77 1977.31 1040.1 1977.31 1040.11 1982.43 1058.7 1984.82 1067.32 2026.56 1218.75 2036.52 1254.87"/><path class="cls-12" d="M833.18,993.67s2.51-27.35-28-27.35c0,0,9.26,2.51,14,7.53,0,0-19.49-11.44-40.7,6.15s-8,61.68-14.49,70-31.57,10-28.5,37.12,79.72,61,74.8,83.38c0,0,30-44.16,8.56-64.31,0,0,10.47,9.86,11.54,21.59,0,0,2.84-22.89-11.72-30.21-12.89-6.48-23.45-30.17-22.33-34.41S833.18,993.67,833.18,993.67Z"/><path class="cls-20" d="M803.09,1125s22.83,94.46,45.25,113.34c13.47,11.35,53.52,37.39,53.52,37.39l-16.66,6s-55.55-18.76-68-33.39-46.49-87.9-46.49-87.9Z"/><path class="cls-8" d="M934.92,1310.25,929.55,1297a37.68,37.68,0,0,0-34.94-23.58h-99v330.93h409.43V1336.19H973.37A41.47,41.47,0,0,1,934.92,1310.25Z"/><path class="cls-21" d="M588.52,1290.93c.2.36.41.74.63,1.11,5,8.68,16.45,30,29.08,53.25,6,11,12.22,22.54,18.15,33.37,10.22,18.67,19.52,35.3,24.94,44.09,5.52,8.94,9.58,15.22,11.22,17.73h0a4.09,4.09,0,0,1,.54,2.59,134.48,134.48,0,0,0,.36,23.42c7.61,75.75,58.7,116.35,58.7,116.35l15.18,2.24s-21.49-79.63-27.82-124.64c-1.07-7.63-1.54-13.82-1.16-17.85,1.12-11.73-1-28.95-4.91-48.72-7-35.13-19.87-78.25-31.05-112.77-.71-2.2-22.07-79.46-22.07-79.46-17.93,15.66-83.32,22.13-83.32,22.13S565.92,1250.74,588.52,1290.93Z"/><path class="cls-22" d="M779.21,1604.31H715.82s-1.52-9.66,1.79-17c3.18-7,7.7-7.26.58-18.28,4,4.15,17,5.86,26.14,4.63,1.12,1.82,7.24,14,11,16.73C759.46,1593.37,777.93,1592.31,779.21,1604.31Z"/><path class="cls-22" d="M588.52,1290.93c.2.36.41.74.63,1.11,5,8.68,32,58.59,44.64,81.87-14.63-60.18-4.46-120.36-4.46-120.36Z"/><path class="cls-12" d="M824.53,989.82c.42-1.66-36.2,16.56-38.06,18.62-17.17,19-12.27,43.91-2.45,44.14,6.31.16,5.08,10.63,5.08,10.63l70.22-29.7S850.86,984.22,824.53,989.82Z"/><path class="cls-23" d="M800.94,1110.81s10.68,21.34,9.35,38.67c0,0-12.88,20.33-46.3,25.48C764,1175,792.72,1110.79,800.94,1110.81Z"/><path class="cls-21" d="M637.93,1228.5l.22-11.86c-23.62,3-81.45-28.22-81.45-28.22s-24.71,16.43-28.09,63.37c-1.65,22.91-12.1,119.8-13.25,148.74-.43,10.48-.57,18-.61,21v0a4.12,4.12,0,0,1-1,2.44,134.7,134.7,0,0,0-12.8,19.62c-36.05,67.06-17.2,158.18-17.2,158.18l8.37-2.13s30.48-94.46,50.4-135.32c3.38-6.93,6.45-12.32,9-15.44,7.49-9.1,15.38-24.55,23.17-43.14C589.42,1370.58,637.93,1228.5,637.93,1228.5Z"/><path class="cls-22" d="M534.16,1604.31H470.77s-1.52-9.66,1.79-17c3.17-7,8.14-10.23,6.95-18.74,4,4.15,10.6,8.79,19.76,7.56,1.12,1.82,7.25,11.56,11,14.26C514.41,1593.37,532.88,1592.31,534.16,1604.31Z"/><path class="cls-24" d="M759.71,1188.57c-8.51,1.46,1.39,8.22-10.32,9.5-16.66,1.82-33.87,3.06-42.89,6.66-3.29,1.31-5.49,2.93-6.17,5-3.91,11.75-28.66,31.94-28.66,31.94-110.38-5-117.49-54.22-117.49-54.22,71.64-69.57,132.59-107.5,183-112.19,12.26-1.14,28.79.39,36.54,3.84,17.62,7.84,27.27,31.71,27.27,31.71S792.07,1183.06,759.71,1188.57Z"/><path class="cls-23" d="M749.39,1198.07c-16.66,1.82-33.87,3.06-42.89,6.66-3.68-55,22.3-96.46,22.3-96.46S745.74,1177.24,749.39,1198.07Z"/><path class="cls-20" d="M763.77,1099s-41.91-2.29-49.36,24,14,131.36,18.59,142.2c8.4,19.74,50.78,78.52,50.78,78.52l13.59-7s-27.28-86.06-33.38-94.58C754.43,1228.72,776.32,1110.4,763.77,1099Z"/><path class="cls-20" d="M797.37,1336.67a62.45,62.45,0,0,1,6.32,6.49c2.82,3.44.34,4.69,8.44,20.29,0,0-.42,2.16-2.18,1.77s-7.86-6.45-11-6c0,0-2.24,1.84-2.48,8-.23,5.71-.25,18.37-1.25,20.74S787,1378,783.37,1369c-3.14-7.82-.08-34.19-.08-34.19Z"/><path class="cls-24" d="M706.14,1158.17c.11.62,39.67,7.28,64.41-5.28,0,0,20.67-64.75-8.87-61.65s-47,12.4-47.77,26.54S706.14,1158.17,706.14,1158.17Z"/><path class="cls-20" d="M772.73,1083.64c.43,5.24,1.09,11.37,7.95,18.44,5.26,5.41,12.85,9.63,18.18,4.3a58.19,58.19,0,0,0,8.25-10c4.61-7.92,10.1-16,10.1-16l-23.72-20.78-1.42-1.24a60.39,60.39,0,0,1-17.67,20.05C772.78,1079.63,772.56,1081.63,772.73,1083.64Z"/><path class="cls-25" d="M817.21,1080.4s-5.49,8.08-10.1,16c-14.74-9.09-14.76-27.34-13.62-36.8Z"/><path class="cls-20" d="M817.87,1090.82s-35.81-19.93-23.06-42,16.72-39.57,40.12-27.78,22.93,22.76,20.47,31.17S827.51,1095.43,817.87,1090.82Z"/><path class="cls-12" d="M861.45,1039.29c-1.64-9.82-6.63-10.75-10.1-10.1-13.23-21.86-34.83-13.33-34.83-13.33a48.75,48.75,0,0,1-28.22,16.95s4.16,7.73,21.28,12.52c5.23,1.46,11.16.57,16.88-1.35a95.35,95.35,0,0,1-24.29,9.15c22.56,2.07,44-18.56,46.25-20.76,1,3.19,2.86,9.89,1.77,14.78-1.49,6.64-7.39,18.69-3.78,20.24C846.41,1067.39,863.91,1054,861.45,1039.29Z"/><path class="cls-20" d="M908.41,1275.77s-10,7.49-2.46,12.39,21,6.22,21,3C927.17,1280.38,921.79,1272.71,908.41,1275.77Z"/><rect class="cls-22" x="261.25" y="1602.31" width="2336.66" height="6.73" rx="2.76"/><path class="cls-8" d="M1147.66,858.05l-8.88-13.1c-9.51-14.05-25.66-23.25-40.82-23.25h-97.61l16.94,61.94,67.21,245.78a25.33,25.33,0,0,0,24.44,18.66h351.27a25.34,25.34,0,0,0,24.44-32l-63.56-232.42H1192.58C1175.91,883.64,1158.13,873.52,1147.66,858.05Z"/><path class="cls-20" d="M1157.79,784.32a5.43,5.43,0,0,0-1,5.81v0c1.4,3.87,6,8.2,11.4,12.51q1,.84,1.83,1.53l.42.37.31.29c5,4.62,3.13,5.68,12.13,15.06,10.27,10.69,17.34,10.88,19.35,9.91,1.7-.83-1.76-6.5-5.58-12.87l-.56-.93-1.53-2.56c-4.48-7.67-3.33-11.26-2.26-22.67.87-9.27,14.44-51.79,14.44-51.79l-19.68-3.39s-5.94,33.85-12.47,39.07c-3.49,2.77-7.4,2.81-10.76,4.87l-.69.44A26,26,0,0,0,1157.79,784.32Z"/><path class="cls-22" d="M1157.79,784.32a5.43,5.43,0,0,0-1,5.81v0c1.72,3.87,6.23,8.17,11.42,12.48.68.56,1.28,1.08,1.81,1.56l.42.37.31.29c5,4.62,3.13,5.68,12.13,15.06,10.27,10.69,17.34,10.88,19.35,9.91,1.7-.83-1.76-6.5-5.58-12.87a43.74,43.74,0,0,1-18.31-13.5c-6-7.6-10-17.29-14.05-23.25l-1.15-.21A26,26,0,0,0,1157.79,784.32Z"/><path class="cls-20" d="M1316.48,772.09c1.22,6.07,9.87,5.06,19.55,2.7s7.38.45,21.14-1.07,17.95-6.65,18.37-8.7c.37-1.81-6.43-2.46-13.73-3.3l-2.76-.33c-8.24-1-14.27-6.36-21.75-10.73-7.09-4.13-17.66-21-17.66-21l-18.88,1.49s9.9,15.05,13.73,21.6c2.25,3.85,2.13,8.94,1.85,12.87A24.12,24.12,0,0,0,1316.48,772.09Z"/><path class="cls-22" d="M1336,774.79c9.68-2.36,7.38.45,21.14-1.07s17.95-6.65,18.37-8.7c.37-1.81-6.43-2.46-13.73-3.3l-.07.14A38.76,38.76,0,0,1,1342,768c-9.35.23-19.24-2.45-25.69-2.35a24.12,24.12,0,0,0,.14,6.46C1317.7,778.16,1326.35,777.15,1336,774.79Z"/><path class="cls-26" d="M1244.16,651.32l-17.67,47.5-23.06,62a37.25,37.25,0,0,1-12.24-1.13c-5.52-1.59-11.84-5.76-11.84-5.76s6.42-66.59,18.37-104.81c3.06-9.81,6.49-17.75,10.28-22.22C1226.51,605.05,1244.16,651.32,1244.16,651.32Z"/><path class="cls-8" d="M1226.24,575.88c-10-3.24-36.26-.06-64.7,5.08a19.27,19.27,0,0,1-19.91-9h0l-71.57-5.62s-23.63,52.37-10.71,85.74c1.9,4.9,6.07,8,12.5,8.07h0s43.25.08,57.08.08c35.59,0,75.33-24.44,80.47-25.46,8.41-1.68,11.77,15.14,20.17,32.81s79,78.27,79,78.27,10.87.11,15.35-1.57c4.83-1.81,6.59-4.16,6.59-4.16S1252.32,584.31,1226.24,575.88Z"/><path class="cls-22" d="M1134.1,361.81a25.48,25.48,0,0,0-13.67-3.57,37.34,37.34,0,0,1-6.6-.4c-27.32-4-43.78,35.66-44.74,47.64-1.78,22-13.43,25.36-29.82,39.14-32.87,27.62-23.24,59.74-5.28,71.68,10.78,7.16,29.78,0,29.78,0,.27.19,52-28.88,77.47-42.91C1179.45,468,1149.44,371,1134.1,361.81Z"/><path class="cls-20" d="M1119.88,461.45c.12.08-12.54,4.39-21,.64-8-3.52-14-16.61-13.87-16.62,3.62-.17,7.6-3.33,10.67-24.1l1.54.56,25.91,9.33s-1.88,8.32-3.09,16.24C1119,454.14,1118.47,460.51,1119.88,461.45Z"/><path class="cls-27" d="M1123.14,431.26s-1,4.49-2.54,12.87c-14.89-2.68-21.28-14.15-23.37-22.2Z"/><path class="cls-20" d="M1127,439.52s-35.46-4.77-32.15-26.81,1-37.49,23.75-35.38,25.9,11.18,26.59,18.81S1136.31,440.19,1127,439.52Z"/><path class="cls-22" d="M1143.9,384.06s-22.71,19.55-38.15,21.13-21.29-3.39-21.29-3.39a60.19,60.19,0,0,0,14.59-19.75,10.87,10.87,0,0,1,9-6.4C1119,374.71,1139.93,374.28,1143.9,384.06Z"/><path class="cls-22" d="M1129.71,382.3s7.59,7.35,10,12.79c2.31,5.26,3,17.83,1.15,22.82,0,0,11.84-23,5.15-34.18C1138.89,371.87,1129.71,382.3,1129.71,382.3Z"/><path class="cls-21" d="M1149.73,513.7c-1.1,71.78-.32,56.78-8.17,63.59-1.9,1.64-7.21,2.62-14.22,3.08-22,1.45-60.7-2.19-62.17-6.26-5.07-14.07-1.48-18.45-5.71-40-.44-2.29-1-4.77-1.63-7.47-3.52-14.8-7-19.84,5.58-43.61,11.37-21.53,23.18-39,24.24-38.38,30,17.81,32.39,2.85,32.39,2.85S1150.26,478.69,1149.73,513.7Z"/><path class="cls-8" d="M1226.49,698.82l-23.06,62a37.25,37.25,0,0,1-12.24-1.13c-5.52-1.59-11.84-5.76-11.84-5.76s6.42-66.59,18.37-104.81Z"/><path class="cls-21" d="M1120.05,447.5s30.84,5.24,34.46,18.52,15.51,93.9,15.51,93.9-8.7,8.49-15.94,1.24-22.77-75.43-22.77-75.43Z"/><path class="cls-22" d="M1127.34,580.37c-22,1.45-60.7-2.19-62.17-6.26-5.07-14.07-1.48-18.45-5.71-40l10.63-29.89s-1.77,33.29,8,42,40.19,16.92,45,24.23A26.84,26.84,0,0,1,1127.34,580.37Z"/><path class="cls-20" d="M1102.13,566.36s21.72-4.83,25.22-2.9,12.07,8.95,13.14,11.39-7.8-1.86-10.69-2.63c-1.87-.51-6.79,1.2-9.22,2-10.25,3.42-16.53,1.66-16.53,1.66Z"/><path class="cls-21" d="M1087.63,444.64s-29.16,1.78-39.26,15.86c-14.21,19.81-42.43,104.25-26.28,115.52,18.19,12.7,82.8,3.35,82.8,3.35s2.15-10-.84-14.91-51.59-12.73-53.84-15,28.06-43.74,28.06-50.47S1087.63,444.64,1087.63,444.64Z"/><path class="cls-20" d="M1128.4,569.5s4.55,5.87,6,6.57a4.48,4.48,0,0,0,2.45.53l-3.06-5.52Z"/><path class="cls-20" d="M1127.35,563.46l13.23,6.42a2.35,2.35,0,0,1-2.19.85,31.14,31.14,0,0,1-5.74-1.58Z"/><polygon class="cls-22" points="1240.31 578.6 1102.13 578.55 1102.13 581.6 1239.08 581.65 1240.31 578.6"/><polygon class="cls-22" points="1134.44 581.61 1239.08 581.65 1270.58 503.38 1166.1 503.34 1134.44 581.61"/><path class="cls-7" d="M1212.68,542.5c.79-2.75-.8-5-3.55-5a7.12,7.12,0,0,0-6.42,5c-.79,2.75.8,5,3.55,5A7.14,7.14,0,0,0,1212.68,542.5Z"/><g class="cls-2"><polygon class="cls-5" points="1728.83 840.4 1699.88 803.42 1698.52 801.68 1696.88 801.38 1563.31 776.8 1518.35 1021.13 1691.53 1052.99 1729.98 843.98 1730.29 842.27 1728.83 840.4"/></g><polygon class="cls-5" points="1641.93 764.59 1642 766.33 1650.24 978.68 1474.29 985.51 1464.66 737.27 1600.39 732 1602.04 731.94 1603.76 733.34 1640.09 763.08 1641.93 764.59"/><path class="cls-22" d="M1526.2,825.4l-293.63,16.36a1.08,1.08,0,0,0-1,1.14L1253,1227.4a1.07,1.07,0,0,0,1.13,1l293.21-16.34a1.07,1.07,0,0,0,1-1.13L1526.89,826A.66.66,0,0,0,1526.2,825.4Z"/><path class="cls-1" d="M1525.66,1199.93l-248.72,15.61a13.53,13.53,0,0,1-14.35-12.66l-21.21-338A13.53,13.53,0,0,1,1254,850.57L1502.75,835a13.54,13.54,0,0,1,14.36,12.66l21.21,337.95A13.54,13.54,0,0,1,1525.66,1199.93Z"/><path class="cls-9" d="M1427.5,890.71,1271,900.52a.13.13,0,0,1-.15-.13l-.25-3.91a.16.16,0,0,1,.14-.16l156.46-9.81a.13.13,0,0,1,.15.13l.25,3.91A.16.16,0,0,1,1427.5,890.71Z"/><path class="cls-9" d="M1429.61,924.3l-156.46,9.81a.13.13,0,0,1-.15-.13l-.25-3.91a.15.15,0,0,1,.14-.15l156.46-9.82a.14.14,0,0,1,.15.13l.25,3.91A.16.16,0,0,1,1429.61,924.3Z"/><path class="cls-9" d="M1488.33,903.75,1272.1,917.32a.16.16,0,0,1-.16-.14l-.24-3.91a.13.13,0,0,1,.13-.15l216.24-13.57a.15.15,0,0,1,.15.14l.25,3.91A.15.15,0,0,1,1488.33,903.75Z"/><path class="cls-9" d="M1391.8,1031.09l-106.45,6.68a.13.13,0,0,1-.13-.12l-.25-4a.12.12,0,0,1,.12-.12l106.45-6.68a.11.11,0,0,1,.12.11l.25,4A.13.13,0,0,1,1391.8,1031.09Z"/><path class="cls-9" d="M1431.43,1011.74,1284.29,1021a.12.12,0,0,1-.12-.11l-.25-4a.12.12,0,0,1,.11-.13l147.14-9.23a.11.11,0,0,1,.12.11l.25,4A.12.12,0,0,1,1431.43,1011.74Z"/><path class="cls-9" d="M1442.28,1046.69l-156.46,9.82a.16.16,0,0,1-.16-.14l-.24-3.91a.13.13,0,0,1,.13-.15l156.46-9.82a.15.15,0,0,1,.16.13l.24,3.92A.14.14,0,0,1,1442.28,1046.69Z"/><path class="cls-9" d="M1460.83,1062.39l-174,10.91a.13.13,0,0,1-.14-.12l-.25-3.94a.14.14,0,0,1,.12-.14l174-10.91a.12.12,0,0,1,.13.12l.25,3.94A.13.13,0,0,1,1460.83,1062.39Z"/><path class="cls-9" d="M1401.62,1095.71l-112,7a.12.12,0,0,1-.13-.12l-.25-3.95a.12.12,0,0,1,.11-.13l112-7a.12.12,0,0,1,.13.12l.25,3.95A.12.12,0,0,1,1401.62,1095.71Z"/><path class="cls-9" d="M1403.73,1129.3l-112,7a.14.14,0,0,1-.13-.12l-.24-4a.11.11,0,0,1,.11-.13l112-7a.12.12,0,0,1,.13.12l.25,4A.12.12,0,0,1,1403.73,1129.3Z"/><path class="cls-9" d="M1445.47,1109.82l-154.76,9.71a.12.12,0,0,1-.13-.11l-.25-4a.14.14,0,0,1,.12-.13l154.76-9.71a.13.13,0,0,1,.13.12l.25,4A.12.12,0,0,1,1445.47,1109.82Z"/><path class="cls-17" d="M1446.2,808.65l-136.93,7.63c-9,.5-16,7.71-15.5,16.09l1.15,20.69a3.66,3.66,0,0,0,4,3.3l162.06-9a3.67,3.67,0,0,0,3.59-3.72l-1.16-20.69C1462.93,814.53,1455.23,808.14,1446.2,808.65Z"/><path class="cls-20" d="M1693.6,974.84s-2.85-6.4-4.69-9.43-9.72-11.91-11.06-9.9-6.7,15.54-3.85,19.33-.19,10.38,14,14.37Z"/><path class="cls-26" d="M1851,934.43S1778.5,995,1750.23,989.35c-22.11-4.38-57.06-15.47-57.06-15.47s-9.23,8.78-6.62,19.3c0,0,44.53,41.9,76.26,42.17,49.59.42,73-24.58,73-24.58Z"/><path class="cls-28" d="M1978.19,1572.89s-2.1,34-8.67,34.45c-.87.06-33.32.06-33.32.06l-41.42-.24s.27-10,12.38-12.09,32.37-10.61,39.7-26.62C1954.58,1551.62,1978.19,1572.89,1978.19,1572.89Z"/><path class="cls-29" d="M1980.58,1575.25s-12.59,4.21-22.42,4.21a82.44,82.44,0,0,1-20.93-3s-2.37-22.93-15.42-73.44c-6.84-26.48-16.61-60.52-30.5-102.82-38.42-116.9-50.11-185.29-51.17-191.77-.06-.34-.08-.51-.08-.51l.12-.06L1958.3,1156s-14.6,161.12,4,223a260.49,260.49,0,0,1,6.76,29.63C1980.85,1475.79,1980.58,1575.25,1980.58,1575.25Z"/><path class="cls-22" d="M1921.81,1503c-6.84-26.48-16.61-60.52-30.5-102.82-38.42-116.9-50.11-185.29-51.17-191.77,0-.19,0-.38,0-.57L1958.3,1156s-14.6,161.12,4,223C1964.94,1387.63,1921.81,1503,1921.81,1503Z"/><path class="cls-30" d="M1885.94,1572.89s-2.11,34-8.68,34.45c-.87.06-33.32.06-33.32.06l-41.42-.24s.27-10,12.38-12.09,32.37-10.61,39.71-26.62C1862.32,1551.62,1885.94,1572.89,1885.94,1572.89Z"/><path class="cls-29" d="M1819,1159.82s-1.54,104.4,16.53,232.6S1847.44,1575,1847.44,1575s12.41,4,17.42,4.42c12.76,1,25.84-3,25.84-3s25.86-128.24,18.45-192.41,35.4-220.18,35.4-220.18Z"/><path class="cls-20" d="M1902.72,915.48l-23,15.12-21-5.94c-3.84-5.47-4.85-16-4.91-25.18a157.64,157.64,0,0,1,.83-16.77l31.1-13.72,11.61-5.12c0,.18-.9,9.53-1,10.9C1894.1,899,1902.72,915.48,1902.72,915.48Z"/><path class="cls-8" d="M1818.44,1188.84c28.7,27.71,137.31,23.05,144-7.48s-7.3-259.89-56.32-274.29c-10.17-3-64.56,14.59-64.56,14.59a345.21,345.21,0,0,0-14.13,50.74c-1.09,5.54-4.26,64.15-6.63,119-1.11,25.65-2,50.47-2.52,68.65C1817.84,1177.05,1817.82,1188.24,1818.44,1188.84Z"/><path class="cls-31" d="M1893.94,875.2c-6.31,10.67-28.46,20-40.19,24.28a157.64,157.64,0,0,1,.83-16.77l31.1-13.72C1892.56,868.9,1896.75,870.43,1893.94,875.2Z"/><path class="cls-20" d="M1842.84,880.82s50.12,15.64,59.38-15.73,22-50.47-9.65-61.78-41.39-1.18-47,8.54S1830,876,1842.84,880.82Z"/><path class="cls-32" d="M1847.51,808.83s3.2,36.49,10.75,34.91,15.85-5,14.75,6,7.34,29.86,18.22,29.81c23.35-.09,48.71-60,42.32-71.35C1915.11,775.46,1820.87,768.85,1847.51,808.83Z"/><path class="cls-26" d="M1854.89,907.86c.65-.27,37.31-16.72,41.6-15.31s9.63,14.52,9.63,14.52l-64.56,14.59S1846.64,911.33,1854.89,907.86Z"/><path class="cls-33" d="M1626.62,1085.49,1832.15,1279c4,3.79,9.11,5,11.29,2.69l6.94-7.37c2.18-2.32.67-7.32-3.36-11.11l-205.54-193.52c-4-3.79-9.11-5-11.29-2.68l-6.94,7.37C1621.07,1076.69,1622.59,1081.69,1626.62,1085.49Z"/><path class="cls-24" d="M1742,1194.08l90.19,84.92c4,3.79,9.11,5,11.29,2.69l6.94-7.37c2.18-2.32.67-7.32-3.36-11.11l-90.19-84.92Z"/><path class="cls-33" d="M1637.07,855a161.07,161.07,0,0,0-227.7-6.93c-.86.8-1.71,1.61-2.53,2.43a161.11,161.11,0,1,0,230.23,4.5Zm-15.65,218.46a148.39,148.39,0,1,1,6.39-209.75A148.24,148.24,0,0,1,1621.42,1073.48Z"/><g class="cls-2"><path class="cls-34" d="M1411.68,1067.08a148.38,148.38,0,1,0,6.39-209.74A147.74,147.74,0,0,0,1411.68,1067.08Z"/></g><path class="cls-26" d="M1818.28,1160c113.25-80.71,103.83-188.39,103.83-188.39-41.39,23.34-82.46,75-101.31,119.74C1819.69,1117,1818.76,1141.85,1818.28,1160Z"/><path class="cls-20" d="M1706.5,1123.28c-8-1.85-13.35-7.89-14.46-8.94,0,0-3.41.23.55,7.5.34.61,1.07,2.17,1.63,3.27a.7.7,0,0,1-.6,1c-4.6.35-9.24-1.47-18.12.38-1.22.26-1.58,3.19-1.53,4.44.08,2.12-.07,4.49,2.39,7.74,1.43,1.88,5.42,3.91,14.31,7.49,3.38,1.37,13.07.34,22.14-2.78l7.25-3.36-2.25-13.47-1.82.38C1713.1,1127.55,1709.52,1124,1706.5,1123.28Z"/><path class="cls-8" d="M1887,921.66S1988.73,941,1857,1088.4c-21.07,23.57-134.86,54.25-134.86,54.25s-11.55-9.82-5.73-17.77c0,0,78.35-56.9,95.6-65.94,7.75-4.07,30.09-90.82,42.74-111.71S1887,921.66,1887,921.66Z"/><path class="cls-20" d="M1690.84,976.63s-3.33-6.36-4-9.72-4.84-13.14-6.57-14.86c-.69-.69-3,.2-3.24,3.16-.11,1.3.52,3.64,1.64,6.44,1.82,4.56,1.52,10.73,2.15,12.79C1682.42,979.57,1690.84,976.63,1690.84,976.63Z"/></svg>