<svg id="Ñëîé_1" data-name="Ñëîé 1" xmlns="http://www.w3.org/2000/svg" viewBox="0 0 600 450"><defs><style>.cls-1{fill:#fdd762;}.cls-2{fill:#ff2c9c;}.cls-3,.cls-5{fill:#173d7a;}.cls-3{opacity:0.5;}.cls-4{fill:#6614cf;}.cls-6{fill:#ffc2b0;}.cls-7{fill:#8a2ae3;}.cls-8{fill:#983be9;}.cls-9{fill:#fff;}.cls-10{fill:#ea9c92;}.cls-11{fill:#b45ef4;}.cls-12{fill:#d8892b;}.cls-13{fill:#d29fff;}.cls-14{fill:#721bd5;}.cls-15{fill:#95d359;}.cls-16{fill:#c13d1a;}.cls-17{fill:#db5126;}.cls-18{fill:#ef602e;}.cls-19{fill:#d3008d;}.cls-20{fill:#e8a200;}.cls-21{fill:#f9bf30;}.cls-22{fill:#5793ce;}.cls-23{fill:#396caa;}.cls-24,.cls-26{fill:#d4ecff;}.cls-25{fill:#fafdff;}.cls-26{opacity:0.4;}.cls-27{fill:#274f89;}</style></defs><rect class="cls-1" x="72.75" y="259.2" width="2.56" height="7.43" transform="translate(-98.67 474.51) rotate(-125.05)"/><rect class="cls-1" x="74.92" y="254.55" width="2.56" height="7.43" transform="translate(-91.45 468.98) rotate(-125.05)"/><rect class="cls-1" x="77.09" y="249.91" width="2.56" height="7.43" transform="translate(-84.24 463.44) rotate(-125.05)"/><rect class="cls-1" x="79.26" y="245.26" width="2.56" height="7.43" transform="matrix(-0.57, -0.82, 0.82, -0.57, -77.02, 457.9)"/><path class="cls-2" d="M475,168.2l1.15-1.95a2.8,2.8,0,0,0,2,.21,3.9,3.9,0,0,0,2.13-2.22c2.05-4.26,5.85-4.59,7.58-4.16l-.55,2.2.27-1.1-.26,1.1c-.33-.07-3.27-.63-5,2.95a6,6,0,0,1-3.53,3.4A4.94,4.94,0,0,1,475,168.2Z"/><ellipse class="cls-3" cx="132.48" cy="277.25" rx="13.78" ry="7.95"/><path class="cls-4" d="M123.8,176.7s.37,7.62,1,12.74,12.91-3.93,12.91-3.93v-5.83Z"/><path class="cls-5" d="M130.37,271.49c.18.47,3.38,4.36,6.58,5.33a7.2,7.2,0,0,0,2.93.4,1,1,0,0,0,.79-1.29,12.16,12.16,0,0,0-6.13-6.75C129.12,266.49,130.37,271.49,130.37,271.49Z"/><path class="cls-5" d="M129.3,273a26.16,26.16,0,0,1,1.58,5.18c.22,1.44-.57,3.32-1.22,4.56a1.32,1.32,0,0,1-2.07.35,7.67,7.67,0,0,1-2.59-4.95c-.37-4,0-4.68,0-4.68Z"/><path class="cls-1" d="M121.61,224.85a75.19,75.19,0,0,0,0,10.58c.41,5.56,1.91,31.55,2.18,37.8,0,0-.13,1.89,3.53,1.48s3.37-2.52,3.37-2.52,5.14-.07,5.31-3.1,5.27-36.22,5.27-48.16Z"/><path class="cls-6" d="M143.17,198.88l2.52,3.91,8.67,10.46a2,2,0,0,1-1.38,1.23c-.84.2-8.13-6.76-11.28-9.81a2.41,2.41,0,0,1-.33-3.07Z"/><path class="cls-7" d="M138.25,182.85s4-.1,5.4,5.69,2.48,13,1.27,13.63c-3.64,1.81-5.94-.3-5.94-.3Z"/><path class="cls-8" d="M139.45,183.1a3.27,3.27,0,0,0-2.16-.12c-3.41,1-16.24,4.74-18.36,6.55-2.44,2.09,3.67,13.82,3.58,17.67s-.52,8.38-.86,12.56-.8,6.48,2.62,8.26a13.45,13.45,0,0,0,13.63-1.48c4.37-3.33,3.58-5.61,3.4-8s-1.67-12.88-1.55-15.85a11.26,11.26,0,0,0,2.69-3.08c1.14-2-.88-5.52-1.72-7.85s.48-5,.22-6.88A2.16,2.16,0,0,0,139.45,183.1Z"/><path class="cls-9" d="M135.35,187.1c.27,2.11-1.67,4.1-4.33,4.44s-5-1.09-5.31-3.21,1.67-4.1,4.33-4.44S135.08,185,135.35,187.1Z"/><path class="cls-6" d="M134,187.27c.2,1.52-1.19,2.94-3.09,3.18s-3.6-.78-3.8-2.29,1.2-2.93,3.1-3.18S133.78,185.76,134,187.27Z"/><path class="cls-6" d="M132.08,182.32s-2.31-1.91-2.77-.94a30.08,30.08,0,0,0-.83,5.1l4.6,1.24-.7-4.2S133.3,182.74,132.08,182.32Z"/><path class="cls-6" d="M139.27,177.78a6.87,6.87,0,1,1-6.45-7.26A6.86,6.86,0,0,1,139.27,177.78Z"/><path class="cls-10" d="M129,182.58c0,.21-.08.44-.12.68.47,2.39,4,3.44,4,3.44l-.53-3.18s.44-.37.31-.73C131.28,182.34,129.5,182,129,182.58Z"/><path class="cls-6" d="M139.27,177.78a6.87,6.87,0,1,1-6.45-7.26A6.86,6.86,0,0,1,139.27,177.78Z"/><polygon class="cls-6" points="115.5 206.44 116.27 224.82 118.95 225.09 120.7 208.55 115.5 206.44"/><path class="cls-7" d="M124.33,204.91c-.89-3.93-2.65-12.6-2.65-12.6l-.75,8.62c.87,2.56,1.61,4.91,1.58,6.27-.05,2.26-.22,4.75-.43,7.27h0S125.21,208.83,124.33,204.91Z"/><path class="cls-11" d="M119.45,189.16s-2.15.82-3.37,7.41-2.12,13.21,0,14.06,4,1.5,4.62-.27,1-10.27,1.11-13.33S122.05,189.76,119.45,189.16Z"/><path class="cls-6" d="M153.71,212.49a5.82,5.82,0,0,1,2,1.34,12.84,12.84,0,0,1,1.37,1.84c.67,1,1.23,3.16.82,3.42s-2.74-3.61-3.11-2.71,0,1.74-.48,1.76-2.16-3.91-3.48-5.12S153.71,212.49,153.71,212.49Z"/><path class="cls-12" d="M130.69,272.19a10.84,10.84,0,0,0,1.47-.15h0l1-40.4Z"/><path class="cls-8" d="M126.8,250.37l-1.43-1.87-15-8.7a2.1,2.1,0,0,1-.87-1.67V225.82l-.86-1.13.81-.47h0a.56.56,0,0,1,.59,0l17,9.86a2.09,2.09,0,0,1,.88,1.67l0,13.4a.75.75,0,0,1-.32.72h0Z"/><path class="cls-13" d="M116.4,243.31l-1.06-.62-5.87-10.18v-6.69l-.86-1.13.81-.47h0a.56.56,0,0,1,.59,0l17,9.86a1.79,1.79,0,0,1,.65.75Z"/><path class="cls-13" d="M109,225.19l-.38-.5.81-.47h0a.56.56,0,0,1,.59,0l.3.17Z"/><path class="cls-8" d="M127.21,234.23a2.19,2.19,0,0,1,.71,1.44l-1.66,1-.8-1.39Z"/><path class="cls-11" d="M126.24,234.59l-17-9.86c-.48-.28-.88,0-.88.66v13.4a2.1,2.1,0,0,0,.87,1.67l17,9.86c.48.28.87,0,.87-.66v-13.4A2.1,2.1,0,0,0,126.24,234.59Z"/><path class="cls-6" d="M116.29,224.66a42.52,42.52,0,0,0-.61,5.67c.11,1.37.85,3.64,1.4,3.59s0-5.53,1-5,1.09,1.48,1.53,1.15-.77-5-.45-7S116.29,224.66,116.29,224.66Z"/><path class="cls-10" d="M135.05,178c3.45,1.23,4.12.48,4.15.44,0-.21.06-.42.07-.63a6.62,6.62,0,0,0-.23-2.19l-8.94-1.21A9.76,9.76,0,0,0,135.05,178Z"/><path class="cls-4" d="M139.52,170.94a10.16,10.16,0,0,0-9-3.33c-3.28.51-6,2.75-6.66,7.85a11.72,11.72,0,0,0,3.18,9.33,3.24,3.24,0,0,0,.37-.19c1.31-.86,1.45-1.34,1.45-1.34l.29-2.61a.73.73,0,0,0-.65-.72,1.27,1.27,0,0,1-1-.58,1.53,1.53,0,0,1,1.1-2.58,1.15,1.15,0,0,0,1.2-.86.62.62,0,0,1,.81-.42c1.71.62,5.94,2,8.66,1.19C142.8,175.69,140.33,171.63,139.52,170.94Z"/><path class="cls-9" d="M135.6,181.08l2.11-.58a5.09,5.09,0,0,1-2.47,2c-1.47.4-1.69-.84-1.69-.84Z"/><polygon class="cls-13" points="119.86 229.96 118.07 228.93 118.74 230.03 119.65 230.36 119.86 229.96"/><polygon class="cls-3" points="480.54 287.27 466.66 279.25 452.77 287.27 466.66 295.28 480.54 287.27"/><polygon class="cls-3" points="466.66 279.25 452.77 271.24 438.89 279.25 452.77 287.27 466.66 279.25"/><polygon class="cls-14" points="468.75 272.44 468.75 248.44 480.54 241.63 480.54 265.63 468.75 272.44"/><polygon class="cls-11" points="468.75 248.44 456.95 241.63 456.95 265.63 468.75 272.44 468.75 248.44"/><polygon class="cls-7" points="480.54 241.63 468.75 234.82 456.95 241.63 468.75 248.44 480.54 241.63"/><polygon class="cls-15" points="480.54 274.71 468.75 267.9 468.75 272.44 480.54 279.25 480.54 274.71"/><polygon class="cls-16" points="456.95 279.25 456.95 242.94 468.75 236.13 468.75 272.44 456.95 279.25"/><polygon class="cls-17" points="456.95 242.94 445.16 236.13 445.16 272.44 456.95 279.25 456.95 242.94"/><polygon class="cls-18" points="468.75 236.13 456.95 229.32 445.16 236.13 456.95 242.94 468.75 236.13"/><polygon class="cls-19" points="456.95 279.25 456.95 242.94 468.75 236.13 468.75 272.44 456.95 279.25"/><polygon class="cls-19" points="456.95 242.94 445.16 236.13 445.16 272.44 456.95 279.25 456.95 242.94"/><polygon class="cls-2" points="468.75 236.13 456.95 229.32 445.16 236.13 456.95 242.94 468.75 236.13"/><polygon class="cls-20" points="468.75 286.06 468.75 265.63 480.54 258.83 480.54 279.25 468.75 286.06"/><polygon class="cls-21" points="468.75 265.63 456.95 258.83 456.95 279.25 468.75 286.06 468.75 265.63"/><polygon class="cls-1" points="480.54 258.83 468.75 252.02 456.95 258.83 468.75 265.63 480.54 258.83"/><path class="cls-22" d="M359.58,154.83a1,1,0,0,1-.95-1V114.63a1,1,0,0,1,1.91,0v39.25A1,1,0,0,1,359.58,154.83Z"/><rect class="cls-22" x="356.18" y="112.16" width="6.82" height="14.72"/><path class="cls-22" d="M362,128.27a5.34,5.34,0,0,1-4.83,0c-1.33-.77-1.33-2,0-2.79a5.4,5.4,0,0,1,4.83,0C363.33,126.25,363.33,127.5,362,128.27Z"/><rect class="cls-22" x="354.06" y="91.65" width="11.05" height="23.08"/><path class="cls-23" d="M356.18,114.58v5a8.75,8.75,0,0,0,6.81,0v-5A8.84,8.84,0,0,0,356.18,114.58Z"/><path class="cls-22" d="M363.49,117a8.66,8.66,0,0,1-7.81,0c-2.16-1.25-2.16-3.27,0-4.51a8.6,8.6,0,0,1,7.81,0C365.65,113.72,365.65,115.74,363.49,117Z"/><path class="cls-22" d="M397.86,176.37a1,1,0,0,1-.95-1V136.17a1,1,0,1,1,1.91,0v39.25A1,1,0,0,1,397.86,176.37Z"/><rect class="cls-22" x="394.45" y="133.7" width="6.82" height="14.71"/><path class="cls-22" d="M400.27,149.81a5.38,5.38,0,0,1-4.82,0c-1.33-.77-1.33-2,0-2.79a5.32,5.32,0,0,1,4.82,0C401.6,147.79,401.6,149,400.27,149.81Z"/><rect class="cls-22" x="392.34" y="113.19" width="11.05" height="23.08"/><path class="cls-23" d="M394.45,136.12v5a8.86,8.86,0,0,0,6.82,0v-5A8.77,8.77,0,0,0,394.45,136.12Z"/><path class="cls-22" d="M401.77,138.52a8.62,8.62,0,0,1-7.82,0c-2.15-1.24-2.15-3.26,0-4.51a8.68,8.68,0,0,1,7.82,0C403.93,135.26,403.93,137.28,401.77,138.52Z"/><polygon class="cls-22" points="435.07 151.48 449.88 142.76 435.77 125.15 432.06 131.21 435.07 151.48"/><path class="cls-22" d="M327.49,54.83l23.65-13.6s-.89,13.57-.89,13.6S336.66,59,336.66,59Z"/><path class="cls-22" d="M439.19,107.2a15.09,15.09,0,0,0-5.12-1.9c-2.38-12.53-11.1-25.83-21.5-31.83a21,21,0,0,0-8.79-3c-1.42-15.19-12-32.44-24.81-39.85-6.69-3.87-12.77-4.32-17.26-1.95v0l-.22.13-.34.19-14,8.24,4.64,3.66c-4.16,1.82-6.79,6.48-6.79,13.38C345.06,67,354,82.44,365,88.8l74.19,53c8.27,4.77,15,.9,15-8.65S447.46,112,439.19,107.2Z"/><path class="cls-22" d="M345.75,48.67l32-18.7c-6.21-3.24-11.83-3.51-16-1.28v0l-.22.13-.34.19-14,8.24,4.64,3.66C348.94,42.16,346.78,44.83,345.75,48.67Z"/><path class="cls-22" d="M404.85,103.67,428.2,90c-4-6.93-9.52-13-15.63-16.5a24.7,24.7,0,0,0-2.39-1.23l-29.7,17.37Z"/><path class="cls-24" d="M353.79,38.76l10.41,6,19.06-11.23a39.91,39.91,0,0,0-4.29-2.9,26.7,26.7,0,0,0-6.66-2.8Z"/><path class="cls-24" d="M425.62,85.94,407,96.92l6.48,7.23,16.92-10A54.78,54.78,0,0,0,425.62,85.94Z"/><path class="cls-24" d="M424.55,115.82a14.85,14.85,0,0,0-5.12-1.89c-2.38-12.53-11.1-25.84-21.5-31.84a21.14,21.14,0,0,0-8.79-3c-1.42-15.18-12-32.44-24.8-39.85-13.79-8-25-1.5-25,14.42,0,.54,0,1.08,0,1.63-10.09-4.67-18,.6-18,12.54,0,12.71,8.93,28.18,19.94,34.53l83.17,48c8.27,4.77,15,.9,15-8.65S432.82,120.6,424.55,115.82Z"/><path class="cls-9" d="M339.41,55.31c0-.55,0-1.09,0-1.63v-.07C333.8,51.45,329,52.39,326,55.87,329.27,53.18,334,52.81,339.41,55.31Z"/><path class="cls-9" d="M425.76,114.64a14.76,14.76,0,0,0-5.11-1.9c-2.38-12.53-11.1-25.83-21.5-31.84a21,21,0,0,0-8.8-3c-1.42-15.19-12-32.45-24.8-39.85-8.59-5-16.16-4.33-20.66.71,4.58-3.91,11.59-4.06,19.45.47,12.82,7.41,23.38,24.67,24.8,39.85a21.14,21.14,0,0,1,8.79,3c10.4,6,19.12,19.31,21.5,31.84a14.85,14.85,0,0,1,5.12,1.89c8.27,4.78,15,16.39,15,25.93a12.31,12.31,0,0,1-2.39,8c2.24-1.73,3.61-4.86,3.61-9.15C440.74,131,434,119.41,425.76,114.64Z"/><path class="cls-23" d="M337.65,59.1,343.9,62l-.32-6.88q0-.72,0-1.44c0-6.14,1.85-10.6,5.22-12.54s8.15-1.33,13.48,1.74c11.44,6.61,21.42,22.7,22.72,36.62L385.3,83l3.52.27a16.86,16.86,0,0,1,7,2.43c9.09,5.25,17.29,17.44,19.49,29l.55,2.89,2.9.46a10.73,10.73,0,0,1,3.68,1.38c7,4,12.88,14.25,12.88,22.31,0,3-.84,5.24-2.3,6.08s-3.79.46-6.4-1.05l-83.17-48C333.8,93.18,325.62,79,325.62,67.85c0-4.38,1.3-7.72,3.55-9.16a6,6,0,0,1,3.32-.89A12.6,12.6,0,0,1,337.65,59.1Z"/><polygon class="cls-22" points="379.16 111.23 381.35 110.13 379.19 108.49 379.16 111.23"/><polygon class="cls-22" points="372.57 81.59 374.7 80.51 374.74 81.63 372.57 81.59"/><polygon class="cls-22" points="385.41 104.3 387.64 103.18 383.36 99.11 385.41 104.3"/><path class="cls-22" d="M380.71,110.06l-10.39-6.12a2.21,2.21,0,0,1-.95-1.75l0-12,12.3,7.24,0,12C381.66,110.09,381.23,110.37,380.71,110.06Z"/><path class="cls-22" d="M374.67,80.53l-11.21,7.22c-.48.3-.1,1.44.63,1.87l11.45,6.75L387,103.12c.72.42,1.11-.26.64-1.13L376.5,81.6C376,80.72,375.16,80.22,374.67,80.53Z"/><path class="cls-24" d="M378.48,111.18l-10.39-6.12a2.23,2.23,0,0,1-.95-1.75l0-12,12.29,7.24,0,12C379.44,111.21,379,111.49,378.48,111.18Z"/><path class="cls-24" d="M372.45,81.65l-11.22,7.22c-.48.3-.09,1.45.63,1.87l11.46,6.75,11.45,6.75c.73.42,1.12-.26.64-1.13L374.27,82.73C373.79,81.85,372.93,81.34,372.45,81.65Z"/><path class="cls-24" d="M358.54,124.32c0,.68-.48,1-1.06.62a2.33,2.33,0,0,1-1.06-1.84c0-.68.47-.95,1.06-.61A2.36,2.36,0,0,1,358.54,124.32Z"/><path class="cls-24" d="M396.9,146.18c0,.67-.47.95-1.06.61a2.36,2.36,0,0,1-1.06-1.84c0-.68.48-.95,1.06-.61A2.33,2.33,0,0,1,396.9,146.18Z"/><path class="cls-3" d="M328.35,294.57l-48.6-27.71c-1.78-1-1.56-2.82.5-4l28-16.14a7.69,7.69,0,0,1,6.94-.29l48.6,27.71c1.77,1,1.55,2.82-.5,4l-28,16.14A7.67,7.67,0,0,1,328.35,294.57Z"/><path class="cls-23" d="M368.08,264.8h0V151.34L323,139.54l-8.31-4.8c-1.9-1.1-5.23-1-7.43.31l-7.76,4.47H275.41L282.54,249a2.13,2.13,0,0,0,1.28,2l45,34a8.28,8.28,0,0,0,7.44-.31l30-17.32C367.54,266.64,368.15,265.69,368.08,264.8Z"/><path class="cls-24" d="M311.21,134a8.52,8.52,0,0,0-4,1.05l-7.76,4.47H275.41V253.28a2.18,2.18,0,0,0,1.28,2L328.83,285a6.74,6.74,0,0,0,3.45.74l.54-114.48Z"/><path class="cls-22" d="M329.31,285.23a8.47,8.47,0,0,0,5.95-.06V169.91h-5.95Z"/><path class="cls-24" d="M328.83,171.27l-52.14-29.73c-1.9-1.1-1.67-3,.54-4.29l30-17.32c2.2-1.27,5.53-1.41,7.43-.31l52.14,29.73c1.91,1.1,1.67,3-.53,4.29l-30,17.32A8.28,8.28,0,0,1,328.83,171.27Z"/><path class="cls-25" d="M366.27,151.53l-30,17.32a8.28,8.28,0,0,1-7.44.31l-52.14-29.73a2.82,2.82,0,0,1-.95-.84,2,2,0,0,0,.95,2.95l52.14,29.73a8.28,8.28,0,0,0,7.44-.31l30-17.32c1.71-1,2.23-2.36,1.48-3.45A4,4,0,0,1,366.27,151.53Z"/><path class="cls-5" d="M330.31,159.22,295.59,139.1c-.89-.51-.78-1.41.25-2l14-8.1a3.87,3.87,0,0,1,3.48-.15L348.07,149c.9.52.78,1.42-.25,2l-14,8.11A3.87,3.87,0,0,1,330.31,159.22Z"/><path class="cls-24" d="M311.57,140l-2-1.16c-.12-.07-.1-.19,0-.27l1.94-1.13a.54.54,0,0,1,.48,0l2,1.17c.13.07.11.19,0,.27L312.05,140A.49.49,0,0,1,311.57,140Z"/><path class="cls-24" d="M318.29,143.87l-2-1.16c-.12-.07-.1-.2,0-.28l1.94-1.12a.54.54,0,0,1,.48,0l2,1.16c.13.07.11.2,0,.28l-1.94,1.12A.54.54,0,0,1,318.29,143.87Z"/><path class="cls-24" d="M325,147.73l-2-1.16c-.12-.07-.1-.19,0-.28l1.94-1.12a.54.54,0,0,1,.48,0l2,1.16c.13.07.11.2,0,.28l-1.94,1.12A.51.51,0,0,1,325,147.73Z"/><path class="cls-24" d="M331.73,151.6l-2-1.16c-.12-.08-.1-.2,0-.28l1.94-1.12a.49.49,0,0,1,.48,0l2,1.16c.13.07.11.19,0,.28l-1.94,1.12A.54.54,0,0,1,331.73,151.6Z"/><path class="cls-22" d="M295.59,139.1l0,0,.21-.14,14-8.1a3.87,3.87,0,0,1,3.48-.15L348,150.83c.83-.59.87-1.39,0-1.87l-34.71-20.12a3.87,3.87,0,0,0-3.48.15l-14,8.1C294.81,137.69,294.7,138.59,295.59,139.1Z"/><path class="cls-5" d="M342.13,193.75l19.73-11.3a4.81,4.81,0,0,0,2-3.84v-7.06c0-1.48-.9-2.16-2-1.52l-19.73,11.3a4.81,4.81,0,0,0-2,3.84v7.06C340.12,193.71,341,194.39,342.13,193.75Z"/><path class="cls-9" d="M362.84,169.82a2,2,0,0,1,.51,1.47v7.05a4.82,4.82,0,0,1-2,3.85l-19.73,11.3a1.49,1.49,0,0,1-1,.21,1.2,1.2,0,0,0,1.51.05l19.73-11.3a4.81,4.81,0,0,0,2-3.84v-7.06C363.87,170.55,363.45,169.92,362.84,169.82Z"/><path class="cls-23" d="M348.06,186.08l1.81-1a1,1,0,0,0,.44-.84v-1.93c0-.33-.19-.47-.44-.33l-1.81,1a1.07,1.07,0,0,0-.44.84v1.93C347.62,186.08,347.82,186.22,348.06,186.08Z"/><path class="cls-9" d="M354.12,182.59l1.81-1.05a1,1,0,0,0,.44-.83v-1.94c0-.32-.2-.47-.44-.33l-1.81,1.05a1,1,0,0,0-.44.83v1.94C353.68,182.58,353.87,182.73,354.12,182.59Z"/><path class="cls-5" d="M342.13,244.75l19.73-11.3a4.81,4.81,0,0,0,2-3.84v-7.06c0-1.48-.9-2.16-2-1.52l-19.73,11.3a4.81,4.81,0,0,0-2,3.84v7.06C340.12,244.71,341,245.39,342.13,244.75Z"/><path class="cls-9" d="M362.84,220.82a2,2,0,0,1,.51,1.47v7.06a4.82,4.82,0,0,1-2,3.84l-19.73,11.3a1.49,1.49,0,0,1-1,.21,1.2,1.2,0,0,0,1.51.05l19.73-11.3a4.81,4.81,0,0,0,2-3.84v-7.06C363.87,221.55,363.45,220.92,362.84,220.82Z"/><path class="cls-23" d="M348.06,237.09l1.81-1.05a1,1,0,0,0,.44-.84v-1.93c0-.32-.19-.47-.44-.33l-1.81,1a1.07,1.07,0,0,0-.44.84v1.93C347.62,237.08,347.82,237.23,348.06,237.09Z"/><path class="cls-9" d="M354.12,233.59l1.81-1a1.07,1.07,0,0,0,.44-.84v-1.94c0-.32-.2-.47-.44-.33l-1.81,1.05a1,1,0,0,0-.44.84v1.93C353.68,233.58,353.87,233.73,354.12,233.59Z"/><path class="cls-5" d="M342.13,270.25,361.86,259a4.81,4.81,0,0,0,2-3.84v-7.06c0-1.48-.9-2.16-2-1.52l-19.73,11.3a4.82,4.82,0,0,0-2,3.85v7.05C340.12,270.21,341,270.9,342.13,270.25Z"/><path class="cls-9" d="M362.84,246.32a2,2,0,0,1,.51,1.47v7.06a4.82,4.82,0,0,1-2,3.84L341.6,270a1.43,1.43,0,0,1-1,.21,1.2,1.2,0,0,0,1.51.05L361.86,259a4.81,4.81,0,0,0,2-3.84v-7.06C363.87,247.05,363.45,246.42,362.84,246.32Z"/><path class="cls-23" d="M348.06,262.59l1.81-1a1,1,0,0,0,.44-.84v-1.93c0-.32-.19-.47-.44-.33l-1.81,1a1.07,1.07,0,0,0-.44.84v1.94C347.62,262.58,347.82,262.73,348.06,262.59Z"/><path class="cls-9" d="M354.12,259.09l1.81-1a1.07,1.07,0,0,0,.44-.84v-1.93c0-.33-.2-.48-.44-.34L354.12,256a1,1,0,0,0-.44.84v1.93C353.68,259.08,353.87,259.23,354.12,259.09Z"/><path class="cls-5" d="M342.13,219.25,361.86,208a4.81,4.81,0,0,0,2-3.84v-7.06c0-1.48-.9-2.16-2-1.52l-19.73,11.3a4.81,4.81,0,0,0-2,3.84v7.06C340.12,219.21,341,219.89,342.13,219.25Z"/><path class="cls-9" d="M362.84,195.32a2,2,0,0,1,.51,1.47v7.06a4.82,4.82,0,0,1-2,3.84L341.6,219a1.49,1.49,0,0,1-1,.21,1.2,1.2,0,0,0,1.51.05L361.86,208a4.81,4.81,0,0,0,2-3.84v-7.06C363.87,196.05,363.45,195.42,362.84,195.32Z"/><path class="cls-23" d="M348.06,211.59l1.81-1.05a1,1,0,0,0,.44-.84v-1.93c0-.32-.19-.47-.44-.33l-1.81,1a1.07,1.07,0,0,0-.44.84v1.93C347.62,211.58,347.82,211.72,348.06,211.59Z"/><path class="cls-9" d="M354.12,208.09l1.81-1.05a1,1,0,0,0,.44-.83v-1.94c0-.32-.2-.47-.44-.33L354.12,205a1,1,0,0,0-.44.83v1.94C353.68,208.08,353.87,208.23,354.12,208.09Z"/><path class="cls-22" d="M325,186.53,279.5,160.24a4.43,4.43,0,0,1-1.85-3.53V148c0-1.36.83-2,1.85-1.4L325,172.92a4.43,4.43,0,0,1,1.85,3.53v8.68C326.88,186.49,326.05,187.11,325,186.53Z"/><path class="cls-26" d="M323.73,183.48,280.81,158.7a2.24,2.24,0,0,1-.94-1.79v-6.52c0-.69.42-1,.94-.71l42.92,24.78a2.26,2.26,0,0,1,.93,1.79v6.52C324.66,183.46,324.24,183.78,323.73,183.48Z"/><path class="cls-24" d="M289.75,160.57l-6.4-3.7a2.16,2.16,0,0,1-.91-1.74h0c0-.67.4-1,.91-.69l6.4,3.7a2.19,2.19,0,0,1,.91,1.74h0C290.66,160.55,290.25,160.86,289.75,160.57Z"/><path class="cls-5" d="M295.21,162.51c0,.67-.47.94-1,.6a2.32,2.32,0,0,1-1.05-1.82c0-.67.47-.94,1.05-.6A2.32,2.32,0,0,1,295.21,162.51Z"/><path class="cls-5" d="M298.91,164.64c0,.67-.47.94-1.05.61a2.32,2.32,0,0,1-1.05-1.82c0-.67.47-.94,1.05-.6A2.3,2.3,0,0,1,298.91,164.64Z"/><path class="cls-24" d="M302.62,166.78c0,.67-.47.94-1.05.61a2.33,2.33,0,0,1-1.05-1.82c0-.67.47-.94,1.05-.61A2.33,2.33,0,0,1,302.62,166.78Z"/><path class="cls-5" d="M306.32,168.92c0,.67-.47.94-1.05.61a2.33,2.33,0,0,1-1-1.82c0-.67.47-.94,1-.61A2.33,2.33,0,0,1,306.32,168.92Z"/><path class="cls-5" d="M321.92,179.85l-2.16-1.25a1.38,1.38,0,0,1-.58-1.11V175.2c0-.43.26-.62.58-.44l2.16,1.25a1.38,1.38,0,0,1,.58,1.11v2.29C322.5,179.84,322.24,180,321.92,179.85Z"/><path class="cls-22" d="M325,201.84,279.5,175.55a4.43,4.43,0,0,1-1.85-3.53v-8.68c0-1.36.83-2,1.85-1.4L325,188.23a4.43,4.43,0,0,1,1.85,3.53v8.68C326.88,201.8,326.05,202.43,325,201.84Z"/><path class="cls-26" d="M323.73,198.79,280.81,174a2.24,2.24,0,0,1-.94-1.79V165.7c0-.69.42-1,.94-.71l42.92,24.78a2.26,2.26,0,0,1,.93,1.79v6.52C324.66,198.77,324.24,199.09,323.73,198.79Z"/><path class="cls-24" d="M289.75,175.88l-6.4-3.7a2.16,2.16,0,0,1-.91-1.74h0c0-.67.4-1,.91-.68l6.4,3.69a2.19,2.19,0,0,1,.91,1.74h0C290.66,175.86,290.25,176.17,289.75,175.88Z"/><path class="cls-9" d="M295.21,177.82c0,.67-.47.94-1,.6a2.32,2.32,0,0,1-1.05-1.82c0-.67.47-.94,1.05-.6A2.32,2.32,0,0,1,295.21,177.82Z"/><path class="cls-5" d="M298.91,180c0,.67-.47,1-1.05.61a2.32,2.32,0,0,1-1.05-1.82c0-.67.47-.94,1.05-.6A2.31,2.31,0,0,1,298.91,180Z"/><ellipse class="cls-24" cx="301.57" cy="181.49" rx="0.86" ry="1.48" transform="translate(-50.34 175.1) rotate(-30)"/><ellipse class="cls-5" cx="305.27" cy="183.63" rx="0.86" ry="1.48" transform="translate(-50.91 177.24) rotate(-30)"/><path class="cls-5" d="M321.92,195.16l-2.16-1.25a1.38,1.38,0,0,1-.58-1.11v-2.29c0-.42.26-.62.58-.44l2.16,1.25a1.4,1.4,0,0,1,.58,1.11v2.29C322.5,195.15,322.24,195.34,321.92,195.16Z"/><path class="cls-22" d="M325,217.15,279.5,190.86a4.43,4.43,0,0,1-1.85-3.53v-8.68c0-1.36.83-2,1.85-1.39L325,203.54a4.43,4.43,0,0,1,1.85,3.53v8.68C326.88,217.11,326.05,217.74,325,217.15Z"/><path class="cls-26" d="M323.73,214.1l-42.92-24.78a2.22,2.22,0,0,1-.94-1.78V181c0-.69.42-1,.94-.71l42.92,24.78a2.26,2.26,0,0,1,.93,1.79v6.53C324.66,214.09,324.24,214.4,323.73,214.1Z"/><path class="cls-24" d="M289.75,191.19l-6.4-3.7a2.16,2.16,0,0,1-.91-1.74h0c0-.67.4-1,.91-.68l6.4,3.69a2.19,2.19,0,0,1,.91,1.74h0C290.66,191.17,290.25,191.48,289.75,191.19Z"/><path class="cls-9" d="M295.21,193.13c0,.67-.47.94-1,.6a2.31,2.31,0,0,1-1.05-1.81c0-.67.47-.95,1.05-.61A2.32,2.32,0,0,1,295.21,193.13Z"/><path class="cls-5" d="M298.91,195.27c0,.67-.47.94-1.05.6a2.32,2.32,0,0,1-1.05-1.82c0-.67.47-.94,1.05-.6A2.32,2.32,0,0,1,298.91,195.27Z"/><path class="cls-24" d="M302.62,197.4c0,.67-.47.94-1.05.61a2.32,2.32,0,0,1-1.05-1.82c0-.67.47-.94,1.05-.6A2.3,2.3,0,0,1,302.62,197.4Z"/><path class="cls-5" d="M306.32,199.54c0,.67-.47.94-1.05.61a2.33,2.33,0,0,1-1-1.82c0-.67.47-.94,1-.61A2.33,2.33,0,0,1,306.32,199.54Z"/><path class="cls-5" d="M321.92,210.47l-2.16-1.25a1.38,1.38,0,0,1-.58-1.11v-2.28c0-.43.26-.63.58-.45l2.16,1.25a1.41,1.41,0,0,1,.58,1.11V210C322.5,210.46,322.24,210.65,321.92,210.47Z"/><path class="cls-22" d="M325,232.46,279.5,206.17a4.43,4.43,0,0,1-1.85-3.53V194c0-1.36.83-2,1.85-1.39L325,218.86a4.4,4.4,0,0,1,1.85,3.52v8.68C326.88,232.42,326.05,233.05,325,232.46Z"/><path class="cls-26" d="M323.73,229.41l-42.92-24.78a2.21,2.21,0,0,1-.94-1.78v-6.53c0-.69.42-1,.94-.71l42.92,24.78a2.26,2.26,0,0,1,.93,1.79v6.53C324.66,229.4,324.24,229.71,323.73,229.41Z"/><path class="cls-24" d="M289.75,206.5l-6.4-3.7a2.16,2.16,0,0,1-.91-1.74h0c0-.67.4-1,.91-.68l6.4,3.69a2.19,2.19,0,0,1,.91,1.74h0C290.66,206.48,290.25,206.79,289.75,206.5Z"/><path class="cls-5" d="M295.21,208.44c0,.67-.47.94-1,.6a2.3,2.3,0,0,1-1.05-1.81c0-.67.47-.94,1.05-.61A2.32,2.32,0,0,1,295.21,208.44Z"/><path class="cls-5" d="M298.91,210.58c0,.67-.47.94-1.05.6a2.32,2.32,0,0,1-1.05-1.82c0-.67.47-.94,1.05-.6A2.32,2.32,0,0,1,298.91,210.58Z"/><path class="cls-24" d="M302.62,212.71c0,.67-.47.95-1.05.61a2.32,2.32,0,0,1-1.05-1.82c0-.67.47-.94,1.05-.6A2.31,2.31,0,0,1,302.62,212.71Z"/><ellipse class="cls-5" cx="305.27" cy="214.25" rx="0.86" ry="1.48" transform="translate(-66.23 181.34) rotate(-30)"/><path class="cls-24" d="M321.92,225.78l-2.16-1.25a1.38,1.38,0,0,1-.58-1.11v-2.28c0-.43.26-.63.58-.44l2.16,1.24a1.42,1.42,0,0,1,.58,1.12v2.28C322.5,225.77,322.24,226,321.92,225.78Z"/><path class="cls-22" d="M325,247.77,279.5,221.48a4.43,4.43,0,0,1-1.85-3.53v-8.68c0-1.36.83-2,1.85-1.39L325,234.17a4.4,4.4,0,0,1,1.85,3.52v8.68C326.88,247.73,326.05,248.36,325,247.77Z"/><path class="cls-26" d="M323.73,244.72,280.81,220a2.24,2.24,0,0,1-.94-1.79v-6.53c0-.69.42-1,.94-.71l42.92,24.78a2.26,2.26,0,0,1,.93,1.79V244C324.66,244.71,324.24,245,323.73,244.72Z"/><path class="cls-24" d="M289.75,221.81l-6.4-3.7a2.16,2.16,0,0,1-.91-1.74h0c0-.66.4-1,.91-.68l6.4,3.7a2.17,2.17,0,0,1,.91,1.73h0C290.66,221.79,290.25,222.1,289.75,221.81Z"/><path class="cls-5" d="M295.21,223.75c0,.67-.47.94-1,.6a2.3,2.3,0,0,1-1.05-1.81c0-.67.47-.94,1.05-.61A2.33,2.33,0,0,1,295.21,223.75Z"/><path class="cls-9" d="M298.91,225.89c0,.67-.47.94-1.05.6a2.32,2.32,0,0,1-1.05-1.82c0-.66.47-.94,1.05-.6A2.32,2.32,0,0,1,298.91,225.89Z"/><path class="cls-24" d="M302.62,228c0,.66-.47.94-1.05.6a2.32,2.32,0,0,1-1.05-1.82c0-.67.47-.94,1.05-.6A2.32,2.32,0,0,1,302.62,228Z"/><path class="cls-9" d="M306.32,230.16c0,.67-.47.94-1.05.61a2.33,2.33,0,0,1-1-1.82c0-.67.47-.94,1-.6A2.3,2.3,0,0,1,306.32,230.16Z"/><path class="cls-24" d="M321.92,241.09l-2.16-1.25a1.38,1.38,0,0,1-.58-1.11v-2.28c0-.43.26-.63.58-.44l2.16,1.24a1.42,1.42,0,0,1,.58,1.12v2.28C322.5,241.08,322.24,241.28,321.92,241.09Z"/><path class="cls-22" d="M325,263.08,279.5,236.79a4.43,4.43,0,0,1-1.85-3.52v-8.69c0-1.36.83-2,1.85-1.39L325,249.48a4.41,4.41,0,0,1,1.85,3.52v8.69C326.88,263,326.05,263.67,325,263.08Z"/><path class="cls-26" d="M323.73,260l-42.92-24.78a2.24,2.24,0,0,1-.94-1.79v-6.53c0-.69.42-1,.94-.71L323.73,251a2.26,2.26,0,0,1,.93,1.79v6.53C324.66,260,324.24,260.33,323.73,260Z"/><path class="cls-24" d="M289.75,237.12l-6.4-3.7a2.16,2.16,0,0,1-.91-1.73h0c0-.67.4-1,.91-.69l6.4,3.7a2.17,2.17,0,0,1,.91,1.73h0C290.66,237.1,290.25,237.41,289.75,237.12Z"/><path class="cls-5" d="M295.21,239.06c0,.67-.47.94-1,.61a2.33,2.33,0,0,1-1.05-1.82c0-.67.47-.94,1.05-.61A2.33,2.33,0,0,1,295.21,239.06Z"/><path class="cls-5" d="M298.91,241.2c0,.67-.47.94-1.05.6a2.3,2.3,0,0,1-1.05-1.81c0-.67.47-1,1.05-.61A2.32,2.32,0,0,1,298.91,241.2Z"/><path class="cls-24" d="M302.62,243.34c0,.67-.47.94-1.05.6a2.32,2.32,0,0,1-1.05-1.82c0-.67.47-.94,1.05-.6A2.32,2.32,0,0,1,302.62,243.34Z"/><path class="cls-5" d="M306.32,245.47c0,.67-.47.95-1.05.61a2.32,2.32,0,0,1-1-1.82c0-.67.47-.94,1-.6A2.3,2.3,0,0,1,306.32,245.47Z"/><path class="cls-5" d="M321.92,256.4l-2.16-1.24a1.42,1.42,0,0,1-.58-1.12v-2.28c0-.43.26-.63.58-.44l2.16,1.24a1.42,1.42,0,0,1,.58,1.12V256C322.5,256.39,322.24,256.59,321.92,256.4Z"/><path class="cls-22" d="M325,278.39,279.5,252.1a4.43,4.43,0,0,1-1.85-3.52v-8.69c0-1.36.83-2,1.85-1.39L325,264.79a4.41,4.41,0,0,1,1.85,3.52V277C326.88,278.35,326.05,279,325,278.39Z"/><path class="cls-26" d="M323.73,275.35l-42.92-24.78a2.24,2.24,0,0,1-.94-1.79v-6.53c0-.69.42-1,.94-.71l42.92,24.78a2.26,2.26,0,0,1,.93,1.79v6.53C324.66,275.33,324.24,275.64,323.73,275.35Z"/><path class="cls-24" d="M289.75,252.43l-6.4-3.7a2.14,2.14,0,0,1-.91-1.73h0c0-.67.4-1,.91-.69l6.4,3.7a2.17,2.17,0,0,1,.91,1.73h0C290.66,252.41,290.25,252.72,289.75,252.43Z"/><path class="cls-9" d="M319.18,268.5c0,1.26-.89,1.78-2,1.14a4.37,4.37,0,0,1-2-3.43c0-1.27.89-1.78,2-1.15A4.41,4.41,0,0,1,319.18,268.5Z"/><path class="cls-5" d="M295.21,254.56c0,.67-.47.94-1,.61a2.33,2.33,0,0,1-1.05-1.82c0-.67.47-.94,1.05-.61A2.33,2.33,0,0,1,295.21,254.56Z"/><path class="cls-24" d="M298.91,256.7c0,.67-.47.94-1.05.61a2.33,2.33,0,0,1-1.05-1.82c0-.67.47-.94,1.05-.61A2.33,2.33,0,0,1,298.91,256.7Z"/><ellipse class="cls-5" cx="301.57" cy="258.23" rx="0.86" ry="1.48" transform="translate(-88.71 185.38) rotate(-30)"/><path class="cls-3" d="M392.94,331.59l-48.6-27.71c-1.77-1-1.55-2.82.5-4l28-16.15a7.76,7.76,0,0,1,6.94-.29l48.6,27.72c1.78,1,1.56,2.81-.5,4l-28,16.14A7.69,7.69,0,0,1,392.94,331.59Z"/><path class="cls-23" d="M432.67,301.83h0V188.36l-45.1-11.8-8.31-4.8a8.28,8.28,0,0,0-7.44.31l-7.75,4.47H340l7.12,109.53a2.17,2.17,0,0,0,1.28,2l45,34a8.28,8.28,0,0,0,7.44-.31l30-17.32C432.13,303.66,432.75,302.71,432.67,301.83Z"/><path class="cls-24" d="M375.81,171a8.65,8.65,0,0,0-4,1l-7.75,4.47H340V290.3a2.14,2.14,0,0,0,1.28,2L393.42,322a6.78,6.78,0,0,0,3.46.74l.53-114.48Z"/><path class="cls-22" d="M393.9,322.26a8.53,8.53,0,0,0,6-.07V206.93h-6Z"/><path class="cls-24" d="M393.42,208.29l-52.13-29.73c-1.91-1.1-1.67-3,.53-4.29l30-17.32a8.28,8.28,0,0,1,7.44-.31l52.14,29.73c1.9,1.1,1.66,3-.54,4.3l-30,17.32A8.27,8.27,0,0,1,393.42,208.29Z"/><path class="cls-25" d="M430.86,188.56l-30,17.32a8.27,8.27,0,0,1-7.44.3l-52.13-29.73a2.86,2.86,0,0,1-1-.84c-.65,1-.35,2.2,1,2.95l52.13,29.73a8.27,8.27,0,0,0,7.44-.3l30-17.32c1.71-1,2.23-2.37,1.49-3.46A4.13,4.13,0,0,1,430.86,188.56Z"/><path class="cls-5" d="M394.9,196.24l-34.71-20.12c-.9-.51-.78-1.41.25-2l14-8.1a3.89,3.89,0,0,1,3.49-.15L412.67,186c.89.51.78,1.41-.25,2l-14,8.1A3.83,3.83,0,0,1,394.9,196.24Z"/><path class="cls-24" d="M376.16,177l-2-1.16c-.13-.08-.11-.2,0-.28l1.94-1.12a.51.51,0,0,1,.49,0l2,1.16c.12.07.11.19,0,.28L376.64,177A.54.54,0,0,1,376.16,177Z"/><path class="cls-24" d="M382.88,180.89l-2-1.16c-.13-.07-.11-.2,0-.28l1.94-1.12a.56.56,0,0,1,.49,0l2,1.16c.12.07.11.2,0,.28l-1.94,1.12A.54.54,0,0,1,382.88,180.89Z"/><path class="cls-24" d="M389.6,184.75l-2-1.16c-.13-.07-.11-.19,0-.27l1.94-1.13a.56.56,0,0,1,.49,0l2,1.17c.12.07.11.19,0,.27l-1.94,1.12A.49.49,0,0,1,389.6,184.75Z"/><path class="cls-24" d="M396.32,188.62l-2-1.16c-.13-.07-.11-.2,0-.28l1.94-1.12a.56.56,0,0,1,.49,0l2,1.16c.12.07.11.19,0,.28l-1.94,1.12A.54.54,0,0,1,396.32,188.62Z"/><path class="cls-22" d="M360.19,176.12l0,0,.21-.15,14-8.1a3.89,3.89,0,0,1,3.49-.15l34.67,20.1c.82-.59.86-1.39,0-1.86L378,165.86a3.89,3.89,0,0,0-3.49.15l-14,8.1C359.41,174.71,359.29,175.61,360.19,176.12Z"/><path class="cls-5" d="M406.72,230.77l19.74-11.3a4.81,4.81,0,0,0,2-3.84v-7.06c0-1.48-.9-2.16-2-1.52l-19.74,11.3a4.82,4.82,0,0,0-2,3.85v7.05C404.71,230.73,405.61,231.41,406.72,230.77Z"/><path class="cls-9" d="M427.43,206.84a2,2,0,0,1,.51,1.47v7.06a4.81,4.81,0,0,1-2,3.84l-19.74,11.3a1.47,1.47,0,0,1-1,.21,1.2,1.2,0,0,0,1.51.05l19.74-11.3a4.81,4.81,0,0,0,2-3.84v-7.06C428.47,207.57,428.05,206.94,427.43,206.84Z"/><path class="cls-23" d="M412.66,223.11l1.81-1.05a1.05,1.05,0,0,0,.44-.84v-1.93c0-.32-.2-.47-.44-.33l-1.81,1a1.07,1.07,0,0,0-.44.84v1.93C412.22,223.1,412.42,223.25,412.66,223.11Z"/><path class="cls-9" d="M418.71,219.61l1.81-1a1.07,1.07,0,0,0,.44-.84v-1.94c0-.32-.2-.47-.44-.33l-1.81,1a1.05,1.05,0,0,0-.44.84v1.93C418.27,219.6,418.47,219.75,418.71,219.61Z"/><path class="cls-5" d="M406.72,281.77l19.74-11.3a4.81,4.81,0,0,0,2-3.84v-7.06c0-1.48-.9-2.16-2-1.52l-19.74,11.3a4.85,4.85,0,0,0-2,3.85v7.05C404.71,281.74,405.61,282.42,406.72,281.77Z"/><path class="cls-9" d="M427.43,257.84a2,2,0,0,1,.51,1.47v7.06a4.81,4.81,0,0,1-2,3.84l-19.74,11.3a1.41,1.41,0,0,1-1,.21,1.2,1.2,0,0,0,1.51,0l19.74-11.3a4.81,4.81,0,0,0,2-3.84v-7.06C428.47,258.57,428.05,258,427.43,257.84Z"/><path class="cls-23" d="M412.66,274.11l1.81-1.05a1,1,0,0,0,.44-.83v-1.94c0-.32-.2-.47-.44-.33L412.66,271a1,1,0,0,0-.44.83v1.94C412.22,274.1,412.42,274.25,412.66,274.11Z"/><path class="cls-9" d="M418.71,270.61l1.81-1a1.07,1.07,0,0,0,.44-.84V266.8c0-.33-.2-.48-.44-.34l-1.81,1.05a1.05,1.05,0,0,0-.44.84v1.93C418.27,270.6,418.47,270.75,418.71,270.61Z"/><path class="cls-5" d="M406.72,307.28,426.46,296a4.85,4.85,0,0,0,2-3.85v-7.05c0-1.49-.9-2.17-2-1.52l-19.74,11.3a4.81,4.81,0,0,0-2,3.84v7.06C404.71,307.24,405.61,307.92,406.72,307.28Z"/><path class="cls-9" d="M427.43,283.34a2,2,0,0,1,.51,1.47v7.06a4.81,4.81,0,0,1-2,3.84L406.19,307a1.41,1.41,0,0,1-1,.21,1.21,1.21,0,0,0,1.51.06L426.46,296a4.85,4.85,0,0,0,2-3.85v-7.05C428.47,284.07,428.05,283.45,427.43,283.34Z"/><path class="cls-23" d="M412.66,299.61l1.81-1.05a1,1,0,0,0,.44-.83v-1.94c0-.32-.2-.47-.44-.33l-1.81,1.05a1,1,0,0,0-.44.83v1.94C412.22,299.6,412.42,299.75,412.66,299.61Z"/><path class="cls-9" d="M418.71,296.11l1.81-1a1.07,1.07,0,0,0,.44-.84V292.3c0-.33-.2-.47-.44-.33l-1.81,1a1.07,1.07,0,0,0-.44.84v1.93C418.27,296.1,418.47,296.25,418.71,296.11Z"/><path class="cls-5" d="M406.72,256.27,426.46,245a4.81,4.81,0,0,0,2-3.84v-7.06c0-1.48-.9-2.16-2-1.52l-19.74,11.3a4.83,4.83,0,0,0-2,3.85v7.05C404.71,256.23,405.61,256.92,406.72,256.27Z"/><path class="cls-9" d="M427.43,232.34a2,2,0,0,1,.51,1.47v7.06a4.81,4.81,0,0,1-2,3.84L406.19,256a1.41,1.41,0,0,1-1,.21,1.2,1.2,0,0,0,1.51,0L426.46,245a4.81,4.81,0,0,0,2-3.84v-7.06C428.47,233.07,428.05,232.45,427.43,232.34Z"/><path class="cls-23" d="M412.66,248.61l1.81-1.05a1.05,1.05,0,0,0,.44-.84v-1.93c0-.32-.2-.47-.44-.33l-1.81,1a1.07,1.07,0,0,0-.44.84v1.94C412.22,248.6,412.42,248.75,412.66,248.61Z"/><path class="cls-9" d="M418.71,245.11l1.81-1a1.07,1.07,0,0,0,.44-.84V241.3c0-.33-.2-.48-.44-.34l-1.81,1a1.05,1.05,0,0,0-.44.84v1.93C418.27,245.1,418.47,245.25,418.71,245.11Z"/><path class="cls-22" d="M389.63,223.55l-45.54-26.29a4.42,4.42,0,0,1-1.84-3.53v-8.68c0-1.36.82-2,1.84-1.39l45.54,26.28a4.42,4.42,0,0,1,1.84,3.53v8.68C391.47,223.51,390.65,224.14,389.63,223.55Z"/><path class="cls-26" d="M388.32,220.5,345.4,195.72a2.22,2.22,0,0,1-.94-1.78v-6.53c0-.69.42-1,.94-.71l42.92,24.78a2.24,2.24,0,0,1,.94,1.79v6.53C389.26,220.49,388.84,220.8,388.32,220.5Z"/><path class="cls-24" d="M354.34,197.59l-6.4-3.7a2.19,2.19,0,0,1-.91-1.74h0c0-.67.41-1,.91-.68l6.4,3.69a2.16,2.16,0,0,1,.91,1.74h0C355.25,197.57,354.85,197.88,354.34,197.59Z"/><path class="cls-5" d="M359.8,199.53c0,.67-.47.94-1.05.6a2.3,2.3,0,0,1-1.05-1.81c0-.67.47-.95,1.05-.61A2.32,2.32,0,0,1,359.8,199.53Z"/><path class="cls-5" d="M363.51,201.67c0,.67-.47.94-1.05.6a2.32,2.32,0,0,1-1-1.82c0-.67.47-.94,1-.6A2.32,2.32,0,0,1,363.51,201.67Z"/><path class="cls-24" d="M367.21,203.8c0,.67-.47.95-1,.61a2.32,2.32,0,0,1-1.05-1.82c0-.67.47-.94,1.05-.6A2.3,2.3,0,0,1,367.21,203.8Z"/><path class="cls-5" d="M370.91,205.94c0,.67-.47.94-1.05.61a2.33,2.33,0,0,1-1.05-1.82c0-.67.47-.94,1.05-.61A2.33,2.33,0,0,1,370.91,205.94Z"/><path class="cls-5" d="M386.51,216.87l-2.15-1.25a1.36,1.36,0,0,1-.59-1.11v-2.28c0-.43.26-.63.59-.45l2.15,1.25a1.4,1.4,0,0,1,.59,1.12v2.28C387.1,216.86,386.84,217.06,386.51,216.87Z"/><path class="cls-22" d="M389.63,238.86l-45.54-26.29a4.42,4.42,0,0,1-1.84-3.53v-8.68c0-1.36.82-2,1.84-1.39l45.54,26.29a4.39,4.39,0,0,1,1.84,3.52v8.68C391.47,238.82,390.65,239.45,389.63,238.86Z"/><path class="cls-26" d="M388.32,235.81,345.4,211a2.24,2.24,0,0,1-.94-1.79v-6.53c0-.69.42-1,.94-.71l42.92,24.78a2.24,2.24,0,0,1,.94,1.79v6.53C389.26,235.8,388.84,236.11,388.32,235.81Z"/><path class="cls-24" d="M354.34,212.9l-6.4-3.7a2.19,2.19,0,0,1-.91-1.74h0c0-.67.41-1,.91-.68l6.4,3.69a2.16,2.16,0,0,1,.91,1.74h0C355.25,212.88,354.85,213.19,354.34,212.9Z"/><path class="cls-9" d="M359.8,214.84c0,.67-.47.94-1.05.6a2.3,2.3,0,0,1-1.05-1.81c0-.67.47-.94,1.05-.61A2.32,2.32,0,0,1,359.8,214.84Z"/><path class="cls-5" d="M363.51,217c0,.67-.47.94-1.05.6a2.32,2.32,0,0,1-1-1.82c0-.66.47-.94,1-.6A2.32,2.32,0,0,1,363.51,217Z"/><path class="cls-24" d="M367.21,219.11c0,.67-.47.95-1,.61a2.32,2.32,0,0,1-1.05-1.82c0-.67.47-.94,1.05-.6A2.31,2.31,0,0,1,367.21,219.11Z"/><path class="cls-5" d="M370.91,221.25c0,.67-.47.94-1.05.61a2.33,2.33,0,0,1-1.05-1.82c0-.67.47-.94,1.05-.61A2.33,2.33,0,0,1,370.91,221.25Z"/><path class="cls-5" d="M386.51,232.18l-2.15-1.25a1.36,1.36,0,0,1-.59-1.11v-2.28c0-.43.26-.63.59-.44l2.15,1.24a1.4,1.4,0,0,1,.59,1.12v2.28C387.1,232.17,386.84,232.37,386.51,232.18Z"/><path class="cls-22" d="M389.63,254.17l-45.54-26.29a4.42,4.42,0,0,1-1.84-3.52v-8.69c0-1.36.82-2,1.84-1.39l45.54,26.29a4.39,4.39,0,0,1,1.84,3.52v8.68C391.47,254.13,390.65,254.76,389.63,254.17Z"/><path class="cls-26" d="M388.32,251.13,345.4,226.35a2.24,2.24,0,0,1-.94-1.79V218c0-.69.42-1,.94-.71l42.92,24.78a2.24,2.24,0,0,1,.94,1.79v6.53C389.26,251.11,388.84,251.42,388.32,251.13Z"/><path class="cls-24" d="M354.34,228.21l-6.4-3.7a2.19,2.19,0,0,1-.91-1.74h0c0-.66.41-1,.91-.68l6.4,3.7a2.14,2.14,0,0,1,.91,1.73h0C355.25,228.19,354.85,228.5,354.34,228.21Z"/><ellipse class="cls-9" cx="358.75" cy="229.54" rx="0.86" ry="1.48" transform="translate(-66.71 210.13) rotate(-30)"/><ellipse class="cls-5" cx="362.46" cy="231.68" rx="0.86" ry="1.48" transform="translate(-67.28 212.27) rotate(-30)"/><path class="cls-24" d="M367.21,234.43c0,.67-.47.94-1,.6a2.32,2.32,0,0,1-1.05-1.82c0-.67.47-.94,1.05-.6A2.32,2.32,0,0,1,367.21,234.43Z"/><path class="cls-5" d="M370.91,236.56c0,.67-.47.94-1.05.61a2.32,2.32,0,0,1-1.05-1.82c0-.67.47-.94,1.05-.6A2.3,2.3,0,0,1,370.91,236.56Z"/><path class="cls-5" d="M386.51,247.49l-2.15-1.25a1.36,1.36,0,0,1-.59-1.11v-2.28c0-.43.26-.63.59-.44l2.15,1.24a1.4,1.4,0,0,1,.59,1.12v2.28C387.1,247.48,386.84,247.68,386.51,247.49Z"/><path class="cls-22" d="M389.63,269.48l-45.54-26.29a4.42,4.42,0,0,1-1.84-3.52V231c0-1.36.82-2,1.84-1.39l45.54,26.29a4.4,4.4,0,0,1,1.84,3.52v8.69C391.47,269.44,390.65,270.07,389.63,269.48Z"/><path class="cls-26" d="M388.32,266.44,345.4,241.66a2.24,2.24,0,0,1-.94-1.79v-6.53c0-.69.42-1,.94-.71l42.92,24.78a2.24,2.24,0,0,1,.94,1.79v6.53C389.26,266.42,388.84,266.73,388.32,266.44Z"/><path class="cls-24" d="M354.34,243.52l-6.4-3.7a2.17,2.17,0,0,1-.91-1.73h0c0-.67.41-1,.91-.69l6.4,3.7a2.14,2.14,0,0,1,.91,1.73h0C355.25,243.5,354.85,243.81,354.34,243.52Z"/><path class="cls-5" d="M359.8,245.46c0,.67-.47.94-1.05.61a2.33,2.33,0,0,1-1.05-1.82c0-.67.47-.94,1.05-.61A2.33,2.33,0,0,1,359.8,245.46Z"/><path class="cls-5" d="M363.51,247.6c0,.67-.47.94-1.05.6a2.3,2.3,0,0,1-1-1.81c0-.67.47-.94,1-.61A2.32,2.32,0,0,1,363.51,247.6Z"/><path class="cls-24" d="M367.21,249.74c0,.67-.47.94-1,.6a2.32,2.32,0,0,1-1.05-1.82c0-.67.47-.94,1.05-.6A2.32,2.32,0,0,1,367.21,249.74Z"/><path class="cls-5" d="M370.91,251.87c0,.67-.47.95-1.05.61a2.32,2.32,0,0,1-1.05-1.82c0-.67.47-.94,1.05-.6A2.31,2.31,0,0,1,370.91,251.87Z"/><path class="cls-24" d="M386.51,262.8l-2.15-1.24a1.4,1.4,0,0,1-.59-1.12v-2.28c0-.43.26-.63.59-.44l2.15,1.24a1.4,1.4,0,0,1,.59,1.12v2.28C387.1,262.79,386.84,263,386.51,262.8Z"/><path class="cls-22" d="M389.63,284.79,344.09,258.5a4.4,4.4,0,0,1-1.84-3.52v-8.69c0-1.35.82-2,1.84-1.39l45.54,26.29a4.4,4.4,0,0,1,1.84,3.52v8.69C391.47,284.76,390.65,285.38,389.63,284.79Z"/><path class="cls-26" d="M388.32,281.75,345.4,257a2.24,2.24,0,0,1-.94-1.79v-6.53c0-.69.42-1,.94-.71l42.92,24.78a2.24,2.24,0,0,1,.94,1.79V281C389.26,281.73,388.84,282.05,388.32,281.75Z"/><path class="cls-24" d="M354.34,258.83l-6.4-3.7a2.17,2.17,0,0,1-.91-1.73h0c0-.67.41-1,.91-.69l6.4,3.7a2.14,2.14,0,0,1,.91,1.73h0C355.25,258.81,354.85,259.12,354.34,258.83Z"/><ellipse class="cls-5" cx="358.75" cy="260.16" rx="0.86" ry="1.48" transform="translate(-82.02 214.23) rotate(-30)"/><ellipse class="cls-9" cx="362.46" cy="262.3" rx="0.86" ry="1.48" transform="translate(-82.59 216.37) rotate(-30)"/><ellipse class="cls-24" cx="366.16" cy="264.44" rx="0.86" ry="1.48" transform="translate(-83.16 218.51) rotate(-30)"/><path class="cls-9" d="M370.91,267.19c0,.66-.47.94-1.05.6a2.32,2.32,0,0,1-1.05-1.82c0-.67.47-.94,1.05-.6A2.32,2.32,0,0,1,370.91,267.19Z"/><path class="cls-24" d="M386.51,278.11l-2.15-1.24a1.4,1.4,0,0,1-.59-1.12v-2.28c0-.43.26-.63.59-.44l2.15,1.24a1.4,1.4,0,0,1,.59,1.12v2.28C387.1,278.1,386.84,278.3,386.51,278.11Z"/><path class="cls-22" d="M389.63,300.1l-45.54-26.29a4.4,4.4,0,0,1-1.84-3.52V261.6c0-1.35.82-2,1.84-1.39l45.54,26.29a4.42,4.42,0,0,1,1.84,3.52v8.69C391.47,300.07,390.65,300.69,389.63,300.1Z"/><path class="cls-26" d="M388.32,297.06,345.4,272.28a2.24,2.24,0,0,1-.94-1.79V264c0-.69.42-1,.94-.71L388.32,288a2.24,2.24,0,0,1,.94,1.79v6.53C389.26,297,388.84,297.36,388.32,297.06Z"/><path class="cls-24" d="M354.34,274.14l-6.4-3.7a2.17,2.17,0,0,1-.91-1.73h0c0-.67.41-1,.91-.69l6.4,3.7a2.16,2.16,0,0,1,.91,1.74h0C355.25,274.12,354.85,274.43,354.34,274.14Z"/><path class="cls-5" d="M359.8,276.08c0,.67-.47.94-1.05.61a2.33,2.33,0,0,1-1.05-1.82c0-.67.47-.94,1.05-.61A2.33,2.33,0,0,1,359.8,276.08Z"/><path class="cls-5" d="M363.51,278.22c0,.67-.47.94-1.05.61a2.33,2.33,0,0,1-1-1.82c0-.67.47-.94,1-.61A2.33,2.33,0,0,1,363.51,278.22Z"/><path class="cls-24" d="M367.21,280.36c0,.67-.47.94-1,.6a2.3,2.3,0,0,1-1.05-1.81c0-.67.47-.95,1.05-.61A2.32,2.32,0,0,1,367.21,280.36Z"/><path class="cls-5" d="M370.91,282.5c0,.67-.47.94-1.05.6a2.32,2.32,0,0,1-1.05-1.82c0-.67.47-.94,1.05-.6A2.32,2.32,0,0,1,370.91,282.5Z"/><path class="cls-5" d="M386.51,293.42l-2.15-1.24a1.4,1.4,0,0,1-.59-1.12v-2.28c0-.43.26-.63.59-.44l2.15,1.24a1.4,1.4,0,0,1,.59,1.12V293C387.1,293.41,386.84,293.61,386.51,293.42Z"/><path class="cls-22" d="M389.63,315.41l-45.54-26.29a4.39,4.39,0,0,1-1.84-3.52v-8.68c0-1.36.82-2,1.84-1.4l45.54,26.29a4.42,4.42,0,0,1,1.84,3.53V314C391.47,315.38,390.65,316,389.63,315.41Z"/><path class="cls-26" d="M388.32,312.37,345.4,287.59a2.24,2.24,0,0,1-.94-1.79v-6.53c0-.69.42-1,.94-.71l42.92,24.78a2.24,2.24,0,0,1,.94,1.79v6.53C389.26,312.35,388.84,312.67,388.32,312.37Z"/><path class="cls-24" d="M354.34,289.45l-6.4-3.7A2.15,2.15,0,0,1,347,284h0c0-.67.41-1,.91-.69l6.4,3.7a2.16,2.16,0,0,1,.91,1.74h0C355.25,289.44,354.85,289.74,354.34,289.45Z"/><path class="cls-9" d="M361,292.22c0,1.27-.88,1.78-2,1.15a4.41,4.41,0,0,1-2-3.44c0-1.26.89-1.78,2-1.14A4.36,4.36,0,0,1,361,292.22Z"/><path class="cls-5" d="M368.64,296.71c0,.67-.47.94-1.05.61a2.33,2.33,0,0,1-1-1.82c0-.67.47-.94,1-.61A2.33,2.33,0,0,1,368.64,296.71Z"/><path class="cls-24" d="M372.35,298.85c0,.67-.47.94-1.05.6a2.31,2.31,0,0,1-1.05-1.81c0-.67.47-.95,1.05-.61A2.32,2.32,0,0,1,372.35,298.85Z"/><ellipse class="cls-5" cx="375" cy="300.38" rx="0.86" ry="1.48" transform="translate(-99.95 227.75) rotate(-30)"/><path class="cls-24" d="M386.51,308.73l-2.15-1.24a1.4,1.4,0,0,1-.59-1.12v-2.28c0-.43.26-.63.59-.44l2.15,1.24a1.4,1.4,0,0,1,.59,1.12v2.28C387.1,308.72,386.84,308.92,386.51,308.73Z"/><path class="cls-22" d="M313.89,303a.63.63,0,0,1-.57-.33.65.65,0,0,1,.24-.9l9-5.2a3.3,3.3,0,0,0,1.65-2.86v-4.75a.66.66,0,0,1,1.32,0v4.75a4.63,4.63,0,0,1-2.31,4l-9,5.2A.64.64,0,0,1,313.89,303Z"/><rect class="cls-22" x="306.96" y="298.78" width="5.47" height="11.8" transform="translate(419.95 -115.54) rotate(60.17)"/><path class="cls-22" d="M316.74,302.87a4.31,4.31,0,0,0-1.92-3.36c-1.07-.62-1.94-.12-1.94,1.11A4.3,4.3,0,0,0,314.8,304C315.87,304.6,316.74,304.1,316.74,302.87Z"/><rect class="cls-22" x="293.91" y="301.94" width="8.86" height="18.5" transform="translate(419.89 -102.41) rotate(60.17)"/><path class="cls-23" d="M304.9,304.28l3.46-2a7.05,7.05,0,0,1,2.72,4.75l-3.46,2A7.09,7.09,0,0,1,304.9,304.28Z"/><path class="cls-22" d="M309.49,308.41a6.92,6.92,0,0,0-3.12-5.44c-1.72-1-3.13-.2-3.13,1.8a6.94,6.94,0,0,0,3.11,5.44C308.08,311.21,309.49,310.41,309.49,308.41Z"/><path class="cls-24" d="M313.51,301.6a.56.56,0,0,0,0-1.05,2,2,0,0,0-1.82,0,.55.55,0,0,0,0,1.05A2,2,0,0,0,313.51,301.6Z"/><path class="cls-3" d="M271.14,411.88l-113-65.24c-3.2-1.85-2.79-5.07.9-7.2L236,295c3.69-2.13,9.27-2.37,12.47-.52l113,65.24c3.2,1.85,2.8,5.07-.89,7.2l-76.95,44.42C279.92,413.5,274.34,413.73,271.14,411.88Z"/><path class="cls-22" d="M298.42,408.79a.58.58,0,0,1-.33-.1l-21.63-12.8a.66.66,0,1,1,.67-1.14l21.63,12.8a.67.67,0,0,1,.23.91A.65.65,0,0,1,298.42,408.79Z"/><path class="cls-5" d="M363.61,347.57l-15.45-2L248.45,288c-3.2-1.85-8.78-1.61-12.47.52l-70.66,40.78L156,328v5.3h0a3.63,3.63,0,0,0,2.14,3.28l113,65.24c3.2,1.85,8.78,1.62,12.47-.52l76.95-44.41c2.08-1.2,3.11-2.74,3.05-4.19h0Z"/><path class="cls-23" d="M288.69,311.19l-7.09-4.09H203.72l-38.4,22.16L156,328v5.3h0a3.63,3.63,0,0,0,2.14,3.28l113,65.24a11.62,11.62,0,0,0,6.43,1.21Z"/><path class="cls-22" d="M160.12,328.57,156,328v5.3h0a3.63,3.63,0,0,0,2.14,3.28l2,1.15Z"/><path class="cls-27" d="M272.28,402.37a14.43,14.43,0,0,0,10.59-.66V389.89H272.28Z"/><path class="cls-24" d="M271.14,396.55l-113-65.25c-3.2-1.84-2.79-5.07.9-7.2L236,279.69c3.69-2.13,9.27-2.36,12.47-.52l113,65.25c3.2,1.84,2.8,5.07-.89,7.2L283.61,396C279.92,398.16,274.34,398.39,271.14,396.55Z"/><path class="cls-9" d="M360.56,349.68,283.61,394.1c-3.69,2.13-9.27,2.36-12.47.51l-113-65.24a4.23,4.23,0,0,1-2-2.18c-.5,1.52.14,3.05,2,4.11l113,65.25c3.2,1.84,8.78,1.61,12.47-.52l76.95-44.41c2.48-1.43,3.47-3.36,2.88-5A6,6,0,0,1,360.56,349.68Z"/><path class="cls-5" d="M206.19,309.7l-5.11-2.95c-.41-.23-.36-.65.12-.92l6-3.49a1.78,1.78,0,0,1,1.6-.06l5.12,3c.41.24.36.65-.12.92l-6,3.49A1.8,1.8,0,0,1,206.19,309.7Z"/><path class="cls-5" d="M214.09,314.26,209,311.31c-.41-.24-.36-.65.11-.92l6-3.49a1.78,1.78,0,0,1,1.6-.06l5.11,3c.41.23.36.65-.11.92l-6,3.49A1.78,1.78,0,0,1,214.09,314.26Z"/><path class="cls-5" d="M222,318.82l-5.12-2.95c-.41-.24-.35-.65.12-.92l6-3.49a1.83,1.83,0,0,1,1.61-.07l5.11,3c.41.23.36.65-.12.92l-6,3.49A1.78,1.78,0,0,1,222,318.82Z"/><path class="cls-5" d="M232.91,315.06l-5.12-3c-.41-.23-.35-.65.12-.92l5.07-2.92a1.75,1.75,0,0,1,1.6-.07l5.11,2.95c.41.24.36.65-.11.93L234.51,315A1.81,1.81,0,0,1,232.91,315.06Z"/><path class="cls-5" d="M240.8,319.62l-5.11-3c-.41-.23-.36-.65.12-.92l5.06-2.93a1.78,1.78,0,0,1,1.6-.06l5.12,2.95c.41.24.36.65-.12.92l-5.06,2.93A1.83,1.83,0,0,1,240.8,319.62Z"/><path class="cls-5" d="M248.7,324.17l-5.11-2.95c-.41-.23-.36-.65.11-.92l5.07-2.93a1.78,1.78,0,0,1,1.6-.06l5.11,2.95c.41.24.36.65-.11.92l-5.07,2.93A1.78,1.78,0,0,1,248.7,324.17Z"/><path class="cls-5" d="M256.6,328.73l-5.12-3c-.41-.24-.36-.65.12-.92l5.06-2.93a1.8,1.8,0,0,1,1.61-.06l5.11,2.95c.41.23.36.65-.12.92l-5.06,2.93A1.78,1.78,0,0,1,256.6,328.73Z"/><path class="cls-5" d="M264.49,333.29l-5.11-3c-.41-.24-.36-.65.11-.92l5.07-2.93a1.81,1.81,0,0,1,1.6-.07l5.12,3c.41.23.35.65-.12.92l-5.07,2.93A1.78,1.78,0,0,1,264.49,333.29Z"/><path class="cls-5" d="M272.39,337.85l-5.11-3c-.41-.24-.36-.65.11-.93l5.07-2.92a1.81,1.81,0,0,1,1.6-.07l5.11,3c.41.23.36.65-.11.92L274,337.78A1.75,1.75,0,0,1,272.39,337.85Z"/><path class="cls-5" d="M280.28,342.41l-5.11-3c-.41-.24-.36-.65.12-.93l5.06-2.92a1.75,1.75,0,0,1,1.6-.07l5.12,2.95c.41.24.36.65-.12.93l-5.06,2.92A1.77,1.77,0,0,1,280.28,342.41Z"/><path class="cls-5" d="M288.18,347l-5.11-3c-.41-.24-.36-.65.11-.93l5.07-2.92a1.75,1.75,0,0,1,1.6-.07l5.11,2.95c.41.24.36.65-.11.93l-5.07,2.92A1.75,1.75,0,0,1,288.18,347Z"/><path class="cls-5" d="M296.08,351.53,291,348.58c-.41-.24-.35-.66.12-.93l5.07-2.92a1.75,1.75,0,0,1,1.6-.07l5.11,2.95c.41.24.36.65-.11.93l-5.07,2.92A1.78,1.78,0,0,1,296.08,351.53Z"/><path class="cls-5" d="M304,356.09l-5.11-3c-.41-.23-.36-.65.12-.92l5.06-2.93a1.78,1.78,0,0,1,1.6-.06l5.12,2.95c.41.24.36.65-.12.93L305.58,356A1.83,1.83,0,0,1,304,356.09Z"/><path class="cls-23" d="M244.54,312.9,239.43,310c-.41-.24-.36-.65.11-.93l5.07-2.92a1.75,1.75,0,0,1,1.6-.07l5.12,3c.41.24.35.65-.12.93l-5.07,2.92A1.75,1.75,0,0,1,244.54,312.9Z"/><path class="cls-23" d="M236.53,308.27l-5.11-2.95c-.42-.24-.36-.65.11-.92l5.07-2.93a1.81,1.81,0,0,1,1.6-.07l5.11,3c.41.23.36.65-.11.92l-5.07,2.93A1.78,1.78,0,0,1,236.53,308.27Z"/><path class="cls-5" d="M228.5,303.64l-11-6.36c-.41-.24-.36-.65.11-.93l5.07-2.92a1.81,1.81,0,0,1,1.6-.07l11,6.36c.41.24.36.65-.11.93l-5.07,2.92A1.81,1.81,0,0,1,228.5,303.64Z"/><path class="cls-5" d="M234.11,298l-8.93-5.16c-.42-.24-.36-.65.11-.92l5.07-2.93a1.78,1.78,0,0,1,1.6-.06l8.94,5.16c.41.23.35.65-.12.92l-5.07,2.92A1.75,1.75,0,0,1,234.11,298Z"/><path class="cls-23" d="M252.44,317.46l-5.11-2.95c-.42-.24-.36-.66.11-.93l5.07-2.92a1.75,1.75,0,0,1,1.6-.07l5.11,3c.41.24.36.65-.11.93L254,317.39A1.81,1.81,0,0,1,252.44,317.46Z"/><path class="cls-5" d="M260.33,322l-5.11-3c-.41-.23-.36-.65.12-.92l5.06-2.93a1.78,1.78,0,0,1,1.6-.06l5.12,3c.41.24.36.65-.12.92L261.94,322A1.83,1.83,0,0,1,260.33,322Z"/><path class="cls-5" d="M268.23,326.58l-5.11-3c-.41-.23-.36-.65.11-.92l5.07-2.93a1.78,1.78,0,0,1,1.6-.06l5.11,3c.41.24.36.65-.11.92l-5.07,2.93A1.81,1.81,0,0,1,268.23,326.58Z"/><path class="cls-5" d="M276.13,331.13,271,328.18c-.41-.24-.36-.65.12-.92l5.07-2.93a1.78,1.78,0,0,1,1.6-.06l5.11,3c.41.23.36.65-.11.92l-5.07,2.93A1.78,1.78,0,0,1,276.13,331.13Z"/><path class="cls-5" d="M284,335.69l-5.11-2.95c-.41-.24-.36-.65.12-.92l5.06-2.93a1.81,1.81,0,0,1,1.6-.07l5.12,3c.41.23.36.65-.12.92l-5.07,2.93A1.78,1.78,0,0,1,284,335.69Z"/><path class="cls-5" d="M291.92,340.25l-5.11-2.95c-.41-.24-.36-.65.11-.92l5.07-2.93a1.81,1.81,0,0,1,1.6-.07l5.11,3c.41.23.36.65-.11.92l-5.07,2.93A1.78,1.78,0,0,1,291.92,340.25Z"/><path class="cls-5" d="M299.82,344.81l-5.12-2.95c-.41-.24-.36-.65.12-.93l5.06-2.92a1.83,1.83,0,0,1,1.61-.07l5.11,2.95c.41.24.36.66-.12.93l-5.06,2.92A1.75,1.75,0,0,1,299.82,344.81Z"/><path class="cls-5" d="M307.71,349.37l-5.11-2.95c-.41-.24-.36-.65.11-.93l5.07-2.92a1.75,1.75,0,0,1,1.6-.07l5.11,2.95c.42.24.36.65-.11.93l-5.07,2.92A1.75,1.75,0,0,1,307.71,349.37Z"/><path class="cls-5" d="M315.61,353.93,310.49,351c-.41-.24-.35-.65.12-.93l5.07-2.92a1.75,1.75,0,0,1,1.6-.07l5.11,2.95c.41.24.36.65-.11.93l-5.07,2.92A1.75,1.75,0,0,1,315.61,353.93Z"/><path class="cls-5" d="M329.65,362l-11.16-6.44c-.41-.24-.36-.65.11-.92l5.07-2.93a1.78,1.78,0,0,1,1.6-.06l11.16,6.44c.41.23.36.65-.12.92L331.25,362A1.78,1.78,0,0,1,329.65,362Z"/><path class="cls-5" d="M345,353.16l-9.42-5.44c-.41-.24-.36-.65.12-.92l5.06-2.93a1.81,1.81,0,0,1,1.6-.07l9.42,5.44c.41.24.36.65-.11.93l-5.07,2.92A1.81,1.81,0,0,1,345,353.16Z"/><path class="cls-5" d="M266.27,316.57l-5.12-3c-.41-.23-.36-.65.12-.92l5.06-2.93a1.8,1.8,0,0,1,1.61-.06l5.11,2.95c.41.24.36.65-.12.92l-5.06,2.93A1.81,1.81,0,0,1,266.27,316.57Z"/><path class="cls-5" d="M258.17,311.89l-5.11-2.95c-.41-.24-.36-.65.12-.92l5.06-2.93a1.78,1.78,0,0,1,1.6-.06l5.12,3c.41.23.36.65-.12.92l-5.06,2.93A1.8,1.8,0,0,1,258.17,311.89Z"/><path class="cls-23" d="M250.08,307.22l-5.11-3c-.41-.24-.36-.65.11-.93l5.07-2.92a1.81,1.81,0,0,1,1.6-.07l5.11,2.95c.41.24.36.66-.11.93l-5.07,2.92A1.75,1.75,0,0,1,250.08,307.22Z"/><path class="cls-5" d="M242,302.55l-5.11-2.95c-.41-.24-.36-.65.11-.93l5.07-2.92a1.75,1.75,0,0,1,1.6-.07l5.11,2.95c.41.24.36.65-.11.93l-5.07,2.92A1.75,1.75,0,0,1,242,302.55Z"/><path class="cls-5" d="M274.16,321.12l-5.11-2.95c-.41-.23-.36-.65.11-.92l5.07-2.93a1.78,1.78,0,0,1,1.6-.06l5.12,2.95c.41.24.35.65-.12.92l-5.07,2.93A1.78,1.78,0,0,1,274.16,321.12Z"/><path class="cls-5" d="M282.06,325.68,277,322.73c-.41-.24-.36-.65.11-.92l5.07-2.93a1.78,1.78,0,0,1,1.6-.06l5.11,2.95c.41.23.36.65-.11.92l-5.07,2.93A1.78,1.78,0,0,1,282.06,325.68Z"/><path class="cls-5" d="M290,330.24l-5.11-2.95c-.41-.24-.36-.65.12-.92l5.06-2.93a1.81,1.81,0,0,1,1.6-.07l5.12,3c.41.23.36.65-.12.92l-5.06,2.93A1.8,1.8,0,0,1,290,330.24Z"/><path class="cls-5" d="M297.85,334.8l-5.11-2.95c-.41-.24-.36-.65.11-.93l5.07-2.92a1.81,1.81,0,0,1,1.6-.07l5.11,2.95c.41.24.36.66-.11.93l-5.07,2.92A1.75,1.75,0,0,1,297.85,334.8Z"/><path class="cls-5" d="M305.75,339.36l-5.12-2.95c-.41-.24-.35-.65.12-.93l5.07-2.92a1.75,1.75,0,0,1,1.6-.07l5.11,2.95c.41.24.36.65-.11.93l-5.07,2.92A1.75,1.75,0,0,1,305.75,339.36Z"/><path class="cls-5" d="M313.64,343.92,308.53,341c-.41-.24-.36-.65.12-.93l5.06-2.92a1.75,1.75,0,0,1,1.6-.07l5.12,2.95c.41.24.36.65-.12.93l-5.06,2.92A1.77,1.77,0,0,1,313.64,343.92Z"/><path class="cls-5" d="M321.54,348.48l-5.11-3c-.41-.24-.36-.66.11-.93l5.07-2.92a1.75,1.75,0,0,1,1.6-.07l5.11,2.95c.41.24.36.65-.11.93l-5.07,2.92A1.81,1.81,0,0,1,321.54,348.48Z"/><path class="cls-5" d="M329.44,353l-5.12-3c-.41-.23-.36-.65.12-.92l5.06-2.93a1.8,1.8,0,0,1,1.61-.06l5.11,2.95c.41.24.36.65-.12.93L331,353A1.81,1.81,0,0,1,329.44,353Z"/><path class="cls-5" d="M337.33,357.6l-5.11-3c-.41-.23-.36-.65.11-.92l5.07-2.93a1.78,1.78,0,0,1,1.6-.06l5.11,2.95c.42.24.36.65-.11.92l-5.07,2.93A1.81,1.81,0,0,1,337.33,357.6Z"/><path class="cls-5" d="M262.11,305.29l-5.11-3c-.41-.24-.36-.65.11-.93l5.07-2.92a1.75,1.75,0,0,1,1.6-.07l5.11,2.95c.41.24.36.65-.11.93l-5.07,2.92A1.75,1.75,0,0,1,262.11,305.29Z"/><path class="cls-5" d="M254.25,300.75l-5.11-2.95c-.41-.24-.36-.65.11-.92l5.07-2.93a1.78,1.78,0,0,1,1.6-.06l5.11,2.95c.42.23.36.65-.11.92l-5.07,2.93A1.78,1.78,0,0,1,254.25,300.75Z"/><path class="cls-5" d="M246.39,296.22l-5.11-3c-.41-.24-.36-.66.12-.93l5.06-2.92a1.75,1.75,0,0,1,1.6-.07l5.12,2.95c.41.24.36.65-.12.93L248,296.15A1.83,1.83,0,0,1,246.39,296.22Z"/><path class="cls-5" d="M238.54,291.68l-5.12-2.95c-.41-.24-.35-.65.12-.93l5.07-2.92a1.81,1.81,0,0,1,1.6-.07l5.11,2.95c.41.24.36.66-.11.93l-5.07,2.92A1.75,1.75,0,0,1,238.54,291.68Z"/><path class="cls-5" d="M246.62,287l-5.12-3c-.41-.23-.35-.65.12-.92l1.67-1a1.8,1.8,0,0,1,1.61-.06l5.11,2.95c.41.24.36.65-.12.92l-1.67,1A1.81,1.81,0,0,1,246.62,287Z"/><path class="cls-5" d="M256.87,292.94l-5.11-3c-.41-.23-.36-.65.11-.92l1.68-1a1.78,1.78,0,0,1,1.6-.06l5.11,3c.41.24.36.65-.11.92l-1.68,1A1.81,1.81,0,0,1,256.87,292.94Z"/><path class="cls-5" d="M264.69,297.45l-5.11-2.95c-.41-.24-.36-.65.12-.92l1.67-1a1.81,1.81,0,0,1,1.6-.07l5.12,3c.41.23.36.65-.12.92l-1.67,1A1.8,1.8,0,0,1,264.69,297.45Z"/><path class="cls-5" d="M272.52,302l-5.11-3c-.41-.24-.36-.65.11-.93l1.68-1a1.75,1.75,0,0,1,1.6-.07l5.11,2.95c.41.24.36.65-.11.93l-1.68,1A1.75,1.75,0,0,1,272.52,302Z"/><path class="cls-5" d="M280.34,306.49l-5.11-2.95c-.41-.24-.36-.66.11-.93l1.68-1a1.78,1.78,0,0,1,1.6-.06l5.11,2.95c.41.24.36.65-.11.92l-1.68,1A1.78,1.78,0,0,1,280.34,306.49Z"/><path class="cls-5" d="M324,331.71l-5.11-2.95c-.41-.24-.36-.66.12-.93l1.67-1a1.78,1.78,0,0,1,1.6-.06l5.12,2.95c.41.24.35.65-.12.92l-1.67,1A1.83,1.83,0,0,1,324,331.71Z"/><path class="cls-5" d="M331.85,336.22l-5.12-3c-.41-.23-.35-.65.12-.92l1.67-1a1.83,1.83,0,0,1,1.61-.07l5.11,3c.41.23.36.65-.12.92l-1.67,1A1.78,1.78,0,0,1,331.85,336.22Z"/><path class="cls-5" d="M339.67,340.74l-5.11-2.95c-.41-.24-.36-.65.11-.93l1.68-1a1.75,1.75,0,0,1,1.6-.07l5.11,2.95c.41.24.36.65-.11.93l-1.68,1A1.78,1.78,0,0,1,339.67,340.74Z"/><path class="cls-5" d="M347.5,345.26l-5.12-2.95c-.41-.24-.36-.65.12-.93l1.67-1a1.75,1.75,0,0,1,1.6-.07l5.12,2.95c.41.24.36.65-.12.93l-1.67,1A1.75,1.75,0,0,1,347.5,345.26Z"/><path class="cls-5" d="M270,309.85l-5.11-3c-.41-.24-.36-.65.12-.93l5.06-2.92a1.75,1.75,0,0,1,1.6-.07l5.12,2.95c.41.24.36.65-.12.93l-5.06,2.92A1.77,1.77,0,0,1,270,309.85Z"/><path class="cls-5" d="M277.9,314.41l-5.11-3c-.41-.24-.36-.66.11-.93l5.07-2.92a1.75,1.75,0,0,1,1.6-.07l5.11,2.95c.41.24.36.65-.11.93l-5.07,2.92A1.81,1.81,0,0,1,277.9,314.41Z"/><path class="cls-5" d="M285.8,319l-5.12-3c-.41-.23-.36-.65.12-.92l5.07-2.93a1.78,1.78,0,0,1,1.6-.06l5.11,2.95c.41.24.36.65-.11.92l-5.07,2.93A1.81,1.81,0,0,1,285.8,319Z"/><path class="cls-5" d="M293.69,323.52l-5.11-2.95c-.41-.23-.36-.65.12-.92l5.06-2.93a1.78,1.78,0,0,1,1.6-.06l5.12,2.95c.41.24.36.65-.12.92l-5.06,2.93A1.8,1.8,0,0,1,293.69,323.52Z"/><path class="cls-5" d="M301.59,328.08l-5.11-2.95c-.41-.24-.36-.65.11-.92l5.07-2.93a1.78,1.78,0,0,1,1.6-.06l5.11,2.95c.41.23.36.65-.11.92L303.19,328A1.78,1.78,0,0,1,301.59,328.08Z"/><path class="cls-5" d="M309.49,332.64l-5.12-2.95c-.41-.24-.36-.65.12-.92l5.06-2.93a1.83,1.83,0,0,1,1.61-.07l5.11,3c.41.23.36.65-.12.92l-5.06,2.93A1.78,1.78,0,0,1,309.49,332.64Z"/><path class="cls-5" d="M317.38,337.2l-5.11-2.95c-.41-.24-.36-.65.11-.93l5.07-2.92a1.81,1.81,0,0,1,1.6-.07l5.11,3c.42.23.36.65-.11.92L319,337.14A1.78,1.78,0,0,1,317.38,337.2Z"/><path class="cls-5" d="M325.28,341.76l-5.12-2.95c-.41-.24-.35-.65.12-.93l5.07-2.92a1.78,1.78,0,0,1,1.6-.07l5.11,2.95c.41.24.36.66-.11.93l-5.07,2.92A1.75,1.75,0,0,1,325.28,341.76Z"/><path class="cls-5" d="M333.17,346.32l-5.11-2.95c-.41-.24-.36-.65.12-.93l5.06-2.92a1.75,1.75,0,0,1,1.6-.07L340,342.4c.41.24.36.65-.12.93l-5.06,2.92A1.77,1.77,0,0,1,333.17,346.32Z"/><path class="cls-5" d="M224.86,310.41l-15.06-8.69c-.41-.24-.36-.65.12-.93l5.06-2.92a1.77,1.77,0,0,1,1.61-.07l15,8.7c.41.23.36.65-.11.92l-5.07,2.92A1.75,1.75,0,0,1,224.86,310.41Z"/><path class="cls-5" d="M321.87,366.42l-15.06-8.7c-.41-.23-.36-.65.11-.92l5.07-2.93a1.78,1.78,0,0,1,1.6-.06l15.06,8.69c.41.24.36.65-.11.93l-5.07,2.92A1.78,1.78,0,0,1,321.87,366.42Z"/><path class="cls-5" d="M290.29,358.26l-5.11-3c-.41-.23-.36-.65.11-.92l6-3.48a1.75,1.75,0,0,1,1.6-.07l5.11,2.95c.41.24.36.65-.11.93l-6,3.48A1.81,1.81,0,0,1,290.29,358.26Z"/><path class="cls-5" d="M233,325.15l-8.18-4.72c-.41-.24-.36-.65.12-.93l6-3.48a1.81,1.81,0,0,1,1.6-.07l8.18,4.72c.41.24.36.66-.12.93l-6,3.48A1.75,1.75,0,0,1,233,325.15Z"/><path class="cls-5" d="M282.68,353.86l-8.18-4.72c-.41-.23-.35-.65.12-.92l6-3.49a1.8,1.8,0,0,1,1.61-.06l8.17,4.72c.41.24.36.65-.11.92l-6,3.49A1.78,1.78,0,0,1,282.68,353.86Z"/><path class="cls-5" d="M244.34,331.73,236.16,327c-.41-.24-.36-.65.12-.93l6-3.48a1.75,1.75,0,0,1,1.6-.07l8.18,4.72c.41.24.36.65-.11.93l-6,3.48A1.81,1.81,0,0,1,244.34,331.73Z"/><path class="cls-5" d="M244,322.56l35.55,20.53a.49.49,0,0,1,0,.92l-6.15,3.55a1.74,1.74,0,0,1-1.6,0L236.22,327Z"/><path class="cls-5" d="M312.36,366.52l5.69,3.29c.34.19.3.53-.09.76L315.49,372a1.45,1.45,0,0,1-1.31.06l-5.7-3.29c-.33-.19-.29-.53.1-.76l2.47-1.42A1.45,1.45,0,0,1,312.36,366.52Z"/><path class="cls-5" d="M304.4,361.93l5.69,3.28c.34.2.3.54-.09.76l-2.47,1.43a1.45,1.45,0,0,1-1.31.05l-5.7-3.29c-.34-.19-.29-.53.09-.75l2.47-1.43A1.47,1.47,0,0,1,304.4,361.93Z"/><path class="cls-5" d="M296.5,357.37l5.7,3.28c.33.2.29.54-.1.76l-2.47,1.43a1.45,1.45,0,0,1-1.31.05l-5.7-3.29c-.33-.19-.29-.53.1-.75l2.47-1.43A1.45,1.45,0,0,1,296.5,357.37Z"/><path class="cls-5" d="M308.76,359.41l5.69,3.29c.34.19.3.53-.09.75l-2.47,1.43a1.45,1.45,0,0,1-1.31.05l-5.7-3.28c-.34-.2-.29-.54.1-.76l2.46-1.43A1.47,1.47,0,0,1,308.76,359.41Z"/><path class="cls-22" d="M241.75,372a4.9,4.9,0,0,1-2.38-.56L199.9,348.65a2,2,0,0,1-1.13-1.73,2.56,2.56,0,0,1,1.48-2.09l26.12-15.08a5.87,5.87,0,0,1,5.38-.2l39.47,22.79a2,2,0,0,1,1.13,1.73,2.56,2.56,0,0,1-1.47,2.08l-26.13,15.09A6.16,6.16,0,0,1,241.75,372Zm-12.37-41.77a5,5,0,0,0-2.39.59L200.86,345.9c-.53.31-.85.69-.85,1s.32.55.51.66L240,370.37h0a4.71,4.71,0,0,0,4.14-.2l26.13-15.08c.54-.31.86-.7.86-1s-.32-.55-.52-.66l-39.47-22.79A3.49,3.49,0,0,0,229.38,330.23Z"/><path class="cls-9" d="M232.64,347.17,236.5,345a1.6,1.6,0,0,1,1.41.07h0c.41.24.46.59.1.79L234.14,348a1.58,1.58,0,0,1-1.4-.07h0C232.32,347.73,232.28,347.37,232.64,347.17Z"/><path class="cls-9" d="M224.42,351.77l5.71-3.19a1.55,1.55,0,0,1,1.4.06h0c.41.24.46.6.1.8l-5.7,3.19a1.63,1.63,0,0,1-1.41-.06h0C224.11,352.33,224.06,352,224.42,351.77Z"/><path class="cls-9" d="M245.44,354.28l7.38-4.14a1.58,1.58,0,0,1,1.4.07h0c.42.23.46.59.1.79l-7.38,4.14a1.58,1.58,0,0,1-1.4-.07h0C245.12,354.83,245.08,354.48,245.44,354.28Z"/><path class="cls-9" d="M244.1,347.88l2.42-1.35a1.58,1.58,0,0,1,1.4.07h0c.42.23.46.59.1.79l-2.41,1.35a1.54,1.54,0,0,1-1.4-.06h0C243.79,348.44,243.75,348.08,244.1,347.88Z"/><path class="cls-9" d="M238.67,343.79l1.55-.87a1.58,1.58,0,0,1,1.4.07h0c.42.23.46.59.1.79l-1.55.87a1.58,1.58,0,0,1-1.4-.07h0C238.36,344.35,238.31,344,238.67,343.79Z"/><path class="cls-9" d="M232,340.39l1.93-1.08a1.58,1.58,0,0,1,1.4.07h0c.42.23.46.59.1.79l-1.92,1.08a1.58,1.58,0,0,1-1.4-.07h0C231.68,341,231.64,340.59,232,340.39Z"/><path class="cls-9" d="M224.5,344.59l5.08-2.85a1.58,1.58,0,0,1,1.4.07h0c.42.24.46.59.1.79L226,345.45a1.58,1.58,0,0,1-1.4-.07h0C224.19,345.14,224.14,344.79,224.5,344.59Z"/><path class="cls-9" d="M227.12,339.55l3.65-2a1.54,1.54,0,0,1,1.4.06h0c.42.24.46.6.1.8l-3.65,2a1.61,1.61,0,0,1-1.4-.06h0C226.81,340.11,226.76,339.75,227.12,339.55Z"/><path class="cls-9" d="M235.11,352.92l6.46-3.62a1.58,1.58,0,0,1,1.4.07h0c.42.24.46.59.1.8l-6.45,3.61a1.58,1.58,0,0,1-1.4-.07h0C234.8,353.48,234.76,353.12,235.11,352.92Z"/><path class="cls-9" d="M238.42,354.64l11.25-6.31a1.58,1.58,0,0,1,1.4.07h0c.42.24.46.59.1.8l-11.25,6.3a1.58,1.58,0,0,1-1.4-.07h0C238.11,355.19,238.06,354.84,238.42,354.64Z"/><path class="cls-9" d="M236.92,348.34l6.45-3.62a1.58,1.58,0,0,1,1.4.07h0c.42.24.46.6.1.8l-6.45,3.61a1.61,1.61,0,0,1-1.4-.06h0C236.6,348.9,236.56,348.54,236.92,348.34Z"/><path class="cls-9" d="M230.22,355.66l2.34-1.31a1.6,1.6,0,0,1,1.41.07h0c.41.23.46.59.1.79l-2.35,1.31a1.58,1.58,0,0,1-1.4-.06h0C229.91,356.22,229.86,355.86,230.22,355.66Z"/><path class="cls-9" d="M229.31,345.46l7.76-4.35a1.58,1.58,0,0,1,1.4.07h0c.42.24.46.6.1.8l-7.75,4.34a1.63,1.63,0,0,1-1.41-.06h0C229,346,229,345.66,229.31,345.46Z"/><path class="cls-22" d="M344.5,300.07a5,5,0,0,1-2.51-.67l-34.81-20.16a3.51,3.51,0,0,1-.06-6l9.63-5.83a.66.66,0,1,1,.69,1.13l-9.64,5.83a2.2,2.2,0,0,0,0,3.77l34.81,20.15a3.67,3.67,0,0,0,3.77-.05l12-7.32a.66.66,0,0,1,.69,1.13l-12,7.32A5,5,0,0,1,344.5,300.07Z"/><polygon class="cls-3" points="255.11 260.49 241.23 252.48 227.35 260.49 241.23 268.5 255.11 260.49"/><polygon class="cls-14" points="245.27 249.86 245.27 199.95 257.06 193.14 257.06 243.05 245.27 249.86"/><polygon class="cls-11" points="245.27 199.95 233.48 193.14 233.48 243.05 245.27 249.86 245.27 199.95"/><polygon class="cls-7" points="257.06 193.14 245.27 186.34 233.48 193.14 245.27 199.95 257.06 193.14"/><polygon class="cls-15" points="257.06 252.13 245.27 245.32 245.27 249.86 257.06 256.66 257.06 252.13"/><polygon class="cls-16" points="233.48 256.66 233.48 220.37 245.27 213.56 245.27 249.86 233.48 256.66"/><polygon class="cls-17" points="233.48 220.37 221.69 213.56 221.69 249.86 233.48 256.66 233.48 220.37"/><polygon class="cls-18" points="245.27 213.56 233.48 206.75 221.69 213.56 233.48 220.37 245.27 213.56"/><polygon class="cls-19" points="233.48 256.66 233.48 220.37 245.27 213.56 245.27 249.86 233.48 256.66"/><polygon class="cls-19" points="233.48 220.37 221.69 213.56 221.69 249.86 233.48 256.66 233.48 220.37"/><polygon class="cls-2" points="245.27 213.56 233.48 206.75 221.69 213.56 233.48 220.37 245.27 213.56"/><polygon class="cls-20" points="245.27 263.47 245.27 243.05 257.06 236.25 257.06 256.66 245.27 263.47"/><polygon class="cls-21" points="245.27 243.05 233.48 236.25 233.48 256.66 245.27 263.47 245.27 243.05"/><polygon class="cls-1" points="257.06 236.25 245.27 229.44 233.48 236.25 245.27 243.05 257.06 236.25"/><path class="cls-5" d="M366.11,217.29s-2.4-1.22-3.88.59-3.59,6.07-3.65,9,2.28,2.69,3.67,2,5.47-6.59,5.72-7.75a4,4,0,0,0-.69-3A13.65,13.65,0,0,0,366.11,217.29Z"/><path class="cls-24" d="M366.64,216.71l.11,2.49a1.43,1.43,0,0,1-.7,1.3,2.79,2.79,0,0,1-1.86.28c-1.81-.29-2-.8-2.1-3.3S366.64,216.71,366.64,216.71Z"/><path class="cls-5" d="M357.31,212.49s-2.41-1.21-3.89.6-3.59,6.07-3.65,8.95,2.28,2.69,3.67,2,5.47-6.6,5.72-7.75a4,4,0,0,0-.68-3C358.08,213,357.31,212.49,357.31,212.49Z"/><path class="cls-24" d="M357.83,211.91l.11,2.5a1.39,1.39,0,0,1-.7,1.29,2.79,2.79,0,0,1-1.86.29c-1.81-.29-2-.81-2.1-3.3S357.83,211.91,357.83,211.91Z"/><path class="cls-1" d="M379.3,166.15c-.71-11.58-12.55,1.71-12.55,1.71l-8.1,7.94-7.29,8a7.16,7.16,0,0,0-1.81,5.78l2.95,22.46a2.2,2.2,0,0,0,2.21,1.92,7.59,7.59,0,0,0,1.09-.09,2.75,2.75,0,0,0,2.44-2.92l-.54-21L373,180.72S380,177.74,379.3,166.15Z"/><path class="cls-1" d="M388.11,170.57c-.71-11.59-12.55,1.7-12.55,1.7l-8.1,7.94-7.29,8a7.21,7.21,0,0,0-1.82,5.78l2.95,22.47a2.22,2.22,0,0,0,2.22,1.92,7.86,7.86,0,0,0,1.09-.1,2.75,2.75,0,0,0,2.44-2.91l-.54-21,15.32-9.23S388.82,182.15,388.11,170.57Z"/><path class="cls-8" d="M381.11,133.37c9,3.72,8.79,9,8.79,9s-1.76,19.44-1.16,32.43c.25,5.43-28.84,5.84-24.5-8.64,5.11-17.08,3.19-30.9,5.59-33S378.78,132.41,381.11,133.37Z"/><path class="cls-6" d="M384,138.08c-.47,1.82-2.85,2.78-5.33,2.14s-4.1-2.63-3.63-4.45,2.86-2.78,5.33-2.15S384.46,136.26,384,138.08Z"/><path class="cls-9" d="M380.19,140.85a6.65,6.65,0,0,1-1.64-.21,6,6,0,0,1-3.14-1.93,3.23,3.23,0,0,1,1.37-5.33,6,6,0,0,1,3.69-.17,5.91,5.91,0,0,1,3.14,1.93,3.4,3.4,0,0,1,.8,3h0a3.43,3.43,0,0,1-2.17,2.29A5.54,5.54,0,0,1,380.19,140.85Zm-1.36-7a4.71,4.71,0,0,0-1.73.32,2.39,2.39,0,0,0-1,4,5.16,5.16,0,0,0,2.7,1.64,5.08,5.08,0,0,0,3.15-.14,2.57,2.57,0,0,0,1.66-1.7h0a2.59,2.59,0,0,0-.63-2.29,5.1,5.1,0,0,0-2.7-1.64A5.9,5.9,0,0,0,378.83,133.85Z"/><path class="cls-6" d="M377.51,133a21.4,21.4,0,0,1-.08,3.2c-.05.9,3.08,1.73,3.89.92s.49-1.65.68-4.69S377.51,133,377.51,133Z"/><path class="cls-10" d="M382,132.4s-.77,2.82-4.57,3.9l.06-2.56Z"/><circle class="cls-6" cx="377.72" cy="126.96" r="6.91" transform="translate(76.6 387.96) rotate(-59.5)"/><path class="cls-10" d="M379.31,127.22a21.58,21.58,0,0,1-6.44,1.64c-2.63,0-2.05-2.18-2.05-2.18l7.81-1.13Z"/><path class="cls-2" d="M372.09,127.64a12.38,12.38,0,0,1,6.21-.82,3.06,3.06,0,0,1,1.76,1.05,1,1,0,0,0,.53.38c.52.12,1.36-2,2.36-2.07s1.67.66.85,2-.54,2.78-.16,3,4.38-2.86.85-9.87-12.52-3.23-13.92-1.81c0,0-1.47,1.28-2.67.14C367.9,119.62,366.56,129.67,372.09,127.64Z"/><path class="cls-6" d="M384.87,156.6v5.26a2.15,2.15,0,0,1-.7,1.58l-10.8,9.84,1.23,1.88,14.25-9.34a2.85,2.85,0,0,0,1.18-2l1-10.17Z"/><path class="cls-8" d="M389.14,139.77s3.27,4.93,4.49,17.89c0,0-5.59,1.81-8.76.78S389.14,139.77,389.14,139.77Z"/><path class="cls-4" d="M384.27,146a92.78,92.78,0,0,0-1.36,10.08,2.05,2.05,0,0,0,1.36,2h0Z"/><path class="cls-5" d="M381.47,180.11l-2.39-.31-15.4-8.89a2.13,2.13,0,0,0-1.93.08l-10.91,6.3-1.44-.19v1.43h0a.58.58,0,0,0,.33.51l17.46,10.07a2.11,2.11,0,0,0,1.92-.08L381,182.17a.77.77,0,0,0,.47-.64h0Z"/><path class="cls-23" d="M369.9,174.5l-1.1-.64h-12l-5.93,3.43-1.44-.19v1.43h0a.58.58,0,0,0,.33.51l17.46,10.07a1.83,1.83,0,0,0,1,.19Z"/><path class="cls-22" d="M350,177.18l-.64-.08v1.43h0a.58.58,0,0,0,.33.51l.31.17Z"/><path class="cls-27" d="M367.36,189.2a2.29,2.29,0,0,0,1.64-.11v-2.44h-1.64Z"/><path class="cls-9" d="M367.19,187.68,349.73,177.6c-.49-.28-.43-.78.14-1.11l11.88-6.86a2.16,2.16,0,0,1,1.93-.08l17.45,10.08c.5.28.44.78-.13,1.11l-11.89,6.86A2.14,2.14,0,0,1,367.19,187.68Z"/><path class="cls-24" d="M366.89,186.15l-14.51-8.38c-.41-.23-.36-.65.11-.92l6.37-3.58a1.75,1.75,0,0,1,1.6-.07L375,181.58c.41.24.35.65-.12.92l-6.37,3.58A1.75,1.75,0,0,1,366.89,186.15Z"/><path class="cls-6" d="M362.43,169.3l-.18,1.2a8.9,8.9,0,0,0,.08,3.09l.21,1.06a1.51,1.51,0,0,0,1.2,1.18h0a.82.82,0,0,0,1-.72l.29-2.58s.66.87,1,.87-.36-2.58-1.08-4S362.43,169.3,362.43,169.3Z"/><path class="cls-6" d="M368.35,150.16l-1.88,3.71a7.22,7.22,0,0,0-.76,2.81l-.82,12.68-2.46-.06-1.12-14.24a5.22,5.22,0,0,1,.07-1.31l1.27-7.22Z"/><path class="cls-5" d="M366.59,188.65l-1.46-1.91-15.39-8.91a2.16,2.16,0,0,1-.89-1.71v-12.6l-.88-1.16.83-.48h0a.55.55,0,0,1,.6,0L366.85,172a2.15,2.15,0,0,1,.9,1.71l0,13.73a.8.8,0,0,1-.32.73h0Z"/><path class="cls-23" d="M356,181.42l-1.09-.63-6-10.43v-6.84l-.88-1.16.83-.48h0a.55.55,0,0,1,.6,0L366.85,172a1.8,1.8,0,0,1,.66.77Z"/><path class="cls-22" d="M348.37,162.88l-.39-.52.83-.48h0a.55.55,0,0,1,.6,0l.31.17Z"/><path class="cls-27" d="M367,172.13a2.19,2.19,0,0,1,.73,1.47l-1.7,1-.82-1.42Z"/><path class="cls-9" d="M366,172.5l-17.44-10.1c-.49-.29-.89,0-.89.67l0,13.72a2.12,2.12,0,0,0,.9,1.71L366,188.6c.49.29.89,0,.89-.67l0-13.73A2.12,2.12,0,0,0,366,172.5Z"/><path class="cls-6" d="M374.6,175.16l-.28.58a3.91,3.91,0,0,1-1.46,1.61l-1.73,1.07a1.73,1.73,0,0,1-1.77,0l-.06,0a1.05,1.05,0,0,1-.15-1.61L371,175s-1,.78-1.31.47,1-1.35,1.91-1.39a3.6,3.6,0,0,0,1.8-.76Z"/><path class="cls-8" d="M370,133.17s-6.64,7.23-9.31,13.85a13.49,13.49,0,0,0,7.82,5.69C374.07,154.32,370,133.17,370,133.17Z"/><path class="cls-4" d="M367.27,152.28l1.08-10.39-2.54,9.74A15.24,15.24,0,0,0,367.27,152.28Z"/><path class="cls-9" d="M375,131.72l-1.78-.49a4.29,4.29,0,0,0,2.09,1.68c1.24.34,1.44-.71,1.44-.71Z"/><path class="cls-3" d="M177.07,303.18l-19.92-11.5c-1.22-.7-1.06-1.94.35-2.75l19.23-11.1a5.25,5.25,0,0,1,4.76-.2l19.92,11.5c1.22.7,1.07,1.93-.34,2.75L181.84,303A5.31,5.31,0,0,1,177.07,303.18Z"/><path class="cls-23" d="M208,280.37h0v-8.61h-19.3l-6.67-3.85a6.65,6.65,0,0,0-6,.25l-6.22,3.59H150.55v8.85a1.73,1.73,0,0,0,1,1.6l24.94,14.4a6.65,6.65,0,0,0,6-.25l24.08-13.9A2.39,2.39,0,0,0,208,280.37Z"/><path class="cls-23" d="M179.28,267.31a6.93,6.93,0,0,0-3.2.84l-6.22,3.59H150.55v8.85a1.73,1.73,0,0,0,1,1.6l24.94,14.4a5.42,5.42,0,0,0,2.77.59Z"/><path class="cls-22" d="M152.73,271.73h-2.18v8.85a1.73,1.73,0,0,0,1,1.6l1.16.67Z"/><path class="cls-22" d="M176.9,296.77a6.82,6.82,0,0,0,4.77-.06v-10H176.9Z"/><path class="cls-24" d="M176.51,287.76l-24.94-14.4c-1.53-.88-1.33-2.42.43-3.44L176.08,256a6.61,6.61,0,0,1,6-.24L207,270.16c1.53.89,1.34,2.43-.43,3.45l-24.08,13.9A6.65,6.65,0,0,1,176.51,287.76Z"/><path class="cls-22" d="M177,285.17l-20.9-12.07c-1.28-.74-1.12-2,.36-2.88l20.18-11.65a5.54,5.54,0,0,1,5-.21l20.9,12.06c1.28.74,1.12,2-.36,2.89L182,285A5.54,5.54,0,0,1,177,285.17Z"/><path class="cls-24" d="M198.84,282.64a2.23,2.23,0,0,1-1,1.74c-.56.32-1,.06-1-.58a2.21,2.21,0,0,1,1-1.74C198.39,281.74,198.84,282,198.84,282.64Z"/><path class="cls-24" d="M202.08,280.77a2.23,2.23,0,0,1-1,1.74c-.56.32-1,.06-1-.58a2.21,2.21,0,0,1,1-1.74C201.63,279.87,202.08,280.13,202.08,280.77Z"/><path class="cls-24" d="M205.32,278.9a2.23,2.23,0,0,1-1,1.74c-.56.32-1,.06-1-.58a2.21,2.21,0,0,1,1-1.74C204.87,278,205.32,278.25,205.32,278.9Z"/><path class="cls-23" d="M208,266.62h0V258h-19.3l-6.67-3.85a6.65,6.65,0,0,0-6,.25L169.86,258H150.55v8.85a1.73,1.73,0,0,0,1,1.6l24.94,14.4a6.65,6.65,0,0,0,6-.25l24.08-13.9A2.39,2.39,0,0,0,208,266.62Z"/><path class="cls-23" d="M179.28,253.56a6.93,6.93,0,0,0-3.2.84L169.86,258H150.55v8.85a1.73,1.73,0,0,0,1,1.6l24.94,14.4a5.42,5.42,0,0,0,2.77.59Z"/><path class="cls-22" d="M152.73,258h-2.18v8.85a1.73,1.73,0,0,0,1,1.6l1.16.67Z"/><path class="cls-22" d="M176.9,283a6.82,6.82,0,0,0,4.77-.06v-10H176.9Z"/><path class="cls-24" d="M176.51,274l-24.94-14.4c-1.53-.88-1.33-2.42.43-3.44l24.08-13.91a6.61,6.61,0,0,1,6-.24L207,256.41c1.53.89,1.34,2.43-.43,3.45l-24.08,13.9A6.65,6.65,0,0,1,176.51,274Z"/><path class="cls-22" d="M177,271.42l-20.9-12.07c-1.28-.74-1.12-2,.36-2.88l20.18-11.65a5.54,5.54,0,0,1,5-.21l20.9,12.06c1.28.74,1.12,2-.36,2.89L182,271.21A5.54,5.54,0,0,1,177,271.42Z"/><path class="cls-24" d="M198.84,268.89a2.23,2.23,0,0,1-1,1.74c-.56.32-1,.06-1-.58a2.21,2.21,0,0,1,1-1.74C198.39,268,198.84,268.25,198.84,268.89Z"/><path class="cls-24" d="M202.08,267a2.23,2.23,0,0,1-1,1.74c-.56.32-1,.06-1-.58a2.21,2.21,0,0,1,1-1.74C201.63,266.11,202.08,266.38,202.08,267Z"/><path class="cls-24" d="M205.32,265.15a2.23,2.23,0,0,1-1,1.74c-.56.32-1,.06-1-.58a2.21,2.21,0,0,1,1-1.74C204.87,264.24,205.32,264.5,205.32,265.15Z"/><path class="cls-23" d="M208,252.87h0v-8.61h-19.3l-6.67-3.85a6.65,6.65,0,0,0-6,.25l-6.22,3.59H150.55v8.85a1.73,1.73,0,0,0,1,1.6l24.94,14.4a6.65,6.65,0,0,0,6-.25l24.08-13.9A2.39,2.39,0,0,0,208,252.87Z"/><path class="cls-23" d="M179.28,239.81a6.93,6.93,0,0,0-3.2.84l-6.22,3.59H150.55v8.85a1.73,1.73,0,0,0,1,1.6l24.94,14.4a5.53,5.53,0,0,0,2.77.59Z"/><path class="cls-22" d="M152.73,244.23h-2.18v8.85a1.73,1.73,0,0,0,1,1.6l1.16.67Z"/><path class="cls-22" d="M176.9,269.27a6.82,6.82,0,0,0,4.77-.06v-10H176.9Z"/><path class="cls-24" d="M176.51,260.26l-24.94-14.4c-1.53-.88-1.33-2.42.43-3.44l24.08-13.91a6.61,6.61,0,0,1,6-.24L207,242.66c1.53.89,1.34,2.43-.43,3.45L182.48,260A6.65,6.65,0,0,1,176.51,260.26Z"/><path class="cls-22" d="M177,257.67l-20.9-12.07c-1.28-.74-1.12-2,.36-2.89l20.18-11.65a5.57,5.57,0,0,1,5-.2l20.9,12.06c1.28.74,1.12,2-.36,2.89L182,257.46A5.54,5.54,0,0,1,177,257.67Z"/><path class="cls-24" d="M198.84,255.14a2.23,2.23,0,0,1-1,1.74c-.56.32-1,.06-1-.58a2.21,2.21,0,0,1,1-1.74C198.39,254.24,198.84,254.5,198.84,255.14Z"/><path class="cls-24" d="M202.08,253.27a2.23,2.23,0,0,1-1,1.74c-.56.32-1,.06-1-.58a2.21,2.21,0,0,1,1-1.74C201.63,252.36,202.08,252.62,202.08,253.27Z"/><path class="cls-24" d="M205.32,251.4a2.23,2.23,0,0,1-1,1.74c-.56.32-1,.06-1-.58a2.25,2.25,0,0,1,1-1.75C204.87,250.49,205.32,250.75,205.32,251.4Z"/><path class="cls-23" d="M208,239.12h0v-8.61h-19.3l-6.67-3.85a6.65,6.65,0,0,0-6,.25l-6.22,3.59H150.55v8.85a1.73,1.73,0,0,0,1,1.6l24.94,14.4a6.65,6.65,0,0,0,6-.25l24.08-13.9A2.39,2.39,0,0,0,208,239.12Z"/><path class="cls-23" d="M179.28,226.06a6.93,6.93,0,0,0-3.2.84l-6.22,3.59H150.55v8.85a1.73,1.73,0,0,0,1,1.6l24.94,14.4a5.53,5.53,0,0,0,2.77.59Z"/><path class="cls-22" d="M152.73,230.48h-2.18v8.85a1.73,1.73,0,0,0,1,1.6l1.16.67Z"/><path class="cls-22" d="M176.9,255.52a6.82,6.82,0,0,0,4.77-.06V245.41H176.9Z"/><path class="cls-24" d="M176.51,246.51l-24.94-14.4c-1.53-.88-1.33-2.42.43-3.44l24.08-13.91a6.61,6.61,0,0,1,6-.24L207,228.91c1.53.89,1.34,2.43-.43,3.45l-24.08,13.9A6.65,6.65,0,0,1,176.51,246.51Z"/><path class="cls-22" d="M177,243.92l-20.9-12.07c-1.28-.74-1.12-2,.36-2.89l20.18-11.65a5.57,5.57,0,0,1,5-.2l20.9,12.06c1.28.74,1.12,2-.36,2.89L182,243.71A5.54,5.54,0,0,1,177,243.92Z"/><path class="cls-24" d="M198.84,241.39a2.23,2.23,0,0,1-1,1.74c-.56.32-1,.06-1-.58a2.21,2.21,0,0,1,1-1.74C198.39,240.49,198.84,240.75,198.84,241.39Z"/><path class="cls-24" d="M202.08,239.52a2.23,2.23,0,0,1-1,1.74c-.56.32-1,.06-1-.58a2.21,2.21,0,0,1,1-1.74C201.63,238.61,202.08,238.87,202.08,239.52Z"/><path class="cls-24" d="M205.32,237.65a2.23,2.23,0,0,1-1,1.74c-.56.32-1,.06-1-.58a2.25,2.25,0,0,1,1-1.75C204.87,236.74,205.32,237,205.32,237.65Z"/><path class="cls-23" d="M208,225.37h0v-8.61h-19.3l-6.67-3.85a6.65,6.65,0,0,0-6,.25l-6.22,3.59H150.55v8.85a1.74,1.74,0,0,0,1,1.6l24.94,14.4a6.65,6.65,0,0,0,6-.25l24.08-13.9A2.39,2.39,0,0,0,208,225.37Z"/><path class="cls-23" d="M179.28,212.31a6.93,6.93,0,0,0-3.2.84l-6.22,3.59H150.55v8.85a1.74,1.74,0,0,0,1,1.6l24.94,14.4a5.53,5.53,0,0,0,2.77.59Z"/><path class="cls-22" d="M152.73,216.73h-2.18v8.85a1.74,1.74,0,0,0,1,1.6l1.16.67Z"/><path class="cls-22" d="M176.9,241.77a6.82,6.82,0,0,0,4.77-.06V231.66H176.9Z"/><path class="cls-24" d="M176.51,232.76l-24.94-14.4c-1.53-.88-1.33-2.43.43-3.45L176.08,201a6.61,6.61,0,0,1,6-.24L207,215.16c1.53.89,1.34,2.43-.43,3.45l-24.08,13.9A6.65,6.65,0,0,1,176.51,232.76Z"/><path class="cls-22" d="M177,230.17l-20.9-12.07c-1.28-.74-1.12-2,.36-2.89l20.18-11.65a5.57,5.57,0,0,1,5-.2l20.9,12.06c1.28.74,1.12,2-.36,2.89L182,230A5.54,5.54,0,0,1,177,230.17Z"/><rect class="cls-9" x="187.14" y="231.01" width="11.55" height="0.41" transform="translate(-89.78 127.5) rotate(-30.01)"/><path class="cls-24" d="M198.84,227.64a2.23,2.23,0,0,1-1,1.74c-.56.32-1,.06-1-.58a2.21,2.21,0,0,1,1-1.74C198.39,226.73,198.84,227,198.84,227.64Z"/><path class="cls-24" d="M202.08,225.77a2.23,2.23,0,0,1-1,1.74c-.56.32-1,.06-1-.58a2.25,2.25,0,0,1,1-1.75C201.63,224.86,202.08,225.12,202.08,225.77Z"/><path class="cls-24" d="M205.32,223.9a2.23,2.23,0,0,1-1,1.74c-.56.32-1,.06-1-.58a2.25,2.25,0,0,1,1-1.75C204.87,223,205.32,223.25,205.32,223.9Z"/><path class="cls-23" d="M208,211.52h0v-8.6h-19.3l-6.67-3.85a6.61,6.61,0,0,0-6,.24l-6.22,3.6H150.55v8.85a1.73,1.73,0,0,0,1,1.59l24.94,14.4a6.58,6.58,0,0,0,6-.25l24.08-13.9A2.39,2.39,0,0,0,208,211.52Z"/><path class="cls-23" d="M179.28,198.46a6.93,6.93,0,0,0-3.2.84l-6.22,3.6H150.55v8.85a1.73,1.73,0,0,0,1,1.59l24.94,14.4a5.32,5.32,0,0,0,2.77.59Z"/><path class="cls-22" d="M152.73,202.89h-2.18v8.85a1.73,1.73,0,0,0,1,1.59l1.16.67Z"/><path class="cls-22" d="M176.9,227.92a6.82,6.82,0,0,0,4.77,0V217.82H176.9Z"/><path class="cls-24" d="M176.51,218.92l-24.94-14.4c-1.53-.89-1.33-2.43.43-3.45l24.08-13.9a6.65,6.65,0,0,1,6-.25L207,201.32c1.53.88,1.34,2.43-.43,3.45l-24.08,13.9A6.65,6.65,0,0,1,176.51,218.92Z"/><path class="cls-9" d="M206.56,203.07,182.48,217a6.62,6.62,0,0,1-6,.25l-24.94-14.4a2.19,2.19,0,0,1-.76-.67,1.6,1.6,0,0,0,.76,2.37l24.94,14.4a6.65,6.65,0,0,0,6-.25l24.08-13.9c1.37-.8,1.79-1.9,1.19-2.77A3.32,3.32,0,0,1,206.56,203.07Z"/><path class="cls-24" d="M198.84,213.79a2.23,2.23,0,0,1-1,1.75c-.56.32-1,.06-1-.58a2.22,2.22,0,0,1,1-1.75C198.39,212.89,198.84,213.15,198.84,213.79Z"/><path class="cls-24" d="M188.92,219.25a2.21,2.21,0,0,1-1,1.74c-.55.32-1,.06-1-.58a2.24,2.24,0,0,1,1-1.74C188.47,218.35,188.92,218.61,188.92,219.25Z"/><path class="cls-9" d="M188.92,233.52a2.21,2.21,0,0,1-1,1.74c-.55.32-1,.06-1-.58a2.24,2.24,0,0,1,1-1.74C188.47,232.61,188.92,232.87,188.92,233.52Z"/><path class="cls-24" d="M202.08,211.92a2.25,2.25,0,0,1-1,1.75c-.56.32-1,.06-1-.58a2.22,2.22,0,0,1,1-1.75C201.63,211,202.08,211.28,202.08,211.92Z"/><path class="cls-24" d="M205.32,210.05a2.26,2.26,0,0,1-1,1.75c-.56.32-1,.06-1-.59a2.21,2.21,0,0,1,1-1.74C204.87,209.15,205.32,209.41,205.32,210.05Z"/><path class="cls-22" d="M178,210l-11.67-6.74c-.72-.41-.63-1.13.2-1.61l11.26-6.51a3.12,3.12,0,0,1,2.8-.11l11.67,6.73c.71.42.63,1.14-.2,1.62l-11.27,6.5A3.1,3.1,0,0,1,178,210Z"/><path class="cls-24" d="M179.1,204.35l-1.61-.93c-.1-.06-.09-.16,0-.23l1.56-.9a.42.42,0,0,1,.38,0l1.62.93c.1.06.08.16,0,.22l-1.56.9A.45.45,0,0,1,179.1,204.35Z"/><path class="cls-23" d="M166.32,203.25l0,0a.71.71,0,0,1,.17-.11l11.26-6.51a3.12,3.12,0,0,1,2.8-.12l11.64,6.72c.66-.47.69-1.11,0-1.5L180.58,195a3.12,3.12,0,0,0-2.8.11l-11.26,6.51C165.69,202.12,165.6,202.84,166.32,203.25Z"/><path class="cls-24" d="M175.54,221c0,.67-.47.95-1.06.61a2.36,2.36,0,0,1-1.06-1.84c0-.68.48-.95,1.06-.61A2.33,2.33,0,0,1,175.54,221Z"/><path class="cls-22" d="M172.25,219.07c0,.67-.47,1-1.06.61a2.33,2.33,0,0,1-1.06-1.84c0-.68.47-1,1.06-.61A2.33,2.33,0,0,1,172.25,219.07Z"/><path class="cls-24" d="M175.54,224.93c0,.68-.47.95-1.06.61a2.36,2.36,0,0,1-1.06-1.84c0-.67.48-.95,1.06-.61A2.33,2.33,0,0,1,175.54,224.93Z"/><path class="cls-24" d="M172.25,223c0,.68-.47,1-1.06.61a2.32,2.32,0,0,1-1.06-1.83c0-.68.47-1,1.06-.62A2.33,2.33,0,0,1,172.25,223Z"/><path class="cls-24" d="M175.54,234.61c0,.68-.47,1-1.06.62a2.36,2.36,0,0,1-1.06-1.84c0-.68.48-.95,1.06-.61A2.32,2.32,0,0,1,175.54,234.61Z"/><path class="cls-24" d="M172.25,232.73c0,.67-.47,1-1.06.61a2.33,2.33,0,0,1-1.06-1.84c0-.68.47-.95,1.06-.61A2.33,2.33,0,0,1,172.25,232.73Z"/><path class="cls-22" d="M175.54,238.59c0,.68-.47.95-1.06.61a2.36,2.36,0,0,1-1.06-1.84c0-.67.48-1,1.06-.61A2.33,2.33,0,0,1,175.54,238.59Z"/><path class="cls-24" d="M172.25,236.7c0,.68-.47,1-1.06.61a2.33,2.33,0,0,1-1.06-1.84c0-.67.47-.95,1.06-.61A2.33,2.33,0,0,1,172.25,236.7Z"/><path class="cls-24" d="M175.54,248.29c0,.68-.47,1-1.06.61a2.36,2.36,0,0,1-1.06-1.84c0-.67.48-.95,1.06-.61A2.33,2.33,0,0,1,175.54,248.29Z"/><path class="cls-22" d="M172.25,246.4c0,.68-.47.95-1.06.61a2.32,2.32,0,0,1-1.06-1.83c0-.68.47-1,1.06-.62A2.33,2.33,0,0,1,172.25,246.4Z"/><path class="cls-24" d="M175.54,252.26c0,.68-.47,1-1.06.62a2.36,2.36,0,0,1-1.06-1.84c0-.68.48-.95,1.06-.61A2.32,2.32,0,0,1,175.54,252.26Z"/><path class="cls-22" d="M172.25,250.38c0,.67-.47,1-1.06.61a2.33,2.33,0,0,1-1.06-1.84c0-.68.47-1,1.06-.61A2.33,2.33,0,0,1,172.25,250.38Z"/><path class="cls-22" d="M175.54,262.1c0,.68-.47.95-1.06.61a2.36,2.36,0,0,1-1.06-1.84c0-.67.48-.95,1.06-.61A2.33,2.33,0,0,1,175.54,262.1Z"/><path class="cls-24" d="M172.25,260.21c0,.68-.47,1-1.06.61a2.32,2.32,0,0,1-1.06-1.83c0-.68.47-1,1.06-.62A2.33,2.33,0,0,1,172.25,260.21Z"/><path class="cls-24" d="M175.54,266.07c0,.68-.47.95-1.06.62a2.38,2.38,0,0,1-1.06-1.84c0-.68.48-1,1.06-.62A2.35,2.35,0,0,1,175.54,266.07Z"/><path class="cls-22" d="M172.25,264.18c0,.68-.47,1-1.06.62a2.33,2.33,0,0,1-1.06-1.84c0-.68.47-.95,1.06-.61A2.32,2.32,0,0,1,172.25,264.18Z"/><path class="cls-22" d="M175.54,275.77c0,.68-.47,1-1.06.62a2.36,2.36,0,0,1-1.06-1.84c0-.68.48-.95,1.06-.61A2.32,2.32,0,0,1,175.54,275.77Z"/><path class="cls-24" d="M172.25,273.89c0,.67-.47.95-1.06.61a2.33,2.33,0,0,1-1.06-1.84c0-.68.47-1,1.06-.61A2.33,2.33,0,0,1,172.25,273.89Z"/><path class="cls-22" d="M175.54,279.75c0,.67-.47.95-1.06.61a2.36,2.36,0,0,1-1.06-1.84c0-.67.48-.95,1.06-.61A2.33,2.33,0,0,1,175.54,279.75Z"/><path class="cls-24" d="M172.25,277.86c0,.68-.47.95-1.06.61a2.33,2.33,0,0,1-1.06-1.84c0-.67.47-.95,1.06-.61A2.33,2.33,0,0,1,172.25,277.86Z"/><path class="cls-24" d="M175.54,289.62c0,.68-.47.95-1.06.61a2.36,2.36,0,0,1-1.06-1.84c0-.67.48-.95,1.06-.61A2.33,2.33,0,0,1,175.54,289.62Z"/><path class="cls-22" d="M172.25,287.73c0,.68-.47.95-1.06.61a2.32,2.32,0,0,1-1.06-1.83c0-.68.47-.95,1.06-.62A2.35,2.35,0,0,1,172.25,287.73Z"/><path class="cls-24" d="M175.54,293.59c0,.68-.47,1-1.06.62a2.36,2.36,0,0,1-1.06-1.84c0-.68.48-.95,1.06-.61A2.32,2.32,0,0,1,175.54,293.59Z"/><path class="cls-24" d="M172.25,291.71c0,.67-.47,1-1.06.61a2.33,2.33,0,0,1-1.06-1.84c0-.68.47-1,1.06-.61A2.33,2.33,0,0,1,172.25,291.71Z"/><path class="cls-3" d="M450.87,358.18c-9.24-5.33-24.22-5.33-33.46,0s-9.24,14,0,19.32,24.22,5.34,33.46,0S460.11,363.52,450.87,358.18Zm-9,14.1a17,17,0,0,1-15.38,0c-4.25-2.45-4.25-6.42,0-8.88a17,17,0,0,1,15.38,0C446.08,365.86,446.08,369.83,441.83,372.28Z"/><path class="cls-20" d="M413.92,350.86l8.44.13a8.79,8.79,0,0,1,2.67-2.24c4.64-2.68,11.94-2.89,17-.63l5-4.72,7.72.12c-.38-.24-.77-.49-1.19-.73-10.73-6.2-28.13-6.2-38.86,0a20.6,20.6,0,0,0-4.83,3.76Z"/><polygon class="cls-21" points="454.76 331.27 454.76 343.52 447.04 343.4 447.04 331.15 454.76 331.27"/><polygon class="cls-20" points="442.02 335.87 442.02 348.12 447.04 343.4 447.04 331.15 442.02 335.87"/><path class="cls-20" d="M422.36,338.73V351l11.1-9.05,8.56,6.18V335.86L434.14,332s-10.85,3.32-11.41,3.46S422.36,338.73,422.36,338.73Z"/><polygon class="cls-20" points="413.92 338.6 413.92 350.86 422.36 350.99 422.36 338.73 413.92 338.6"/><polygon class="cls-21" points="409.88 334.3 409.88 346.55 413.92 350.86 413.92 338.6 409.88 334.3"/><path class="cls-1" d="M413.92,338.6l8.44.13a9.08,9.08,0,0,1,2.67-2.24c4.64-2.68,11.94-2.89,17-.63l5-4.71,7.72.12c-.38-.25-.77-.5-1.19-.74-10.73-6.19-28.13-6.19-38.86,0a20.36,20.36,0,0,0-4.83,3.77Z"/><path class="cls-19" d="M444.56,337.37v11.27l7.31-1.75s-.43-6.59-.59-6.77S444.56,337.37,444.56,337.37Z"/><path class="cls-19" d="M439,348.64V360.9l.79.84,5.15-3s-.79-9.36-.89-9.55A48.28,48.28,0,0,0,439,348.64Z"/><path class="cls-19" d="M449,345.47l-4.42,4.16c3.68,2.91,3.25,7-1.3,9.64A16,16,0,0,1,439,360.9l4.57,4.86-4,3.8a36.66,36.66,0,0,0,14-4.33c9.23-5.33,10.51-13.5,3.88-19.62Z"/><polygon class="cls-19" points="439.56 357.31 439.56 369.56 449.57 365.69 461.62 354.2 461.57 341.19 448.83 351.29 439.56 357.31"/><path class="cls-2" d="M449,333.22l-4.42,4.15c3.68,2.91,3.25,7-1.3,9.64a15.64,15.64,0,0,1-4.23,1.63l4.57,4.86-4,3.81a36.84,36.84,0,0,0,14-4.34c9.23-5.33,10.51-13.49,3.88-19.62Z"/><path class="cls-11" d="M439.52,365.7l-4-4.29A19.22,19.22,0,0,1,425,359.27c-3-1.71-4.18-4-3.66-6.26l-9.58-.15-3.69-3.92c-3.22,5.53-1,11.88,6.61,16.29,5.61,3.23,13,4.78,20.38,4.63Z"/><polygon class="cls-11" points="435.09 357.61 435.09 369.86 406.67 354.11 406.67 341.85 410.82 343.52 435.09 357.61"/><polygon class="cls-8" points="439.52 353.44 439.52 365.69 435.09 369.86 435.09 357.61 439.52 353.44"/><path class="cls-7" d="M439.52,353.44l-4-4.29A19.13,19.13,0,0,1,425,347c-3-1.7-4.18-4-3.66-6.25l-9.58-.15-3.69-3.93c-3.22,5.53-1,11.88,6.61,16.29,5.61,3.24,13,4.78,20.38,4.63Z"/><path class="cls-19" d="M208,170.21l-21.7-12.53a1.15,1.15,0,0,0-1.12-.09h0L183,158.8l1.48.54v15.8a4.18,4.18,0,0,0,1.75,3.34l20.74,12v1.85l2.13-1.22h0a1.55,1.55,0,0,0,.59-1.4V173.55A4.19,4.19,0,0,0,208,170.21Z"/><path class="cls-2" d="M205.82,192.24l-21.7-12.53a4.19,4.19,0,0,1-1.74-3.34V160.24c0-1.29.78-1.88,1.74-1.32l21.7,12.53a4.16,4.16,0,0,1,1.75,3.33v16.14C207.57,192.21,206.79,192.8,205.82,192.24Z"/><path class="cls-9" d="M191.42,174.15c0,.93-.65,1.31-1.46.85a3.26,3.26,0,0,1-1.47-2.54c0-.93.66-1.31,1.47-.85A3.25,3.25,0,0,1,191.42,174.15Z"/><path class="cls-9" d="M195.86,176.71c0,.94-.66,1.31-1.47.85a3.25,3.25,0,0,1-1.46-2.54c0-.93.65-1.31,1.46-.84A3.22,3.22,0,0,1,195.86,176.71Z"/><path class="cls-9" d="M200.29,179.27c0,.94-.65,1.31-1.46.85a3.24,3.24,0,0,1-1.47-2.54c0-.93.66-1.31,1.47-.84A3.21,3.21,0,0,1,200.29,179.27Z"/><path class="cls-22" d="M195.62,149.92l-21.7-12.53a1.15,1.15,0,0,0-1.12-.09h0l-2.11,1.22,1.48.54v15.8a4.18,4.18,0,0,0,1.75,3.34l20.74,12V172l2.13-1.23h0a1.55,1.55,0,0,0,.59-1.39V153.26A4.19,4.19,0,0,0,195.62,149.92Z"/><path class="cls-24" d="M193.47,172l-21.7-12.53a4.17,4.17,0,0,1-1.74-3.33V140c0-1.29.78-1.88,1.74-1.32l21.7,12.53a4.18,4.18,0,0,1,1.75,3.34v16.13C195.22,171.92,194.44,172.51,193.47,172Z"/><path class="cls-9" d="M179.07,153.86c0,.94-.65,1.31-1.46.85a3.26,3.26,0,0,1-1.47-2.54c0-.93.66-1.31,1.47-.84A3.21,3.21,0,0,1,179.07,153.86Z"/><path class="cls-9" d="M183.51,156.42c0,.94-.66,1.32-1.47.85a3.23,3.23,0,0,1-1.46-2.54c0-.93.65-1.31,1.46-.84A3.22,3.22,0,0,1,183.51,156.42Z"/><path class="cls-9" d="M187.94,159c0,.94-.65,1.32-1.46.85a3.24,3.24,0,0,1-1.47-2.54c0-.93.66-1.31,1.47-.84A3.21,3.21,0,0,1,187.94,159Z"/><path class="cls-21" d="M140.8,321.83,119.1,309.3a1.11,1.11,0,0,0-1.13-.09h0l-2.11,1.21,1.48.54v15.81a4.17,4.17,0,0,0,1.75,3.33l20.74,12v1.85L142,342.7h0a1.55,1.55,0,0,0,.59-1.39V325.16A4.17,4.17,0,0,0,140.8,321.83Z"/><path class="cls-20" d="M142,342.7h0a1.55,1.55,0,0,0,.59-1.39V325.16a4.26,4.26,0,0,0-.48-1.88l-17.38,10,15.16,8.76v1.85Z"/><path class="cls-1" d="M138.65,343.86,117,331.33a4.19,4.19,0,0,1-1.74-3.34V311.85c0-1.28.78-1.87,1.74-1.32l21.7,12.53a4.18,4.18,0,0,1,1.75,3.34v16.14C140.4,343.82,139.62,344.41,138.65,343.86Z"/><rect class="cls-22" x="385.84" y="320.96" width="5.47" height="11.8" transform="translate(887.45 232.31) rotate(129.2)"/><path class="cls-22" d="M392.78,332.79a4.27,4.27,0,0,0,2.45-3c.2-1.22-.58-1.85-1.73-1.41a4.26,4.26,0,0,0-2.44,3C390.86,332.59,391.63,333.22,392.78,332.79Z"/><rect class="cls-22" x="376.5" y="314.6" width="8.86" height="12.05" transform="translate(870.15 228.06) rotate(129.2)"/><path class="cls-23" d="M387.23,322.24l3.09,2.52a7,7,0,0,1-3.45,4.24l-3.1-2.53A7.1,7.1,0,0,1,387.23,322.24Z"/><ellipse class="cls-22" cx="385.6" cy="324.43" rx="4.43" ry="2.56" transform="translate(-109.52 418.22) rotate(-50.8)"/><path class="cls-22" d="M375.68,320.38a6.9,6.9,0,0,0,3.95-4.85c.32-2-.93-3-2.8-2.29a6.92,6.92,0,0,0-4,4.85C372.55,320.07,373.81,321.09,375.68,320.38Z"/><path class="cls-24" d="M375.93,318.83a3.93,3.93,0,0,0,2.24-2.75c.18-1.11-.53-1.69-1.59-1.29a3.9,3.9,0,0,0-2.24,2.75C374.16,318.65,374.87,319.23,375.93,318.83Z"/><path class="cls-24" d="M392.81,329.32c.45.36.89.2,1-.37a2,2,0,0,0-.64-1.7c-.45-.36-.89-.2-1,.37A2,2,0,0,0,392.81,329.32Z"/><path class="cls-22" d="M307.08,412.68a8.39,8.39,0,0,1-4.32-1.22L296.89,408a.66.66,0,0,1-.23-.91.65.65,0,0,1,.9-.23l5.87,3.47a7.06,7.06,0,0,0,10.69-6.55L314,402c-2.06-29-5.9-82.86,16.82-88.68a176,176,0,0,0,17.1-5.32c11.66-4.17,12.46-3.94,28.53,8.2a.66.66,0,1,1-.8,1.05c-16-12.05-16.17-12-27.29-8a174.92,174.92,0,0,1-17.21,5.35c-21.64,5.54-17.86,58.73-15.83,87.3l.12,1.78a8.23,8.23,0,0,1-4,7.74A8.34,8.34,0,0,1,307.08,412.68Z"/><ellipse class="cls-3" cx="351.65" cy="411.02" rx="21.49" ry="12.41"/><path class="cls-5" d="M361.9,405.7a3.33,3.33,0,0,1,1.87,3.32,5.81,5.81,0,0,1-.27,1.62,2.72,2.72,0,0,1-3.66,1.12c-2-.8-6.49-5-6.66-7.75C352.87,398.89,358.71,404.34,361.9,405.7Z"/><path class="cls-5" d="M350.06,414.16a15,15,0,0,1,.25,3.48,3.8,3.8,0,0,1-3.71,1.45c-2.07-.25-8-2.31-9.36-6.24-2.06-6.09,11.51.46,11.51.46Z"/><path class="cls-1" d="M344.24,367l-.46,46a3.21,3.21,0,0,0,2.5,3.19l.56.07a2.9,2.9,0,0,0,2.74-1.13,3.41,3.41,0,0,0,.61-1.86l.59-19.64,2.93-17.56,4.06,31.08a2.7,2.7,0,0,0,1.11,2.05,3.2,3.2,0,0,0,1.85.5,3.43,3.43,0,0,0,2.46-1.21,2.47,2.47,0,0,0,.59-1.67l-1.61-18.7-.6-23.86Z"/><path class="cls-6" d="M350.2,325.85l.72,4.19a1.92,1.92,0,0,1-1.57,1.83c-1.59.39-2.09-.64-2.09-.64l-.72-4.72Z"/><path class="cls-6" d="M341.67,326c2.67,2.66,6.74,2.88,9.1.5s2.11-6.47-.56-9.13-6.74-2.88-9.1-.5S339,323.31,341.67,326Z"/><path class="cls-8" d="M350,330.12c.11-.05,6.77-4.34,9.24.15,4,7.32,3.78,30.9,2.51,34-1.17,2.82-4.11,4.91-6.16,6.08a12.41,12.41,0,0,1-6,1.7c-2.08,0-6.08-1.83-5.93-4.56.66-12.52-.44-23.08-1.47-33.33C342.22,334.12,343.5,332.75,350,330.12Z"/><path class="cls-12" d="M353.71,376.12l4.06,31.08a2.7,2.7,0,0,0,1.11,2.05,3.9,3.9,0,0,0,.35.19c-.84-.63-3.3-26.72-3.76-29.62S353.71,376.12,353.71,376.12Z"/><polygon class="cls-6" points="328.69 331.5 325.07 319.63 326.98 318.84 331.25 328.14 328.69 331.5"/><polygon class="cls-6" points="365.2 322.15 362.49 309.8 360.33 309.82 361.14 320.06 365.2 322.15"/><path class="cls-8" d="M342.22,334.12s-6.5,1.3-10.64-6.27a1,1,0,0,0-1.72-.19,5.37,5.37,0,0,0-1.09,4.24c2,7.4,13,9,14.92,13.34S342.22,334.12,342.22,334.12Z"/><path class="cls-8" d="M354.23,328.58s5.16.39,5.9-4.07a34.38,34.38,0,0,0,.52-4.46.89.89,0,0,1,1-.87c1.23.15,3.14.52,3.4,1.35.39,1.23,1.12,7.29-4,16.58C357.75,343.2,354.23,328.58,354.23,328.58Z"/><path class="cls-6" d="M362.5,309.83l-.05-1.41A2.93,2.93,0,0,0,362,307l-1.43-2.34-.37-.47a1.09,1.09,0,0,0-1.43-.25l-.33.21a1.32,1.32,0,0,0-.62,1.23l.73,2-.93-.18a.34.34,0,0,0-.39.27h0a.32.32,0,0,0,.2.36l1.53.62,1.38,2Z"/><path class="cls-6" d="M325,319.7l-.43-1.34a2.93,2.93,0,0,1-.08-1.47l.55-2.69.19-.57a1.08,1.08,0,0,1,1.26-.71l.38.08a1.34,1.34,0,0,1,1,.94v2.14l.82-.49a.33.33,0,0,1,.45.12h0a.33.33,0,0,1-.06.41l-1.23,1.1-.71,2.6Z"/><path class="cls-14" d="M345.27,343.1c.6,2.71-1.07,23.71,4.35,28.91-2.08,0-6.08-1.83-5.93-4.56a167.21,167.21,0,0,0-.5-23c-2.13-2.75-8-4.51-11.63-8C331.83,336.46,344.68,340.42,345.27,343.1Z"/><path class="cls-9" d="M352.4,328.93l-.92-.95a7.6,7.6,0,0,1-2.75,1.83,14.88,14.88,0,0,1-2.19.45l-.6,1.64S350.79,331.56,352.4,328.93Z"/><path class="cls-5" d="M345.57,324.06a.77.77,0,0,1-.71,0c-.4-.21-1-1.78-1.86-1.66-1.28.18-3.13,2.87-5.45-.88-1.2-2-.49-3-1.08-4.12,0,0,.21.6,5.24-2.47s9.15.68,10.42,2.82,2.1,6.32-1.2,8.68c-.55.39-4.07-.31-4.14-.6s.87-.77.34-1.46A1.11,1.11,0,0,0,345.57,324.06Z"/><polygon class="cls-20" points="115.87 310.41 127.8 327.19 139.92 324.51 127.55 328.54 115.87 310.41"/><polygon class="cls-20" points="129.21 327.72 130.22 327.43 139.84 343.92 129.21 327.72"/><polygon class="cls-20" points="126.66 326.71 115.95 330.33 126.11 325.77 126.66 326.71"/><path class="cls-19" d="M121.31,311.87a13,13,0,0,0-5.86-10.15,4.17,4.17,0,0,0-4.06-.45h0l-.06,0,0,0-2,1.18,1-.06a5.2,5.2,0,0,0-.63,2.66,13,13,0,0,0,5.86,10.15,5.51,5.51,0,0,0,2.4.78l-.45.89,2.12-1.23.13-.08.1-.05h0A4.18,4.18,0,0,0,121.31,311.87Z"/><path class="cls-2" d="M119.19,313.09c0,3.73-2.63,5.25-5.86,3.38a13,13,0,0,1-5.86-10.15c0-3.73,2.63-5.24,5.86-3.38A13,13,0,0,1,119.19,313.09Z"/><path class="cls-9" d="M113.24,313.43a3.62,3.62,0,0,1-.79-.62,2.38,2.38,0,0,1-.51-.75,3.53,3.53,0,0,1-.25-.84,5.68,5.68,0,0,1-.08-1l1.08.62c0,.2,0,.37,0,.52a2.31,2.31,0,0,0,.08.43,1.17,1.17,0,0,0,.18.39,1,1,0,0,0,.31.27.51.51,0,0,0,.22.07.36.36,0,0,0,.15,0,.33.33,0,0,0,.1-.14,1.15,1.15,0,0,0,.06-.21,1,1,0,0,0,0-.29c0-.14,0-.25,0-.34s0-.22,0-.39,0-.34,0-.47,0-.27,0-.41a1.54,1.54,0,0,0-.09-.37,1.47,1.47,0,0,0-.18-.28,1,1,0,0,0-.27-.23.38.38,0,0,0-.38,0,.52.52,0,0,0-.23.34l-.94-.55.05-4.08,2.91,1.68v1.16l-2-1.14-.06,1.71a.47.47,0,0,1,.35-.06,1.45,1.45,0,0,1,.5.18,2.16,2.16,0,0,1,.65.51,2.51,2.51,0,0,1,.45.71,4.75,4.75,0,0,1,.25.86,6.2,6.2,0,0,1,.08,1c0,.33,0,.61,0,.85a3.2,3.2,0,0,1-.15.66.82.82,0,0,1-.3.42.62.62,0,0,1-.48.09A1.94,1.94,0,0,1,113.24,313.43Z"/><path class="cls-2" d="M243.13,149.74a10.4,10.4,0,1,1,10.39-10.4A10.42,10.42,0,0,1,243.13,149.74Zm0-18.52a8.13,8.13,0,1,0,8.13,8.12A8.13,8.13,0,0,0,243.13,131.22Z"/><path class="cls-1" d="M208.7,403.86a7.37,7.37,0,1,1,7.37-7.37A7.38,7.38,0,0,1,208.7,403.86Zm0-12.47a5.1,5.1,0,1,0,5.1,5.1A5.1,5.1,0,0,0,208.7,391.39Z"/><path class="cls-2" d="M274.48,96.2l-5-10.17,10.17-5,5,10.17Zm-2-9.14,3,6.11,6.11-3-3-6.11Z"/><rect class="cls-11" x="445.67" y="89.03" width="10.77" height="2.27" transform="translate(68.36 345.37) rotate(-45)"/><rect class="cls-11" x="449.92" y="84.78" width="2.27" height="10.77" transform="translate(68.35 345.36) rotate(-45)"/><circle class="cls-1" cx="233.87" cy="146.19" r="7.51"/><path class="cls-1" d="M138.61,256.41a5.51,5.51,0,1,1-5.51-5.51A5.51,5.51,0,0,1,138.61,256.41Z"/><path class="cls-2" d="M200.8,407a4.42,4.42,0,1,1-4.42-4.42A4.42,4.42,0,0,1,200.8,407Z"/><path class="cls-11" d="M535.74,239.28a2.51,2.51,0,1,1-1.46-3.24A2.52,2.52,0,0,1,535.74,239.28Z"/><rect class="cls-1" x="517.14" y="218.46" width="10.47" height="10.47" transform="translate(112.51 -169.91) rotate(20.66)"/></svg>