<svg width="243" height="46" viewBox="0 0 243 46" fill="none" xmlns="http://www.w3.org/2000/svg">
<path d="M13.9414 11.3345C13.7217 7.89209 12.0811 6.16357 9.01953 6.14893C7.21777 6.14893 5.97998 6.69092 5.30615 7.7749C4.99854 8.27295 4.84473 8.90283 4.84473 9.66455C4.84473 10.5142 5.29883 11.3491 6.20703 12.1694L6.93213 12.8066L11.832 16.9595C14.7471 19.4937 16.2119 22.2769 16.2266 25.3091C16.2266 27.2573 15.3843 28.8174 13.6997 29.9893C12.0151 31.1465 10.0962 31.7251 7.94287 31.7251C6.56592 31.7251 5.48193 31.5347 4.69092 31.1538C3.8999 30.7729 3.38721 30.5239 3.15283 30.4067C2.93311 30.2896 2.51562 30.0112 1.90039 29.5718L0.977539 28.9126V24.9795C0.977539 23.6904 1.43164 22.7163 2.33984 22.0571C3.24805 21.3833 4.29541 21.0464 5.48193 21.0464C6.66846 21.0464 7.65723 21.2368 8.44824 21.6177C9.22461 22.0132 9.62012 22.5259 9.63477 23.1558V23.1997C9.63477 23.8149 9.32715 24.2178 8.71191 24.4082C8.56543 24.4521 8.41162 24.4741 8.25049 24.4741C7.72314 24.4741 7.37158 24.2617 7.1958 23.8369C7.03467 23.4121 6.94678 23.1851 6.93213 23.1558C6.63916 22.7456 6.06055 22.5405 5.19629 22.5405C3.95117 22.5405 3.18945 23.1338 2.91113 24.3203C2.85254 24.5547 2.82324 24.7744 2.82324 24.9795C2.82324 27.1914 3.63623 28.7148 5.26221 29.5498C6.03857 29.9453 6.94678 30.1431 7.98682 30.1431C10.3745 30.1431 12.0005 29.3374 12.8647 27.7261C13.2163 27.0669 13.3921 26.3784 13.3921 25.6606C13.3921 24.4302 12.8208 23.0166 11.6782 21.4199C11.1069 20.6143 10.5137 19.9624 9.89844 19.4644L5.87744 16.2124C4.06104 14.7183 2.94043 13.5244 2.51562 12.6309C2.10547 11.7227 1.90039 10.8877 1.90039 10.126C1.90039 8.36816 2.61816 7.01318 4.05371 6.06104C5.48926 5.09424 7.18115 4.61084 9.12939 4.61084C11.3706 4.61084 13.4727 5.21875 15.4355 6.43457L15.4136 11.3345H13.9414ZM28.3115 15.0259H23.7412V23.771C23.7412 25.0308 23.7559 26.2173 23.7852 27.3306C23.8145 28.4292 23.9829 29.1836 24.2905 29.5938C24.6128 29.9893 25.0742 30.187 25.6748 30.187C26.7441 30.187 27.8867 29.894 29.1025 29.3081V30.4946C27.5498 31.3149 26.2241 31.7251 25.1255 31.7251C24.0854 31.7251 23.2798 31.5493 22.7085 31.1978C22.1519 30.8608 21.7417 30.4214 21.478 29.8794C21.229 29.3228 21.0825 28.7002 21.0386 28.0117C20.9946 27.3232 20.9727 26.6348 20.9727 25.9463V16.52C20.9727 16.1978 20.9653 15.9487 20.9507 15.7729C20.9507 15.5972 20.9214 15.4434 20.8628 15.3115C20.8188 15.1797 20.7017 15.0991 20.5112 15.0698C20.3208 15.0405 20.0352 15.0259 19.6543 15.0259H18.4238V13.9932C19.8301 13.3926 20.7969 12.814 21.3242 12.2573C21.8516 11.7007 22.4155 10.7339 23.0161 9.35693H23.7412V13.3779H28.3115V15.0259ZM30.5747 14.2129V13.334H35.6064V22.5186C35.6064 22.7236 35.5845 23.4268 35.5405 24.6279C35.4233 28.041 36.6172 29.7622 39.1221 29.7915C40.5137 29.7915 41.7222 29.2349 42.7476 28.1216C43.7729 27.0083 44.2856 25.7485 44.2856 24.3423V19.0029C44.2856 17.0547 44.1978 15.8169 44.022 15.2896C43.7876 14.5864 42.9526 14.2349 41.5171 14.2349V13.334H47.0103V26.2319C47.0103 27.8286 47.3398 28.7808 47.999 29.0884C48.3066 29.2202 48.8926 29.2642 49.7568 29.2202L49.8667 29.9893L45.0767 31.6372L44.2856 28.7368L43.5605 29.4399C41.8467 30.9194 40.0449 31.6665 38.1553 31.6812C35.8115 31.6812 34.2661 30.7876 33.519 29.0005C33.0796 27.9458 32.8599 26.5103 32.8599 24.6938V17.8164C32.8599 16.0146 32.4863 14.8721 31.7393 14.3887C31.4023 14.1836 31.0142 14.125 30.5747 14.2129ZM52.7671 23.1558C52.7671 18.981 54.166 16.0293 56.9639 14.3008C58.4727 13.3779 60.1426 12.9165 61.9736 12.9165C63.0576 12.9165 64.1562 13.1436 65.2695 13.5977L65.7969 13.8174V5.46777C65.7969 4.45703 65.7529 3.8418 65.665 3.62207C65.46 3.10938 64.6396 2.85303 63.2041 2.85303L63.0942 2.10596L68.4995 0.743652V28.3413C68.4995 29.3374 69.0049 29.8354 70.0156 29.8354C70.0889 29.8354 70.3892 29.8062 70.9165 29.7476C71.4585 29.6743 71.7515 29.6377 71.7954 29.6377V30.5386L66.6978 31.7251L65.9067 29.5059C65.8774 29.5205 65.8042 29.5791 65.687 29.6816C64.0317 31.0439 62.3911 31.7251 60.7651 31.7251C57.3813 31.7251 55.0303 30.3408 53.7119 27.5723C53.082 26.2246 52.7671 24.7524 52.7671 23.1558ZM55.6016 22.0571C55.6016 25.104 56.312 27.2939 57.7329 28.627C58.6558 29.4766 59.7983 29.9087 61.1606 29.9233C62.5376 29.9233 63.6509 29.5352 64.5005 28.7588C64.896 28.3926 65.3062 27.9238 65.731 27.3525V16.0586C65.394 15.3701 64.6909 14.8794 63.6216 14.5864C63.1235 14.4546 62.5889 14.3887 62.0176 14.3887C59.7764 14.3887 58.0479 15.48 56.832 17.6626C56.041 19.1274 55.6309 20.5923 55.6016 22.0571ZM81.9248 12.8506C84.7373 12.8506 86.5024 13.9492 87.2202 16.1465C87.5425 17.1426 87.6304 18.1167 87.4839 19.0688H76.959C76.7686 20.1235 76.6733 21.105 76.6733 22.0132C76.6733 25.104 77.5962 27.2134 79.4419 28.3413C80.4233 28.9419 81.6025 29.2422 82.9795 29.2422C84.415 29.2422 85.8579 28.7148 87.3081 27.6602L87.9453 28.3193L87.3301 29.0444C85.6602 30.7876 83.6826 31.6665 81.3975 31.6812C80.0352 31.6812 78.7754 31.271 77.6182 30.4507C75.2891 28.7954 74.1245 26.2905 74.1245 22.936C74.1245 19.3911 75.1133 16.7031 77.0908 14.8721C78.585 13.5684 80.1963 12.8945 81.9248 12.8506ZM77.1787 17.6406H84.6494C84.6494 16.4834 84.3857 15.6265 83.8584 15.0698C83.3311 14.4985 82.6572 14.2129 81.8369 14.2129C80.5625 14.2129 79.5225 14.5938 78.7168 15.3555C77.9111 16.1025 77.3984 16.8643 77.1787 17.6406ZM101.92 14.894C99.8252 14.894 97.9868 15.4507 96.4048 16.564V26.4077C96.4048 27.7554 96.5 28.6343 96.6904 29.0444C96.8809 29.4399 97.3276 29.7109 98.0308 29.8574L99.3271 30.0991V31H90.9995V30.0771L92.5156 29.7476C93.0576 29.6304 93.3945 29.4619 93.5264 29.2422C93.6436 28.9932 93.7021 28.4585 93.7021 27.6382V17.7505C93.7021 16.6958 93.6069 16.0293 93.4165 15.751C93.0649 15.3555 92.2959 15.1504 91.1094 15.1357L90.9995 14.3887L96.4048 13.0264V14.96C98.895 13.5977 101.026 12.9165 102.799 12.9165C105.025 12.9165 106.527 13.9126 107.303 15.9048C107.684 16.8716 107.875 18.0508 107.875 19.4424V26.4517C107.875 27.7993 107.97 28.6782 108.16 29.0884C108.365 29.4839 108.805 29.7476 109.479 29.8794L110.775 30.1431V31H102.469V30.0991L103.963 29.7915C104.52 29.6743 104.857 29.4985 104.974 29.2642C105.091 29.0151 105.15 28.4805 105.15 27.6602V20.1455C105.121 16.6738 104.044 14.9233 101.92 14.894ZM122.267 15.0259H117.696V23.771C117.696 25.0308 117.711 26.2173 117.74 27.3306C117.77 28.4292 117.938 29.1836 118.246 29.5938C118.568 29.9893 119.029 30.187 119.63 30.187C120.699 30.187 121.842 29.894 123.058 29.3081V30.4946C121.505 31.3149 120.179 31.7251 119.081 31.7251C118.041 31.7251 117.235 31.5493 116.664 31.1978C116.107 30.8608 115.697 30.4214 115.433 29.8794C115.184 29.3228 115.038 28.7002 114.994 28.0117C114.95 27.3232 114.928 26.6348 114.928 25.9463V16.52C114.928 16.1978 114.92 15.9487 114.906 15.7729C114.906 15.5972 114.876 15.4434 114.818 15.3115C114.774 15.1797 114.657 15.0991 114.466 15.0698C114.276 15.0405 113.99 15.0259 113.609 15.0259H112.379V13.9932C113.785 13.3926 114.752 12.814 115.279 12.2573C115.807 11.7007 116.371 10.7339 116.971 9.35693H117.696V13.3779H122.267V15.0259ZM126.661 6.03906C125.196 6.03906 124.457 5.52637 124.442 4.50098C124.442 3.72461 124.823 3.18994 125.584 2.89697C125.848 2.80908 126.104 2.75781 126.354 2.74316C127.13 2.74316 127.745 3.02148 128.199 3.57812C128.668 4.13477 128.99 4.48633 129.166 4.63281C129.356 4.7793 129.635 4.85254 130.001 4.85254H137.757V5.81934L136.263 6.14893C135.736 6.26611 135.421 6.43457 135.318 6.6543C135.23 6.85937 135.187 7.39404 135.187 8.2583V27.6382C135.187 28.5757 135.252 29.1323 135.384 29.3081C135.516 29.4692 135.809 29.6011 136.263 29.7036L137.757 30.0332V31H129.232V30.0771L130.506 29.8135C131.297 29.6523 131.781 29.3301 131.957 28.8467C132.132 28.3633 132.22 27.543 132.22 26.3857V8.85156C132.191 7.31348 131.817 6.42725 131.1 6.19287C130.88 6.11963 130.594 6.08301 130.243 6.08301L126.661 6.03906ZM151.798 14.894C149.703 14.894 147.865 15.4507 146.283 16.564V26.4077C146.283 27.7554 146.378 28.6343 146.568 29.0444C146.759 29.4399 147.206 29.7109 147.909 29.8574L149.205 30.0991V31H140.877V30.0771L142.394 29.7476C142.936 29.6304 143.272 29.4619 143.404 29.2422C143.521 28.9932 143.58 28.4585 143.58 27.6382V17.7505C143.58 16.6958 143.485 16.0293 143.294 15.751C142.943 15.3555 142.174 15.1504 140.987 15.1357L140.877 14.3887L146.283 13.0264V14.96C148.773 13.5977 150.904 12.9165 152.677 12.9165C154.903 12.9165 156.405 13.9126 157.181 15.9048C157.562 16.8716 157.752 18.0508 157.752 19.4424V26.4517C157.752 27.7993 157.848 28.6782 158.038 29.0884C158.243 29.4839 158.683 29.7476 159.356 29.8794L160.653 30.1431V31H152.347V30.0991L153.841 29.7915C154.398 29.6743 154.735 29.4985 154.852 29.2642C154.969 29.0151 155.028 28.4805 155.028 27.6602V20.1455C154.999 16.6738 153.922 14.9233 151.798 14.894ZM163.597 14.9819V13.9053L166.278 13.334V9.29102C166.307 3.57812 168.49 0.714355 172.826 0.699707C174.027 0.699707 175.125 0.890137 176.122 1.271C177.088 1.68115 177.572 2.23779 177.572 2.94092C177.586 3.62939 177.33 4.07617 176.803 4.28125C176.627 4.33984 176.451 4.37646 176.275 4.39111C175.631 4.37646 174.986 3.95898 174.342 3.13867C173.697 2.30371 173.053 1.88623 172.408 1.88623C171.251 1.88623 170.372 2.28174 169.771 3.07275C169.186 3.84912 168.893 5.12354 168.893 6.896V13.334H173.551V14.9819H168.893V25.9463C168.893 27.3086 169.01 28.2461 169.244 28.7588C169.522 29.3594 170.467 29.8354 172.079 30.187V31H163.619V30.187C163.707 30.1577 164.007 30.0771 164.52 29.9453C165.677 29.6523 166.263 28.7954 166.278 27.3745V14.9819H163.597ZM175.111 22.5845C175.111 19.9185 175.873 17.6626 177.396 15.8169C178.919 13.9565 180.772 13.0264 182.955 13.0264C185.167 13.0264 187.101 13.8906 188.756 15.6191C190.411 17.3477 191.239 19.5229 191.239 22.145C191.239 24.7671 190.521 26.9497 189.085 28.6929C187.43 30.6997 185.526 31.7031 183.373 31.7031C181.073 31.7178 179.125 30.8608 177.528 29.1323C175.931 27.3892 175.125 25.2065 175.111 22.5845ZM182.625 14.6743C181.073 14.6743 179.879 15.3774 179.044 16.7837C178.209 18.1899 177.792 19.9404 177.792 22.0352C177.792 24.1152 178.319 25.9756 179.374 27.6162C180.443 29.2422 181.849 30.0625 183.592 30.0771C185.218 30.0771 186.434 29.3667 187.24 27.9458C188.06 26.5103 188.47 24.8257 188.47 22.8921C188.47 20.8267 187.972 18.9443 186.976 17.2451C185.98 15.5459 184.53 14.689 182.625 14.6743ZM207.433 11.3345C207.213 7.89209 205.572 6.16357 202.511 6.14893C200.709 6.14893 199.471 6.69092 198.797 7.7749C198.49 8.27295 198.336 8.90283 198.336 9.66455C198.336 10.5142 198.79 11.3491 199.698 12.1694L200.423 12.8066L205.323 16.9595C208.238 19.4937 209.703 22.2769 209.718 25.3091C209.718 27.2573 208.875 28.8174 207.191 29.9893C205.506 31.1465 203.587 31.7251 201.434 31.7251C200.057 31.7251 198.973 31.5347 198.182 31.1538C197.391 30.7729 196.878 30.5239 196.644 30.4067C196.424 30.2896 196.007 30.0112 195.392 29.5718L194.469 28.9126V24.9795C194.469 23.6904 194.923 22.7163 195.831 22.0571C196.739 21.3833 197.787 21.0464 198.973 21.0464C200.16 21.0464 201.148 21.2368 201.939 21.6177C202.716 22.0132 203.111 22.5259 203.126 23.1558V23.1997C203.126 23.8149 202.818 24.2178 202.203 24.4082C202.057 24.4521 201.903 24.4741 201.742 24.4741C201.214 24.4741 200.863 24.2617 200.687 23.8369C200.526 23.4121 200.438 23.1851 200.423 23.1558C200.13 22.7456 199.552 22.5405 198.688 22.5405C197.442 22.5405 196.681 23.1338 196.402 24.3203C196.344 24.5547 196.314 24.7744 196.314 24.9795C196.314 27.1914 197.127 28.7148 198.753 29.5498C199.53 29.9453 200.438 30.1431 201.478 30.1431C203.866 30.1431 205.492 29.3374 206.356 27.7261C206.708 27.0669 206.883 26.3784 206.883 25.6606C206.883 24.4302 206.312 23.0166 205.169 21.4199C204.598 20.6143 204.005 19.9624 203.39 19.4644L199.369 16.2124C197.552 14.7183 196.432 13.5244 196.007 12.6309C195.597 11.7227 195.392 10.8877 195.392 10.126C195.392 8.36816 196.109 7.01318 197.545 6.06104C198.98 5.09424 200.672 4.61084 202.621 4.61084C204.862 4.61084 206.964 5.21875 208.927 6.43457L208.905 11.3345H207.433ZM211.52 14.3447V13.334H219.056V14.3447C217.899 14.3447 217.328 14.7402 217.342 15.5312C217.357 15.9414 217.496 16.498 217.76 17.2012L221.693 27.5723C222.616 25.4189 223.546 23.0752 224.483 20.541L226.131 16.0366C226.439 15.1577 226.19 14.623 225.384 14.4326C225.106 14.374 224.762 14.3447 224.352 14.3447V13.334H231.009V14.3447C229.955 14.374 229.222 14.6816 228.812 15.2676C228.636 15.5312 227.955 17.1865 226.769 20.2334C225.597 23.2803 223.832 27.499 221.473 32.8896C219.129 38.2949 217.804 41.2759 217.496 41.8325C216.515 43.605 215.379 44.7476 214.09 45.2603C213.373 45.4946 212.625 45.6118 211.849 45.6118C210.926 45.6118 210.084 45.4214 209.322 45.0405C208.546 44.6597 208.158 44.1616 208.158 43.5464C208.143 42.9458 208.282 42.5356 208.575 42.3159C208.868 42.0962 209.183 41.9937 209.52 42.0083C210.282 42.0229 210.941 42.4111 211.498 43.1729C212.04 43.9492 212.552 44.3447 213.036 44.3594C213.519 44.3594 214.046 44.0151 214.618 43.3267C215.204 42.6528 215.812 41.5615 216.441 40.0527L218.507 35.1528L220.155 30.9341L215.079 17.8604C214.581 16.5713 214.112 15.6631 213.673 15.1357C213.233 14.6084 212.516 14.3447 211.52 14.3447ZM241.996 14.1689L241.886 17.5747H240.743C240.655 16.0659 240.201 15.0625 239.381 14.5645C238.883 14.2715 238.26 14.125 237.513 14.125C236.708 14.125 236.092 14.3813 235.667 14.894C235.257 15.3921 235.052 16.0366 235.052 16.8276C235.067 17.7505 235.602 18.6514 236.656 19.5303L239.557 22.0571C240.758 23.1265 241.534 24.02 241.886 24.7378C242.252 25.4409 242.435 26.144 242.435 26.8472C242.435 28.5464 241.732 29.8501 240.326 30.7583C239.315 31.4028 238.041 31.7178 236.502 31.7031C234.979 31.7031 233.47 31.3149 231.976 30.5386L231.712 27.0669H232.789C233.082 28.3267 233.47 29.2056 233.954 29.7036C234.437 30.187 235.257 30.4287 236.415 30.4287C237.542 30.4287 238.414 30.1064 239.029 29.4619C239.645 28.8174 239.945 28.1436 239.93 27.4404C239.93 26.459 239.271 25.3896 237.953 24.2324L235.052 21.7495C233.294 20.2554 232.408 18.8271 232.394 17.4648C232.394 15.8535 232.936 14.6963 234.02 13.9932C235.118 13.2754 236.378 12.9165 237.799 12.9165C239.278 12.9165 240.677 13.334 241.996 14.1689Z" fill="#671547"/>
</svg>
