<svg width="23" height="18" viewBox="0 0 23 18" fill="none" xmlns="http://www.w3.org/2000/svg">
<path d="M22.5 5.184V14.3438C22.5001 15.2777 22.1428 16.1762 21.5014 16.855C20.86 17.5338 19.9832 17.9415 19.0508 17.9944L18.8438 18H3.65625C2.72235 18.0001 1.82382 17.6428 1.14499 17.0014C0.466163 16.36 0.0584985 15.4832 0.00562513 14.5508L0 14.3438V5.184L10.8585 10.872C10.9793 10.9353 11.1136 10.9683 11.25 10.9683C11.3864 10.9683 11.5207 10.9353 11.6415 10.872L22.5 5.184ZM3.65625 2.65557e-08H18.8438C19.75 -0.000109142 20.6241 0.33637 21.2963 0.944176C21.9685 1.55198 22.3911 2.38779 22.482 3.2895L11.25 9.17325L0.018 3.2895C0.105214 2.4236 0.498431 1.61721 1.12697 1.01527C1.75551 0.413335 2.57814 0.0553354 3.447 0.00562516L3.65625 2.65557e-08H18.8438H3.65625Z" fill="#03033A"/>
</svg>
